<svg xmlns="http://www.w3.org/2000/svg" viewBox="0 0 24.67 30"><defs><style>.cls-1{fill:#87a83e;}.cls-2{fill:#c3dc4a;}</style></defs><title>Asset 7</title><g id="Layer_2" data-name="Layer 2"><g id="Layer_1-2" data-name="Layer 1"><rect class="cls-1" x="7.38" y="7" width="2.3" height="10.12"/><path class="cls-1" d="M17.85,7.73a4.87,4.87,0,0,0-3.1-.81,18.81,18.81,0,0,0-3.09.21v10h2.27V13.5a5.85,5.85,0,0,0,.78,0A4.72,4.72,0,0,0,18,12.48a3.23,3.23,0,0,0,.93-2.4A3,3,0,0,0,17.85,7.73Zm-3.16,4.06a3.75,3.75,0,0,1-.76-.06v-3a3.64,3.64,0,0,1,1-.09c1.13,0,1.78.56,1.78,1.49S15.91,11.79,14.69,11.79Z"/><path class="cls-2" d="M12.33,0A12.33,12.33,0,0,0,0,12.33C0,19.14,12.33,30,12.33,30S24.67,19.14,24.67,12.33A12.34,12.34,0,0,0,12.33,0Zm0,19.83a8.19,8.19,0,1,1,8.18-8.2A8.19,8.19,0,0,1,12.37,19.83Z"/></g></g></svg>