<svg xmlns="http://www.w3.org/2000/svg" viewBox="0 0 26.39 35.15"><defs><style>.cls-1{fill:#87a83e;}.cls-2{fill:#c3dc4a;}</style></defs><title>Asset 8</title><g id="Layer_2" data-name="Layer 2"><g id="Layer_1-2" data-name="Layer 1"><path class="cls-1" d="M25.76,8.6H23.54a.63.63,0,0,0-.63.62V20.79a.62.62,0,0,1-.62.62H15.21a.62.62,0,0,1-.62-.62V9.22A.63.63,0,0,0,14,8.6H11.73a.63.63,0,0,1-.45-1.06l7-7.35A.64.64,0,0,1,18.75,0a.65.65,0,0,1,.45.19l7,7.35A.63.63,0,0,1,25.76,8.6Z"/><path class="cls-2" d="M15.11,27.6,8.09,35a.61.61,0,0,1-.9,0l-7-7.35a.62.62,0,0,1,.46-1.05H2.85a.62.62,0,0,0,.62-.63V14.36a.63.63,0,0,1,.63-.62h7.08a.62.62,0,0,1,.62.62V25.92a.63.63,0,0,0,.63.63h2.23A.62.62,0,0,1,15.11,27.6Z"/></g></g></svg>