<svg xmlns="http://www.w3.org/2000/svg" viewBox="0 0 25.94 26"><defs><style>.cls-1{fill:#c3dc4a;}.cls-2{fill:#87a83e;}</style></defs><title>Asset 6</title><g id="Layer_2" data-name="Layer 2"><g id="Layer_1-2" data-name="Layer 1"><path class="cls-1" d="M4.6,14.2a4.57,4.57,0,0,0-2.86,1,.36.36,0,0,0-.06.53.37.37,0,0,0,.53.06,3.85,3.85,0,0,1,6.24,3c0,2.85-3,5.59-3.85,6.33C3.74,24.39.76,21.66.76,18.8a3.85,3.85,0,0,1,.54-2,.39.39,0,0,0-.14-.52.38.38,0,0,0-.52.13A4.61,4.61,0,0,0,0,18.8c0,3.7,4.19,7,4.37,7.12A.4.4,0,0,0,4.6,26a.41.41,0,0,0,.24-.08C5,25.78,9.21,22.5,9.21,18.8A4.61,4.61,0,0,0,4.6,14.2Z"/><path class="cls-2" d="M6.67,18.8A2.07,2.07,0,1,0,4.6,20.86,2.07,2.07,0,0,0,6.67,18.8Z"/><path class="cls-1" d="M21.56,5.67a4.39,4.39,0,0,0-4.39,4.38,7.62,7.62,0,0,0,2.09,4.74,13.92,13.92,0,0,0,2.07,2,.38.38,0,0,0,.23.08.4.4,0,0,0,.23-.08,15.23,15.23,0,0,0,2.41-2.46.38.38,0,1,0-.6-.46,14.83,14.83,0,0,1-2,2.13c-.84-.71-3.63-3.29-3.63-6a3.63,3.63,0,0,1,7.25,0,5.45,5.45,0,0,1-.77,2.62.38.38,0,0,0,.67.37,6.25,6.25,0,0,0,.86-3A4.39,4.39,0,0,0,21.56,5.67Z"/><circle class="cls-2" cx="21.56" cy="10.05" r="1.98"/><path class="cls-2" d="M7.75,4A1.84,1.84,0,1,0,5.92,5.86,1.84,1.84,0,0,0,7.75,4Z"/><path class="cls-1" d="M2.9,6.4a.38.38,0,0,0,.19-.51A4.61,4.61,0,0,1,2.65,4,3.27,3.27,0,1,1,9.18,4c0,2.41-2.48,4.73-3.26,5.4a13.05,13.05,0,0,1-2.1-2.28.37.37,0,0,0-.52-.09.38.38,0,0,0-.1.53,14.2,14.2,0,0,0,2.48,2.63.41.41,0,0,0,.24.08.4.4,0,0,0,.23-.08A14.19,14.19,0,0,0,8,8.37,7,7,0,0,0,9.94,4a4,4,0,1,0-8,0A5.31,5.31,0,0,0,2.4,6.21.39.39,0,0,0,2.9,6.4Z"/><path class="cls-2" d="M11.22,12.46A.37.37,0,0,0,11,12l-.47-.2a.38.38,0,0,0-.5.19.39.39,0,0,0,.2.5l.46.21a.41.41,0,0,0,.16,0A.38.38,0,0,0,11.22,12.46Z"/><path class="cls-2" d="M18.65,15.7a.39.39,0,0,0-.2-.5L18,15a.39.39,0,0,0-.5.2.38.38,0,0,0,.19.5l.47.2.15,0A.37.37,0,0,0,18.65,15.7Z"/><path class="cls-2" d="M9.17,11.15,8.71,11a.38.38,0,0,0-.31.69l.47.2a.28.28,0,0,0,.15,0,.38.38,0,0,0,.15-.73Z"/><path class="cls-2" d="M6.85,10.13a.38.38,0,1,0-.3.7L7,11a.4.4,0,0,0,.15,0,.38.38,0,0,0,.16-.72Z"/><path class="cls-2" d="M20.5,16.52a.37.37,0,0,0-.19-.5l-.47-.21a.38.38,0,0,0-.3.7l.46.2a.41.41,0,0,0,.16,0A.37.37,0,0,0,20.5,16.52Z"/><path class="cls-2" d="M16.79,14.89a.38.38,0,0,0-.19-.5l-.47-.2a.38.38,0,0,0-.5.2.39.39,0,0,0,.2.5l.46.2.15,0A.37.37,0,0,0,16.79,14.89Z"/><path class="cls-2" d="M14.94,14.08a.39.39,0,0,0-.2-.5l-.46-.2a.38.38,0,0,0-.31.7l.47.2a.38.38,0,0,0,.5-.2Z"/><path class="cls-2" d="M13.08,13.27a.38.38,0,0,0-.2-.5l-.46-.2a.38.38,0,1,0-.3.69l.46.21.15,0A.38.38,0,0,0,13.08,13.27Z"/><path class="cls-2" d="M6.38,24.78,5.94,25a.37.37,0,0,0-.16.51.38.38,0,0,0,.34.2.33.33,0,0,0,.17,0l.45-.24a.37.37,0,0,0,.16-.51A.38.38,0,0,0,6.38,24.78Z"/><path class="cls-2" d="M8.17,23.83l-.45.24a.38.38,0,0,0,.18.71.39.39,0,0,0,.18,0l.45-.24A.4.4,0,0,0,8.69,24,.39.39,0,0,0,8.17,23.83Z"/><path class="cls-2" d="M10,22.87l-.45.24a.39.39,0,0,0-.15.52.35.35,0,0,0,.33.2.41.41,0,0,0,.18,0l.45-.23a.38.38,0,0,0-.36-.68Z"/><path class="cls-2" d="M18.9,18.11l-.45.24a.37.37,0,0,0-.16.51.38.38,0,0,0,.34.2.39.39,0,0,0,.18,0l.44-.24a.38.38,0,0,0-.35-.67Z"/><path class="cls-2" d="M20.68,17.16l-.44.24a.37.37,0,0,0-.16.51.38.38,0,0,0,.34.2.33.33,0,0,0,.17,0l.45-.24a.37.37,0,0,0,.16-.51A.38.38,0,0,0,20.68,17.16Z"/><path class="cls-2" d="M17.11,19.06l-.45.24a.38.38,0,0,0,.18.72A.41.41,0,0,0,17,20l.45-.24a.37.37,0,0,0,.15-.51A.39.39,0,0,0,17.11,19.06Z"/><path class="cls-2" d="M11.75,21.92l-.45.24a.37.37,0,0,0-.16.51.39.39,0,0,0,.34.21.41.41,0,0,0,.18-.05l.44-.24a.38.38,0,1,0-.35-.67Z"/><path class="cls-2" d="M15.32,20l-.45.23a.39.39,0,0,0-.15.52.38.38,0,0,0,.33.2.39.39,0,0,0,.18,0l.45-.24a.4.4,0,0,0,.16-.52A.39.39,0,0,0,15.32,20Z"/><path class="cls-2" d="M13.53,21l-.44.24a.37.37,0,0,0-.16.51.38.38,0,0,0,.34.2.33.33,0,0,0,.17,0l.45-.24a.37.37,0,0,0,.16-.51A.38.38,0,0,0,13.53,21Z"/></g></g></svg>