<svg xmlns="http://www.w3.org/2000/svg" viewBox="0 0 44.35 28"><defs><style>.cls-1{fill:#87a83e;}.cls-2{fill:#c3dc4a;}</style></defs><title>Asset 10</title><g id="Layer_2" data-name="Layer 2"><g id="Layer_1-2" data-name="Layer 1"><path class="cls-1" d="M43.48,28H.87A.87.87,0,0,1,0,27.13V.87A.87.87,0,0,1,.87,0H43.48a.87.87,0,0,1,.87.87V27.13a.87.87,0,0,1-.87.87ZM1.73,26.27H42.61V1.73H1.73Z"/><path class="cls-2" d="M17.3,9.75A6.66,6.66,0,1,0,4.89,13.09V24a.86.86,0,0,0,1.18.81l4.57-1.76,4.58,1.76a.85.85,0,0,0,.31.06.84.84,0,0,0,.49-.15A.87.87,0,0,0,16.4,24V13.09a6.62,6.62,0,0,0,.9-3.34ZM10.64,4.83A4.92,4.92,0,1,1,5.72,9.75a4.92,4.92,0,0,1,4.92-4.92ZM11,21.35a.83.83,0,0,0-.62,0L6.62,22.77V15.05a6.64,6.64,0,0,0,8.05,0v7.72Z"/><path class="cls-1" d="M10.64,12.94a3.19,3.19,0,0,1,0-6.37.87.87,0,1,1,0,1.73A1.46,1.46,0,1,0,12.1,9.75a.87.87,0,0,1,1.73,0,3.19,3.19,0,0,1-3.19,3.19Z"/><path class="cls-1" d="M39.49,9.77H20.17a.86.86,0,0,1-.86-.87V5.1a.86.86,0,0,1,.86-.87H39.49a.86.86,0,0,1,.86.87V8.9a.86.86,0,0,1-.86.87ZM21,8H38.62V6H21Z"/><path class="cls-1" d="M39.49,13.81H20.17a.87.87,0,0,1,0-1.73H39.49a.87.87,0,0,1,0,1.73Z"/><path class="cls-1" d="M39.39,18.14a.83.83,0,0,1-.61-.26.69.69,0,0,1-.11-.13.53.53,0,0,1-.08-.15.75.75,0,0,1-.05-.16.88.88,0,0,1,0-.17,1.11,1.11,0,0,1,0-.17,1,1,0,0,1,.05-.16,1.09,1.09,0,0,1,.08-.15.69.69,0,0,1,.11-.13.9.9,0,0,1,.78-.24l.16,0,.15.08a1,1,0,0,1,.24.24,1.09,1.09,0,0,1,.08.15,1,1,0,0,1,.05.16,1.11,1.11,0,0,1,0,.17.88.88,0,0,1,0,.17.75.75,0,0,1-.05.16.53.53,0,0,1-.08.15,1,1,0,0,1-.24.24l-.15.08-.16.05-.17,0Z"/><path class="cls-1" d="M36.19,18.14h-16a.87.87,0,0,1,0-1.73h16a.87.87,0,0,1,0,1.73Z"/><path class="cls-1" d="M33.56,22.32H26.11a.87.87,0,1,1,0-1.74h7.45a.87.87,0,0,1,0,1.74Z"/></g></g></svg>