<svg xmlns="http://www.w3.org/2000/svg" viewBox="0 0 26.39 30"><defs><style>.cls-1{fill:#c3dc4a;}.cls-2{fill:#87a83e;}</style></defs><title>Asset 5</title><g id="Layer_2" data-name="Layer 2"><g id="Layer_1-2" data-name="Layer 1"><path class="cls-1" d="M14.44,1.89a2.64,2.64,0,0,0-4,3.34V5.3a18.42,18.42,0,0,1-5.05,9.43L.77,19.29A2.64,2.64,0,0,0,.77,23L3.26,25.5A2.64,2.64,0,0,0,7,25.5l.62-.62L12,29.23a2.63,2.63,0,1,0,3.72-3.73l-1.86-1.86.62-.62a2.64,2.64,0,0,0,0-3.73L14,18.87a18.45,18.45,0,0,1,7-3h.07a2.64,2.64,0,0,0,3.33-.32h0a2.64,2.64,0,0,0,0-3.73ZM4.5,24.26,2,21.77a.86.86,0,0,1,0-1.24l4.34-4.35,3.73,3.73L5.74,24.26A.88.88,0,0,1,4.5,24.26ZM14.44,28a.88.88,0,0,1-1.24,0L8.85,23.64l1.24-1.25,4.35,4.35A.89.89,0,0,1,14.44,28ZM13.2,20.53a.88.88,0,0,1,0,1.24l-.62.62-1.24-1.24c.26-.26.65-.67,1.28-1.2ZM11.37,18.7l-3.8-3.8a20.06,20.06,0,0,0,4.28-8.15l7.67,7.68A20.23,20.23,0,0,0,11.37,18.7Zm11.77-4.38a.88.88,0,0,1-1.24,0L12,4.38A.88.88,0,0,1,13.2,3.13l9.94,9.94A.89.89,0,0,1,23.14,14.32Z"/><path class="cls-2" d="M7,20.53a.88.88,0,1,0-1.25-1.24L4.5,20.53a.88.88,0,0,0,0,1.24.86.86,0,0,0,1.24,0Z"/><path class="cls-2" d="M19.36,2.64V.88a.88.88,0,0,0-1.76,0V2.64a.88.88,0,0,0,1.76,0Z"/><path class="cls-2" d="M25.51,7H23.75a.88.88,0,0,0,0,1.76h1.76a.88.88,0,0,0,0-1.76Z"/><path class="cls-2" d="M22.61,5l1.76-1.75a.89.89,0,0,0,0-1.25.88.88,0,0,0-1.24,0L21.37,3.77a.88.88,0,0,0,0,1.24A.86.86,0,0,0,22.61,5Z"/></g></g></svg>