<svg xmlns="http://www.w3.org/2000/svg" viewBox="0 0 26 27.23"><defs><style>.cls-1{fill:#87a83e;}.cls-2{fill:#c3dc4a;}</style></defs><title>Asset 2</title><g id="Layer_2" data-name="Layer 2"><g id="Layer_1-2" data-name="Layer 1"><path class="cls-1" d="M26,5.78,22.69,2.89,19.37,0,16.06,2.89,12.75,5.78h3.62c-1.22,7.49-8.14,13.33-16,12.09a.27.27,0,0,0-.14.53C10,21.81,21.31,16.2,22.94,5.78Z"/><path class="cls-2" d="M18.65,15.46a17.12,17.12,0,0,1-3.39,2.45v9.32h3.39Z"/><path class="cls-2" d="M10.17,27.23h3.39V18.74a18.11,18.11,0,0,1-3.39,1.08Z"/><path class="cls-2" d="M20.35,27.23h3.39V6.62h-.09a16.28,16.28,0,0,1-3.3,7Z"/><path class="cls-2" d="M3.39,20A18.18,18.18,0,0,1,0,19.23v8H3.39Z"/><path class="cls-2" d="M5.09,27.23H8.48V20.1a18.35,18.35,0,0,1-2.36.15c-.34,0-.69,0-1,0Z"/></g></g></svg>