<svg xmlns="http://www.w3.org/2000/svg" viewBox="0 0 25 25"><defs><style>.cls-1{fill:#87a83e;}.cls-2{fill:#c3dc4a;}</style></defs><title>Asset 4</title><g id="Layer_2" data-name="Layer 2"><g id="Layer_1-2" data-name="Layer 1"><path class="cls-1" d="M1.54,16.58a.38.38,0,0,1-.25-.09A.41.41,0,0,1,1.15,16L3.68,9.55a.4.4,0,0,1,.41-.26l3.51.23a.4.4,0,0,1,.34.23.43.43,0,0,1,0,.41A26.84,26.84,0,0,0,5.58,14.9a.41.41,0,0,1-.47.26l-1.22-.24-2.1,1.57A.38.38,0,0,1,1.54,16.58Z"/><path class="cls-1" d="M8.84,23.88a.4.4,0,0,1-.33-.17.42.42,0,0,1,0-.5l1.57-2.1-.24-1.22a.41.41,0,0,1,.26-.47,26.84,26.84,0,0,0,4.74-2.35.43.43,0,0,1,.41,0,.4.4,0,0,1,.23.34l.23,3.51a.39.39,0,0,1-.26.41L9,23.85A.4.4,0,0,1,8.84,23.88Z"/><path class="cls-2" d="M10.24,20.23A.43.43,0,0,1,10,20.1l-2-2a.39.39,0,0,1-.12-.34.38.38,0,0,1,.19-.3l3.63-2.29V13.33H9.52l-2,3.61a.45.45,0,0,1-.31.21A.41.41,0,0,1,6.88,17l-2-2a.41.41,0,0,1-.1-.44C10.74-.95,24.46,0,24.6,0A.43.43,0,0,1,25,.4c0,.14,1,13.86-14.59,19.8A.4.4,0,0,1,10.24,20.23ZM8.93,17.9l1.42,1.42c7.64-3,11-7.91,12.44-11.53A18.25,18.25,0,0,0,24.16.84C22,.81,10.89,1.35,5.68,14.65l1.39,1.4,1.84-3.33a.4.4,0,0,1,.36-.22h2.81a.42.42,0,0,1,.42.42v2.5a.42.42,0,0,1-.19.35Z"/><path class="cls-2" d="M.42,25a.42.42,0,0,1-.3-.12A.43.43,0,0,1,0,24.41L2.5,19a2.81,2.81,0,0,1,1.87-1.56,2.63,2.63,0,0,1,2.23.43.41.41,0,0,1,.16.38.41.41,0,0,1,.38.16,2.63,2.63,0,0,1,.43,2.23A2.81,2.81,0,0,1,6,22.5L.59,25A.38.38,0,0,1,.42,25Z"/><path class="cls-1" d="M22.81,9.21a.4.4,0,0,1-.29-.12L15.91,2.48a.42.42,0,0,1-.11-.37.4.4,0,0,1,.23-.3A18.73,18.73,0,0,1,24.6,0,.43.43,0,0,1,25,.4,18.57,18.57,0,0,1,23.19,9a.4.4,0,0,1-.3.23Z"/><path class="cls-2" d="M15.86,12.73a3.59,3.59,0,1,1,2.54-1.05A3.58,3.58,0,0,1,15.86,12.73Z"/><path class="cls-1" d="M5.75,19.66a.46.46,0,0,1-.29-.11.42.42,0,0,1-.07-.5l3.52-6.34a.41.41,0,0,1,.37-.21h2.8a.42.42,0,0,1,.42.42v2.5a.42.42,0,0,1-.2.35L6,19.6A.35.35,0,0,1,5.75,19.66Z"/></g></g></svg>