<svg xmlns="http://www.w3.org/2000/svg" viewBox="0 0 43.04 32.07"><defs><style>.cls-1{fill:#87a83e;}.cls-2{fill:#c3dc4a;}</style></defs><title>Asset 9</title><g id="Layer_2" data-name="Layer 2"><g id="Layer_1-2" data-name="Layer 1"><path class="cls-1" d="M41.56,0H3.93a1.48,1.48,0,1,0,0,3H40.07V29.11H8.52A5.55,5.55,0,0,1,6.73,18.3L5.66,19.82a1.48,1.48,0,0,0,2.43,1.7l3.11-4.45a1.44,1.44,0,0,0,.25-1.1,1.48,1.48,0,0,0-.61-1L6.39,11.9A1.48,1.48,0,1,0,4.7,14.32l1.48,1a8.51,8.51,0,0,0,2.34,16.7h33A1.48,1.48,0,0,0,43,30.59V1.48A1.48,1.48,0,0,0,41.56,0Z"/><path class="cls-2" d="M22.45,19.7a1.48,1.48,0,0,0-3,0c0,2.42,2.08,4.45,4.88,5v1.44a1.48,1.48,0,0,0,3,0V24.69c2.79-.54,4.88-2.57,4.88-5s-2.09-4.46-4.88-5V10.43c1.11.37,1.92,1.12,1.92,2a1.48,1.48,0,0,0,3,0c0-2.42-2.09-4.46-4.88-5V6a1.48,1.48,0,1,0-3,0V7.38c-2.8.54-4.88,2.58-4.88,5s2.08,4.46,4.88,5v4.26c-1.12-.37-1.92-1.12-1.92-1.94Zm6.8,0c0,.82-.81,1.57-1.92,1.94V17.75c1.11.37,1.92,1.12,1.92,1.95Zm-6.8-7.32c0-.83.8-1.58,1.92-2v3.89c-1.12-.37-1.92-1.12-1.92-1.94Z"/></g></g></svg>