<svg xmlns="http://www.w3.org/2000/svg" xmlns:xlink="http://www.w3.org/1999/xlink" viewBox="0 0 776.8 563.16"><defs><style>.cls-1{fill:#edb99e;}.cls-2{isolation:isolate;}.cls-3{fill:#f0f6d4;}.cls-4{fill:#d2d9a0;}.cls-11,.cls-5{fill:#2e5175;}.cls-5{opacity:0.1;}.cls-6{fill:#fff;}.cls-7{fill:#b2bcc2;}.cls-8{fill:#525062;}.cls-9{fill:#5e7927;}.cls-10,.cls-35{fill:#87a83e;}.cls-12{fill:#c3dc4a;}.cls-13{fill:#e6f1a4;}.cls-14{fill:url(#linear-gradient);}.cls-15{fill:#78ac5c;}.cls-16{fill:url(#linear-gradient-2);}.cls-17{fill:url(#linear-gradient-3);}.cls-18,.cls-31{mix-blend-mode:overlay;}.cls-18{fill:url(#linear-gradient-4);}.cls-19{fill:#4c601d;}.cls-20{opacity:0.57;}.cls-21{fill:none;stroke:#e6f1a4;stroke-linecap:round;}.cls-21,.cls-35{stroke-miterlimit:10;}.cls-22{fill:#cfd980;}.cls-23{fill:#161616;}.cls-24{fill:#be5641;}.cls-25{fill:#27222e;}.cls-26{clip-path:url(#clip-path);}.cls-27{fill:#182543;}.cls-28{fill:#d36d51;}.cls-29{fill:url(#linear-gradient-5);}.cls-30{fill:url(#linear-gradient-6);}.cls-31{fill:url(#linear-gradient-7);}.cls-32{fill:#ebae95;}.cls-33{fill:#e3a5a6;}.cls-34{clip-path:url(#clip-path-2);}.cls-35{stroke:#87a83e;stroke-width:2px;}</style><linearGradient id="linear-gradient" x1="195.94" y1="508.27" x2="336.34" y2="508.27" gradientUnits="userSpaceOnUse"><stop offset="0" stop-color="#c3dc4a"/><stop offset="1" stop-color="#5e7927"/></linearGradient><linearGradient id="linear-gradient-2" x1="195.94" y1="480.48" x2="336.34" y2="480.48" xlink:href="#linear-gradient"/><linearGradient id="linear-gradient-3" x1="195.94" y1="452.69" x2="336.34" y2="452.69" xlink:href="#linear-gradient"/><linearGradient id="linear-gradient-4" x1="266.98" y1="513.76" x2="266.98" y2="355.38" gradientUnits="userSpaceOnUse"><stop offset="0" stop-color="#c3dc4a"/><stop offset="0.31" stop-color="#d8e889" stop-opacity="0.65"/><stop offset="0.64" stop-color="#edf4c8" stop-opacity="0.3"/><stop offset="0.88" stop-color="#fafcf0" stop-opacity="0.08"/><stop offset="1" stop-color="#fff" stop-opacity="0"/></linearGradient><clipPath id="clip-path"><path class="cls-1" d="M385.53,228a12.35,12.35,0,1,1-10.16-14.2A12.35,12.35,0,0,1,385.53,228Z"/></clipPath><linearGradient id="linear-gradient-5" x1="571.59" y1="211.58" x2="679.18" y2="211.58" xlink:href="#linear-gradient"/><linearGradient id="linear-gradient-6" x1="553.62" y1="182.25" x2="701.84" y2="182.25" xlink:href="#linear-gradient"/><linearGradient id="linear-gradient-7" x1="627.84" y1="212.59" x2="627.84" y2="54.8" xlink:href="#linear-gradient-4"/><clipPath id="clip-path-2"><path class="cls-1" d="M648.86,76a13.95,13.95,0,1,0,1.81-19.65A14,14,0,0,0,648.86,76Z"/></clipPath></defs><title>Asset 1</title><g class="cls-2"><g id="Layer_2" data-name="Layer 2"><g id="Layer_1-2" data-name="Layer 1"><path class="cls-3" d="M696.71,185.84a53.33,53.33,0,0,0,33.44,12.23c20.1,0,26.79,18.65,22.33,34.43s-40.19-2.87-40.19-2.87c-15.62,2.87-51.49,10.21-51.49,10.21Z"/><path class="cls-4" d="M701.84,193.31a55.53,55.53,0,0,0,30,8.53c18,0,24,13,20,24s-36-2-36-2c-14,2-37,5.95-37,5.95Z"/><ellipse class="cls-3" cx="430.3" cy="394.84" rx="70.5" ry="15.81"/><path class="cls-4" d="M473.8,390.84c0,5.24-23.25,12-46.64,12s-43.36.24-43.36-5,20-14,43.36-14S473.8,385.59,473.8,390.84Z"/><ellipse class="cls-3" cx="667.3" cy="545.84" rx="70.5" ry="15.81"/><ellipse class="cls-4" cx="669.16" cy="544.34" rx="42.35" ry="9.5"/><ellipse class="cls-5" cx="53.17" cy="480.41" rx="42.49" ry="5.43"/><path class="cls-6" d="M89.88,455.9V425.38S61.22,440.05,50.8,439.84c-9.39-.19-34.66-14.46-34.66-14.46v4l51.28,51.28A24.86,24.86,0,0,0,89.88,455.9Z"/><path class="cls-7" d="M16.14,429.36V455.9A24.86,24.86,0,0,0,41,480.76H65c.81,0,1.6-.05,2.39-.12Z"/><path class="cls-6" d="M15.8,425.84c17-15,42-23,74,0"/><path class="cls-6" d="M89.8,425.84c-26-20-57-15-74,0l21,14,28,4Z"/><path class="cls-8" d="M47.46,435.81c12.49.73,26-1.18,33.91-5.42,1.57-.85,3-1.94,2.23-3-.88-1.22-4.21-1.73-7.11-2-15-1.55-31.67-2.25-46.37.25C8.58,429.28,36,435.14,47.46,435.81Z"/><path class="cls-9" d="M27,385.8c6.8,33.45,19.06,51.09,29.65,49.82L31.82,313.15C29.71,320.78,20.9,355.54,27,385.8Z"/><path class="cls-10" d="M32.26,311.62s-.16.54-.44,1.53L56.69,435.62c.25,0,.49-.05.73-.1C68.18,433.33,73,412.11,66,377.89S32.26,311.62,32.26,311.62Z"/><path class="cls-11" d="M51.65,407.93q-2.55-12.36-5.06-24.72-5-24.72-10.42-49.37a.14.14,0,0,0-.28.06q3.16,16.74,6.48,33.47a68.08,68.08,0,0,0-12.23-8c-.22-.1-.45.25-.27.41a70.42,70.42,0,0,0,12.68,8.47c1,5.05,2,10.1,3,15.14q2.51,12.38,5,24.74c1.64,8.19,2.82,16.67,5.12,24.7a.46.46,0,0,0,.91-.18C55.55,424.38,53.33,416.12,51.65,407.93Z"/><path class="cls-11" d="M49.14,397.69A142.32,142.32,0,0,0,28.7,384.22a.16.16,0,0,0-.17.26,142.37,142.37,0,0,0,20.38,13.57A.21.21,0,0,0,49.14,397.69Z"/><path class="cls-11" d="M56.27,366.85c-2,2.61-3.8,5.3-5.68,8a41.67,41.67,0,0,0-4.65,7.48.24.24,0,0,0,.38.25,41.66,41.66,0,0,0,5.08-7.19c1.72-2.77,3.47-5.52,5.11-8.34A.14.14,0,0,0,56.27,366.85Z"/><path class="cls-11" d="M62.23,398.26c-3.27,4.57-6.84,9.05-9.46,14a.26.26,0,0,0,.44.29c3.56-4.36,6.29-9.39,9.22-14.19A.12.12,0,0,0,62.23,398.26Z"/><path class="cls-11" d="M55.13,422.72a112.11,112.11,0,0,0-16.81-11,.17.17,0,0,0-.19.29,111.34,111.34,0,0,0,16.71,11.17A.26.26,0,0,0,55.13,422.72Z"/><path class="cls-9" d="M65.77,384.74C55.4,411.2,56,429.08,64,433l38-96.89C97,340.46,75.16,360.79,65.77,384.74Z"/><path class="cls-10" d="M103,335.21l-1,.88L64,433l.56.26c8.51,3.34,21.45-9.35,32.06-36.42S103,335.21,103,335.21Z"/><path class="cls-11" d="M73,411.33q3.81-9.78,7.64-19.57,7.65-19.56,15-39.24a.12.12,0,0,0-.23-.08q-5.34,13.14-10.59,26.33a57,57,0,0,0-5-11.1c-.1-.17-.42,0-.37.17a58.28,58.28,0,0,0,5,11.65q-2.39,6-4.75,11.95Q76,401.22,72.1,411c-2.56,6.48-5.57,12.93-7.59,19.59a.39.39,0,0,0,.72.28C68.27,424.61,70.45,417.82,73,411.33Z"/><path class="cls-11" d="M75.85,403a118.71,118.71,0,0,0-8.2-18.66.13.13,0,0,0-.24.1,119.28,119.28,0,0,0,8.12,18.71A.18.18,0,0,0,75.85,403Z"/><path class="cls-11" d="M94.78,384.7c-2.55.94-5,2-7.57,3a34.62,34.62,0,0,0-6.63,3.12.2.2,0,0,0,.15.35,34.43,34.43,0,0,0,6.8-2.74c2.46-1.15,4.93-2.28,7.34-3.51A.12.12,0,0,0,94.78,384.7Z"/><path class="cls-11" d="M84.75,409.36c-4.35,1.71-8.87,3.23-13,5.53a.22.22,0,0,0,.18.4c4.46-1.44,8.64-3.72,12.86-5.75A.1.1,0,0,0,84.75,409.36Z"/><path class="cls-11" d="M68.72,423.25A93.3,93.3,0,0,0,62,407.94a.15.15,0,0,0-.27.12,93.33,93.33,0,0,0,6.64,15.37A.22.22,0,0,0,68.72,423.25Z"/><path class="cls-9" d="M9.59,401.12c10.92,23.08,23,33.69,30.46,30.88L0,347.48C-.13,353.4-.3,380.23,9.59,401.12Z"/><path class="cls-10" d="M.09,346.29s0,.42,0,1.19l40,84.52.51-.21c7.43-3.51,7.09-19.79-4.09-43.4S.09,346.29.09,346.29Z"/><path class="cls-11" d="M31.42,412.78q-4.07-8.52-8.1-17-8.09-17.06-16.41-34a.11.11,0,0,0-.2.09Q12,373.43,17.42,385a51.29,51.29,0,0,0-10.31-3.6c-.18,0-.29.26-.12.34a52,52,0,0,0,10.72,3.89c1.63,3.49,3.25,7,4.9,10.46q4,8.54,8.05,17.08c2.66,5.66,5,11.6,8.14,17a.35.35,0,0,0,.63-.29C37.21,424,34.11,418.43,31.42,412.78Z"/><path class="cls-11" d="M27.77,405.8a105.75,105.75,0,0,0-17.26-6.13.12.12,0,0,0-.08.22,106.64,106.64,0,0,0,17.23,6.2A.16.16,0,1,0,27.77,405.8Z"/><path class="cls-11" d="M27.42,382.11c-1,2.25-1.81,4.53-2.7,6.8a31.68,31.68,0,0,0-2,6.27.18.18,0,0,0,.33.11,30.81,30.81,0,0,0,2.39-6.13c.76-2.32,1.54-4.63,2.23-7A.11.11,0,0,0,27.42,382.11Z"/><path class="cls-11" d="M37.38,403.86A92.55,92.55,0,0,0,33,415.75a.2.2,0,0,0,.37.13,92.42,92.42,0,0,0,4.16-12A.09.09,0,0,0,37.38,403.86Z"/><path class="cls-11" d="M36.6,422.91a82.71,82.71,0,0,0-14.19-5,.13.13,0,0,0-.08.24,82.67,82.67,0,0,0,14.14,5.13A.2.2,0,0,0,36.6,422.91Z"/><path class="cls-5" d="M163.31,449.82c0,3.19-18.49,5.77-41.29,5.77S80.73,453,80.73,449.82s18.48-5.77,41.29-5.77S163.31,446.64,163.31,449.82Z"/><path class="cls-6" d="M90.85,418.9c1.24,6.94,2.82,13.94,6.25,20.1s9,11.44,15.83,13.1a36.29,36.29,0,0,0,9.54.65c3.51-.09,7.17-.32,10.19-2.09,3.94-2.32,6-6.8,7.6-11.08a129.32,129.32,0,0,0,6.14-22.35c.79-4.39,1.3-9.16-.76-13.12-2.77-5.37-9.29-7.53-15.25-8.51-9.92-1.62-23.58-2.44-33.09,1.6C89,400.72,89.51,411.32,90.85,418.9Z"/><path class="cls-8" d="M115.18,407c7.44.43,15.49-.71,20.17-3.23.94-.5,1.77-1.15,1.33-1.77s-2.5-1-4.23-1.2c-8.94-.93-18.83-1.34-27.58.14C92.06,403.13,108.38,406.62,115.18,407Z"/><path class="cls-12" d="M90,271.14s-12.82,56.6,7.47,95l20.29,38.45S123.09,308.52,90,271.14Z"/><path class="cls-9" d="M109.21,257.26s-6.41,107.86,8.54,147.37C117.75,404.63,127.36,308.52,109.21,257.26Z"/><path class="cls-10" d="M115.86,403.84h3.47c5.11-21.35,20.37-90.51,12.3-122.79,0,0-25.63,90.77-19.22,111.05C114,397.43,115.08,401.18,115.86,403.84Z"/><path class="cls-7" d="M94.45,399c-5.28,4.54-4.76,13.37-3.6,19.94,1.24,6.94,2.82,13.94,6.25,20.1s9,11.44,15.83,13.1a36.29,36.29,0,0,0,9.54.65,39,39,0,0,0,5.18-.4Z"/><path class="cls-10" d="M417.94,538.05a12.79,12.79,0,0,0,.75-3l154.38-90.65a9.4,9.4,0,0,0-.31,2.75Z"/><path class="cls-10" d="M502.8,431.87a6.31,6.31,0,0,1-3.13,5.49l-86.14,50.5a1,1,0,0,1-.57.15,1.09,1.09,0,0,1-1-.53c-.32-.54,86.53-52.06,86.53-52.06a4,4,0,0,0,2-3.55,4,4,0,0,0-2.06-3.49l-70.56-40.06a13.16,13.16,0,0,0,2.66-1l69,39.13A6.19,6.19,0,0,1,502.8,431.87Z"/><path class="cls-10" d="M655.08,402.13a1.14,1.14,0,0,1-1,.57,1.12,1.12,0,0,1-.54-.15l-89.81-49.81a5.69,5.69,0,0,1-.12-9.88l107.57-63.1a11.63,11.63,0,0,0,2.78,1L564.76,344.8a3.44,3.44,0,0,0,.06,6l89.82,49.84A1.13,1.13,0,0,1,655.08,402.13Z"/><path class="cls-10" d="M665.8,288.6a8.94,8.94,0,0,0,3.79,7.59l24.85,16.44a9.88,9.88,0,0,1,2.35-1l-26.2-17.4a6.7,6.7,0,0,1-2.83-5.65,6.58,6.58,0,0,1,2.88-5.58l26.15-16.92a6.54,6.54,0,0,0,.05-10.54l-7.19-4.74a9.64,9.64,0,0,1-2.33,1l8.53,5.64a4,4,0,0,1,1.67,3.35,3.89,3.89,0,0,1-1.7,3.28l-26.15,16.95A8.84,8.84,0,0,0,665.8,288.6Z"/><path class="cls-10" d="M674.88,247.27c0,2.86,3.81,5.16,8.55,5.16a13.13,13.13,0,0,0,3.89-.57,9.64,9.64,0,0,0,2.33-1,4.38,4.38,0,0,0,2.33-3.55c0-2.84-3.82-5.14-8.55-5.14S674.88,244.43,674.88,247.27Z"/><path class="cls-10" d="M741.29,177.52c0,1.41-.91,2.71-2.46,3.77a13.68,13.68,0,0,1-2.92,1.37,19.84,19.84,0,0,1-6.15,1c-6.37,0-11.5-2.75-11.5-6.09s5.13-6,11.5-6S741.29,174.18,741.29,177.52Z"/><path class="cls-10" d="M335.68,541c0,2.83-4.36,5.13-9.76,5.13a18,18,0,0,1-3.94-.42,11.63,11.63,0,0,1-2.78-1c-1.88-.93-3.07-2.27-3.07-3.73,0-2.87,4.38-5.17,9.79-5.17S335.68,538.16,335.68,541Z"/><path class="cls-10" d="M436.54,387a4.15,4.15,0,0,1-2.24,3.29,10.6,10.6,0,0,1-2.51,1.1,16.13,16.13,0,0,1-5,.75c-5.4,0-9.76-2.3-9.76-5.14s4.36-5.16,9.76-5.16S436.54,384.14,436.54,387Z"/><path class="cls-10" d="M584.68,445.59c0,2.83-4.38,5.13-9.76,5.13a17.17,17.17,0,0,1-4.24-.51,12,12,0,0,1-2.71-1c-1.73-.93-2.84-2.21-2.84-3.61,0-2.87,4.39-5.17,9.79-5.17S584.68,442.72,584.68,445.59Z"/><path class="cls-13" d="M333.79,506.45c4.55,2.62-.33,6.5-4.84,9.12l-60.33,35.06c-4.52,2.63-11.86,2.63-16.4,0L195.34,517c-4.54-2.63-4.57-6.88-.05-9.5l60.33-35.06c4.52-2.63,11.86-2.63,16.4,0Z"/><path class="cls-14" d="M336.34,491l-22.9.33L276,469.18c-4.54-2.63-11.88-2.63-16.4,0l-40.36,23.45-23.34.34v15.86h0c-.07,1.77,1.05,3.55,3.39,4.91l56.88,33.62c4.54,2.63,11.88,2.63,16.4,0L333,512.3c2.3-1.34,3.41-3.1,3.35-4.85h0Z"/><path class="cls-12" d="M332.92,486.42c4.54,2.62,4.57,6.88.05,9.5L272.64,531c-4.52,2.62-11.86,2.62-16.4,0l-56.88-33.63c-4.54-2.62-4.56-6.87-.05-9.5l60.33-35.06c4.52-2.62,11.86-2.62,16.4,0Z"/><path class="cls-15" d="M227.9,490.24,264.5,469a5.81,5.81,0,0,1,5.83,0l34.38,19.91a2.57,2.57,0,0,1,0,4.45l-36.4,21a7.65,7.65,0,0,1-7.71,0l-32.7-19.15A2.82,2.82,0,0,1,227.9,490.24Z"/><polygon class="cls-12" points="315.47 517.69 312.05 519.69 312.05 511.38 315.47 509.39 315.47 517.69"/><polygon class="cls-12" points="320.27 514.9 316.85 516.9 316.85 508.59 320.27 506.6 320.27 514.9"/><polygon class="cls-12" points="325.06 512.12 321.64 514.11 321.64 505.8 325.06 503.81 325.06 512.12"/><polygon class="cls-12" points="329.85 509.33 326.43 511.32 326.43 503.01 329.85 501.02 329.85 509.33"/><path class="cls-12" d="M310.17,517.81c0,1-.55,1.88-1.23,1.88s-1.24-.84-1.24-1.88.56-1.88,1.24-1.88S310.17,516.77,310.17,517.81Z"/><path class="cls-12" d="M306,520.42c0,1-.55,1.88-1.23,1.88s-1.24-.85-1.24-1.88.56-1.89,1.24-1.89S306,519.38,306,520.42Z"/><path class="cls-16" d="M336.34,463.17l-22.9.33L276,441.39c-4.54-2.63-11.88-2.63-16.4,0l-40.36,23.46-23.34.33V481h0c-.07,1.77,1.05,3.56,3.39,4.91l56.88,33.62c4.54,2.63,11.88,2.63,16.4,0L333,484.51c2.3-1.34,3.41-3.1,3.35-4.85h0Z"/><path class="cls-12" d="M332.92,458.63c4.54,2.63,4.57,6.88.05,9.5l-60.33,35.06c-4.52,2.63-11.86,2.63-16.4,0l-56.88-33.62c-4.54-2.63-4.56-6.88-.05-9.5L259.64,425c4.52-2.63,11.86-2.63,16.4,0Z"/><path class="cls-15" d="M227.9,462.45l36.6-21.26a5.81,5.81,0,0,1,5.83,0l34.38,19.91a2.57,2.57,0,0,1,0,4.45l-36.4,21a7.67,7.67,0,0,1-7.71,0l-32.7-19.15A2.83,2.83,0,0,1,227.9,462.45Z"/><polygon class="cls-12" points="315.47 489.91 312.05 491.9 312.05 483.59 315.47 481.6 315.47 489.91"/><polygon class="cls-12" points="320.27 487.12 316.85 489.11 316.85 480.8 320.27 478.81 320.27 487.12"/><polygon class="cls-12" points="325.06 484.33 321.64 486.32 321.64 478.01 325.06 476.02 325.06 484.33"/><polygon class="cls-12" points="329.85 481.54 326.43 483.53 326.43 475.23 329.85 473.23 329.85 481.54"/><path class="cls-12" d="M310.17,490c0,1-.55,1.88-1.23,1.88s-1.24-.84-1.24-1.88.56-1.88,1.24-1.88S310.17,489,310.17,490Z"/><path class="cls-12" d="M306,492.63c0,1-.55,1.88-1.23,1.88s-1.24-.84-1.24-1.88.56-1.88,1.24-1.88S306,491.59,306,492.63Z"/><path class="cls-17" d="M336.34,435.39l-22.9.32L276,413.6c-4.54-2.62-11.88-2.62-16.4,0l-40.36,23.46-23.34.33v15.86h0c-.07,1.77,1.05,3.56,3.39,4.91l56.88,33.63c4.54,2.62,11.88,2.62,16.4,0L333,456.73c2.3-1.34,3.41-3.11,3.35-4.86h0Z"/><path class="cls-12" d="M332.92,430.84c4.54,2.63,4.57,6.88.05,9.5L272.64,475.4c-4.52,2.63-11.86,2.63-16.4,0l-56.88-33.62c-4.54-2.63-4.56-6.88-.05-9.5l60.33-35.06c4.52-2.63,11.86-2.63,16.4,0Z"/><path class="cls-6" d="M227.9,434.67l36.6-21.27a5.81,5.81,0,0,1,5.83,0l34.38,19.91a2.57,2.57,0,0,1,0,4.45l-36.4,21a7.7,7.7,0,0,1-7.71,0l-32.7-19.15A2.82,2.82,0,0,1,227.9,434.67Z"/><polygon class="cls-12" points="315.47 462.12 312.05 464.11 312.05 455.81 315.47 453.81 315.47 462.12"/><polygon class="cls-12" points="320.27 459.33 316.85 461.32 316.85 453.02 320.27 451.02 320.27 459.33"/><polygon class="cls-12" points="325.06 456.54 321.64 458.54 321.64 450.23 325.06 448.23 325.06 456.54"/><polygon class="cls-12" points="329.85 453.75 326.43 455.75 326.43 447.44 329.85 445.44 329.85 453.75"/><path class="cls-12" d="M310.17,462.23c0,1-.55,1.88-1.23,1.88s-1.24-.84-1.24-1.88.56-1.88,1.24-1.88S310.17,461.19,310.17,462.23Z"/><path class="cls-12" d="M306,464.84c0,1-.55,1.88-1.23,1.88s-1.24-.84-1.24-1.88.56-1.88,1.24-1.88S306,463.8,306,464.84Z"/><path class="cls-18" d="M327.64,332.84H206.33L226.26,436c.37,1.5.42,3.1,1.7,3.84L260.67,459a7.65,7.65,0,0,0,7.71,0l36.39-21a3,3,0,0,0,1.32-1.67C311.55,412.36,327.64,332.84,327.64,332.84Z"/><path class="cls-10" d="M416.78,262.07c0,2.93-4.54,5.3-10.12,5.3s-10.09-2.37-10.09-5.3,4.5-5.34,10.09-5.34a16.72,16.72,0,0,1,4.44.55,13.1,13.1,0,0,1,2.78,1C415.67,259.29,416.78,260.62,416.78,262.07Z"/><path class="cls-13" d="M460,321.92l-77-44.44a6.43,6.43,0,0,0-5.84,0L264,343.22c-1.61.93-1.6,2.45,0,3.39l77,44.45a6.48,6.48,0,0,0,5.85,0L460,325.31C461.6,324.38,461.59,322.86,460,321.92Z"/><path class="cls-19" d="M464.54,319.76a.06.06,0,0,1,0,0,1.45,1.45,0,0,1-.2.39.43.43,0,0,0,0,.07,2.7,2.7,0,0,1-.33.36c-.08.07-.19.14-.29.21a2.27,2.27,0,0,1-.25.18L350.28,386.76a5,5,0,0,1-.81.36l-.31.09-.42.11-.5.08-.12,0c-.23,0-.46,0-.7,0h-.11c-.23,0-.46,0-.68,0h-.11c-.22,0-.45-.07-.66-.12l-.12,0a3.86,3.86,0,0,1-.58-.17l-.1,0a6.09,6.09,0,0,1-.63-.3l-77-44.45a2.08,2.08,0,0,1-1.23-1.71v2.8a2.06,2.06,0,0,0,1.22,1.71l77,44.45a5.55,5.55,0,0,0,.6.29h0l.1,0,.37.13.2.05.12,0,.11,0a2.93,2.93,0,0,0,.41.07l.15,0h.1l.15,0,.41,0h.42l.46,0h.17l.36,0,.15,0,.41-.1.22-.06.09,0a4,4,0,0,0,.81-.36L463.4,323.82l.05,0c.08-.05.14-.11.21-.16a3.06,3.06,0,0,0,.29-.21s0,0,0,0a2.27,2.27,0,0,0,.26-.28l0-.06.05-.07.07-.11a1.28,1.28,0,0,0,.11-.24l0,0a.09.09,0,0,1,0-.05c0-.05,0-.1,0-.15a1,1,0,0,0,0-.24v-2.84A1.25,1.25,0,0,1,464.54,319.76Z"/><path class="cls-13" d="M463.39,317.63c1.62.93,1.63,2.45,0,3.38L350.28,386.76a6.48,6.48,0,0,1-5.85,0l-77-44.45c-1.63-.94-1.63-2.45,0-3.39l113.14-65.74a6.4,6.4,0,0,1,5.84,0Z"/><path class="cls-13" d="M380,177.05l.41-.21.13,0,.1,0,.12,0,.26-.05h.41l.18,0h.05a.35.35,0,0,1,.11,0l.16,0,.14.07h0l1.41.82-.59,2.14L270.82,245.53a4.91,4.91,0,0,0-.55.38l-.17.15a4,4,0,0,0-.37.35l-.1.1a5.66,5.66,0,0,0-.43.52l0,.05c-.14.2-.28.41-.41.63v0a6.16,6.16,0,0,0-.34.68h0c-.1.23-.18.46-.26.7v.06a3.5,3.5,0,0,0-.15.64s0,.07,0,.1a5.31,5.31,0,0,0-.05.68L265.69,339l-1.4-.82a2,2,0,0,1-.86-1.88l-.25-88.46a3.86,3.86,0,0,1,0-.58.44.44,0,0,1,0-.1s0-.07,0-.1a1.55,1.55,0,0,0,0-.21c0-.11,0-.22.08-.33l0-.1,0-.06a1,1,0,0,0,0-.14l.1-.28.11-.26h0v0c0-.07.07-.15.11-.23l.12-.25.12-.2v0l.15-.25.17-.25.08-.11,0-.05.08-.11a3.07,3.07,0,0,1,.24-.29l.11-.12.1-.1.11-.12.26-.23.17-.15a4.14,4.14,0,0,1,.55-.38Z"/><path class="cls-9" d="M381.38,177.86c1.62-.94,2.94-.19,2.94,1.68l.25,88.46a6.45,6.45,0,0,1-2.92,5.07L267.78,338.81c-1.63.94-2.94.19-2.95-1.68l-.25-88.46a6.43,6.43,0,0,1,2.93-5.07ZM381,259l-.2-69.93c0-2.18-1.55-3.05-3.44-2L271.55,248.18a7.51,7.51,0,0,0-3.41,5.92l.2,69.93c0,2.17,1.54,3,3.43,2l105.82-61.09A7.55,7.55,0,0,0,381,259"/><path class="cls-6" d="M381,259a7.49,7.49,0,0,1-3.42,5.91L313.37,302l-41.6,24c-1.89,1.09-3.43.22-3.44-2l-.19-69.92a7.53,7.53,0,0,1,3.41-5.92l52.16-30.11,53.66-31c1.89-1.08,3.44-.21,3.44,2Z"/><path class="cls-19" d="M390.59,282.84l-4.94,2.86a1.16,1.16,0,0,1-.58.14,1.24,1.24,0,0,1-.6-.14l-3.8-2.2c-.11-.06-.17-.13-.17-.19s.06-.12.16-.18l4.94-2.87a1.16,1.16,0,0,1,.58-.13,1.17,1.17,0,0,1,.59.13l3.81,2.2c.12.07.17.15.17.19S390.69,282.78,390.59,282.84Z"/><path class="cls-19" d="M383.82,286.68c0,.05-.06.12-.16.18l-4.94,2.87a1.13,1.13,0,0,1-.58.13,1.32,1.32,0,0,1-.59-.13l-3.81-2.2c-.1-.06-.16-.13-.16-.19s.06-.13.16-.19l4.94-2.86a1.13,1.13,0,0,1,.58-.14,1.2,1.2,0,0,1,.59.14l3.8,2.19C383.78,286.56,383.82,286.63,383.82,286.68Z"/><path class="cls-19" d="M376.76,290.78c0,.06-.06.13-.16.18l-4.94,2.87a1.17,1.17,0,0,1-.59.14,1.2,1.2,0,0,1-.59-.14l-3.8-2.19c-.11-.06-.17-.14-.17-.19s.06-.13.17-.19l4.93-2.87a1.17,1.17,0,0,1,.59-.14,1.16,1.16,0,0,1,.58.14l3.81,2.2C376.69,290.65,376.76,290.72,376.76,290.78Z"/><path class="cls-19" d="M369.62,294.93c0,.06-.06.13-.16.18L364.52,298a1.16,1.16,0,0,1-.58.14,1.24,1.24,0,0,1-.6-.14l-3.8-2.2c-.13-.07-.17-.14-.17-.19s.06-.12.16-.18l4.94-2.87a1.16,1.16,0,0,1,.58-.14,1.17,1.17,0,0,1,.59.14l3.81,2.2C369.57,294.81,369.62,294.88,369.62,294.93Z"/><path class="cls-19" d="M362.55,299c0,.06-.06.13-.16.19l-4.93,2.87a1.2,1.2,0,0,1-.59.14,1.17,1.17,0,0,1-.59-.14l-3.81-2.2c-.1-.06-.16-.13-.16-.19a.29.29,0,0,1,.16-.19l4.94-2.87a1.27,1.27,0,0,1,.58-.13,1.17,1.17,0,0,1,.59.14l3.8,2.19C362.49,298.9,362.55,299,362.55,299Z"/><path class="cls-19" d="M355.48,303.15c0,.05-.06.12-.16.18l-4.94,2.87a1.24,1.24,0,0,1-.58.13,1.2,1.2,0,0,1-.59-.14L345.4,304c-.12-.07-.16-.15-.16-.19s.06-.13.16-.18l4.93-2.87a1.31,1.31,0,0,1,1.18,0l3.8,2.19C355.44,303,355.48,303.1,355.48,303.15Z"/><path class="cls-19" d="M348.42,307.25c0,.06-.07.13-.17.19l-4.93,2.87a1.29,1.29,0,0,1-.59.13,1.2,1.2,0,0,1-.59-.14l-3.81-2.19a.29.29,0,0,1-.16-.19c0-.06.06-.13.16-.19l4.94-2.87a1.17,1.17,0,0,1,.59-.13,1.16,1.16,0,0,1,.58.13l3.81,2.2C348.35,307.12,348.42,307.19,348.42,307.25Z"/><path class="cls-19" d="M341.34,311.36c0,.06-.06.13-.16.18l-4.93,2.87a1.2,1.2,0,0,1-.59.14,1.17,1.17,0,0,1-.59-.14l-3.81-2.19c-.1-.06-.16-.13-.16-.19s.06-.13.16-.19L336.2,309a1.16,1.16,0,0,1,.58-.14,1.17,1.17,0,0,1,.59.14l3.8,2.2C341.28,311.23,341.34,311.3,341.34,311.36Z"/><path class="cls-19" d="M334.28,315.47s-.06.12-.16.18l-4.94,2.87a1.16,1.16,0,0,1-.58.14,1.24,1.24,0,0,1-.6-.14l-3.8-2.2c-.13-.07-.17-.14-.17-.19s.06-.12.16-.18l4.94-2.87a1.16,1.16,0,0,1,.58-.14,1.17,1.17,0,0,1,.59.14l3.81,2.2C334.23,315.35,334.28,315.42,334.28,315.47Z"/><path class="cls-19" d="M327.19,319.58c0,.06-.06.13-.16.19l-4.94,2.87a1.16,1.16,0,0,1-.58.14,1.36,1.36,0,0,1-.6-.14l-3.8-2.2c-.1-.06-.17-.13-.17-.19s.07-.13.16-.18L322,317.2a1.2,1.2,0,0,1,.59-.14,1.17,1.17,0,0,1,.59.14l3.8,2.19C327.13,319.45,327.19,319.53,327.19,319.58Z"/><path class="cls-19" d="M396.41,286.2l-16.65,9.68a1.27,1.27,0,0,1-.58.13,1.35,1.35,0,0,1-.59-.13l-3.8-2.2c-.13-.07-.17-.15-.17-.19s0-.11.16-.18l16.65-9.68a1.2,1.2,0,0,1,.59-.14,1.16,1.16,0,0,1,.58.14l3.81,2.2c.12.07.17.14.17.19S396.54,286.13,396.41,286.2Z"/><path class="cls-19" d="M367.67,297.44l4.94-2.87a1.31,1.31,0,0,1,1.18,0l3.8,2.19c.1.06.17.13.17.19s-.05.12-.17.19L372.65,300a1.24,1.24,0,0,1-.58.13,1.32,1.32,0,0,1-.59-.13l-3.8-2.2c-.11-.06-.17-.13-.17-.19S367.57,297.5,367.67,297.44Z"/><path class="cls-19" d="M360.61,301.54l4.94-2.87a1.27,1.27,0,0,1,.58-.13,1.32,1.32,0,0,1,.59.13l3.8,2.2c.13.07.17.14.17.19s0,.11-.16.18l-4.94,2.87a1.2,1.2,0,0,1-.59.14h0a1.16,1.16,0,0,1-.58-.14l-3.81-2.19c-.1-.06-.17-.13-.17-.19S360.51,301.6,360.61,301.54Z"/><path class="cls-19" d="M353.54,305.65l4.93-2.87a1.32,1.32,0,0,1,.59-.13,1.35,1.35,0,0,1,.59.13l3.8,2.2c.13.07.17.15.17.19s0,.11-.17.18l-4.93,2.87a1.2,1.2,0,0,1-.59.14,1.16,1.16,0,0,1-.58-.14L353.54,306c-.12-.08-.17-.15-.17-.19S353.42,305.72,353.54,305.65Z"/><path class="cls-19" d="M346.48,309.76l4.93-2.87a1.17,1.17,0,0,1,.59-.14,1.16,1.16,0,0,1,.58.14l3.81,2.19a.29.29,0,0,1,.16.19c0,.06-.06.13-.16.19l-4.93,2.87a1.24,1.24,0,0,1-.6.14,1.16,1.16,0,0,1-.58-.14l-3.81-2.2c-.1-.06-.16-.13-.16-.18S346.37,309.82,346.48,309.76Z"/><path class="cls-19" d="M339.4,313.87l4.94-2.87a1.16,1.16,0,0,1,.58-.14,1.2,1.2,0,0,1,.59.14l3.8,2.2c.13.07.17.14.17.18s0,.12-.16.19l-4.94,2.87a1.16,1.16,0,0,1-.58.14,1.2,1.2,0,0,1-.59-.14l-3.8-2.2c-.13-.07-.17-.14-.17-.19S339.28,313.94,339.4,313.87Z"/><path class="cls-19" d="M331.8,318.4l4.94-2.87a1.17,1.17,0,0,1,.59-.14,1.27,1.27,0,0,1,.58.13l3.81,2.2c.1.06.17.13.17.19s-.07.13-.17.19L336.78,321a1.27,1.27,0,0,1-.58.13,1.32,1.32,0,0,1-.59-.13l-3.8-2.2c-.11-.06-.17-.13-.17-.19A.26.26,0,0,1,331.8,318.4Z"/><path class="cls-19" d="M324.74,322.5l4.94-2.87a1.27,1.27,0,0,1,.58-.14,1.32,1.32,0,0,1,.59.14l3.8,2.2c.11.06.17.13.17.19s-.06.12-.16.18l-4.94,2.87a1.31,1.31,0,0,1-1.18,0l-3.8-2.19c-.1-.06-.17-.13-.17-.19S324.64,322.56,324.74,322.5Z"/><path class="cls-19" d="M317.37,326.6l4.93-2.87a1.2,1.2,0,0,1,.59-.14,1.16,1.16,0,0,1,.58.14l3.81,2.2c.12.07.17.14.17.19s-.05.11-.17.18l-4.93,2.87a1.2,1.2,0,0,1-.59.14,1.16,1.16,0,0,1-.58-.14l-3.81-2.2c-.12-.07-.17-.14-.17-.18S317.24,326.67,317.37,326.6Z"/><path class="cls-19" d="M402.29,289.59l-5.33,3.1a1.2,1.2,0,0,1-.59.14,1.22,1.22,0,0,1-.59-.14L392,290.5c-.13-.08-.17-.15-.17-.19s0-.12.17-.19l5.33-3.1a1.16,1.16,0,0,1,.58-.14,1.2,1.2,0,0,1,.59.14l3.81,2.2a.31.31,0,0,1,.17.19S402.41,289.52,402.29,289.59Z"/><path class="cls-19" d="M384.62,294.4l5.33-3.1a1.31,1.31,0,0,1,1.18,0l3.8,2.19c.1.06.17.13.17.19s-.07.13-.17.19L389.6,297a1.2,1.2,0,0,1-.59.14,1.22,1.22,0,0,1-.59-.14l-3.8-2.2c-.12-.07-.17-.14-.17-.19S384.49,294.47,384.62,294.4Z"/><path class="cls-19" d="M397.72,293.66a1.32,1.32,0,0,1,.59.14l3.8,2.2c.11.06.17.13.17.19a.26.26,0,0,1-.16.18l-6.33,3.75a1.21,1.21,0,0,1-.6.14,1.27,1.27,0,0,1-.58-.13l-3.81-2.2a.29.29,0,0,1-.16-.19c0-.06.06-.13.16-.19l6.33-3.75A1.17,1.17,0,0,1,397.72,293.66Z"/><path class="cls-19" d="M370.1,302.79l4.93-2.87a1.32,1.32,0,0,1,.59-.13,1.2,1.2,0,0,1,.59.14l3.81,2.19a.29.29,0,0,1,.16.19c0,.06-.06.13-.16.19l-4.94,2.87a1.27,1.27,0,0,1-.58.13,1.32,1.32,0,0,1-.59-.13l-3.8-2.2c-.13-.07-.17-.15-.17-.19S370,302.85,370.1,302.79Z"/><path class="cls-19" d="M382.76,295.64a1.17,1.17,0,0,1,.59.14l9.64,5.56c.1.06.17.13.17.19s-.07.13-.17.19l-9.77,5.67a1.16,1.16,0,0,1-.58.14,1.2,1.2,0,0,1-.59-.14l-3.81-2.2c-.12-.07-.17-.14-.17-.19s.07-.12.17-.18l4.51-2.62L377.24,299c-.1-.06-.17-.13-.17-.19s.07-.13.16-.19l4.94-2.86A1.2,1.2,0,0,1,382.76,295.64Z"/><path class="cls-19" d="M363,306.9,368,304a1.17,1.17,0,0,1,.59-.14,1.2,1.2,0,0,1,.59.14l3.8,2.2c.1.06.17.13.17.19s-.07.13-.17.18L368,309.47a1.31,1.31,0,0,1-1.18,0l-3.8-2.19c-.11-.06-.17-.14-.17-.2S362.93,307,363,306.9Z"/><path class="cls-19" d="M356,311l4.94-2.87a1.16,1.16,0,0,1,.58-.14,1.17,1.17,0,0,1,.59.14l3.81,2.2c.1.06.16.13.16.19s-.06.12-.16.18L361,313.58a1.2,1.2,0,0,1-.59.14h0a1.17,1.17,0,0,1-.59-.14l-3.8-2.19c-.11-.06-.17-.14-.17-.19S355.86,311.07,356,311Z"/><path class="cls-19" d="M348.89,315.12l4.94-2.87a1.31,1.31,0,0,1,1.18,0l3.81,2.19c.1.06.16.13.16.19s-.06.13-.16.19l-4.94,2.87a1.16,1.16,0,0,1-.58.13,1.17,1.17,0,0,1-.59-.13l-3.81-2.2c-.12-.07-.17-.15-.17-.19S348.79,315.17,348.89,315.12Z"/><path class="cls-19" d="M341.82,319.23l4.94-2.88a1.29,1.29,0,0,1,.59-.13,1.2,1.2,0,0,1,.59.14l3.8,2.19c.11.06.17.14.17.19s-.06.13-.16.19l-4.94,2.87a1.2,1.2,0,0,1-.59.14,1.13,1.13,0,0,1-.58-.14l-3.81-2.2c-.1-.06-.17-.13-.17-.19S341.72,319.28,341.82,319.23Z"/><path class="cls-19" d="M334.76,323.33l4.93-2.87a1.17,1.17,0,0,1,.59-.14,1.32,1.32,0,0,1,.59.14l3.81,2.2c.12.07.16.15.16.19s-.06.13-.16.18l-4.94,2.87a1.16,1.16,0,0,1-.58.14,1.2,1.2,0,0,1-.59-.14l-3.8-2.19c-.13-.08-.17-.15-.17-.2S334.66,323.39,334.76,323.33Z"/><path class="cls-19" d="M327.67,327.45l4.94-2.87a1.16,1.16,0,0,1,.58-.14,1.21,1.21,0,0,1,.6.14l3.8,2.2c.1.06.17.13.17.19s-.07.12-.17.18L332.65,330a1.13,1.13,0,0,1-.58.14,1.2,1.2,0,0,1-.59-.14l-3.8-2.19c-.13-.08-.17-.15-.17-.2S327.57,327.51,327.67,327.45Z"/><path class="cls-19" d="M381.26,308.45c0,.05-.06.12-.16.18l-4.94,2.87a1.17,1.17,0,0,1-.59.14,1.2,1.2,0,0,1-.59-.14l-3.81-2.2c-.1-.06-.16-.13-.16-.19s.06-.13.17-.19l4.93-2.86a1.17,1.17,0,0,1,.59-.14,1.16,1.16,0,0,1,.58.14l3.81,2.19C381.19,308.31,381.26,308.39,381.26,308.45Z"/><path class="cls-19" d="M363.94,313.22c0-.06.06-.13.16-.19l4.94-2.86a1.16,1.16,0,0,1,.58-.14,1.2,1.2,0,0,1,.59.14l3.8,2.19c.13.08.18.15.18.2s-.07.12-.17.18l-4.93,2.87a1.17,1.17,0,0,1-.59.13,1.32,1.32,0,0,1-.59-.13l-3.8-2.2C364,313.35,363.94,313.28,363.94,313.22Z"/><path class="cls-19" d="M367,316.85,362,319.72a1.27,1.27,0,0,1-.58.13,1.24,1.24,0,0,1-.6-.14l-3.8-2.19c-.1-.06-.17-.14-.17-.19s.06-.13.16-.19l4.94-2.87a1.4,1.4,0,0,1,1.18,0l3.8,2.2c.11.06.17.13.17.19S367.06,316.79,367,316.85Z"/><path class="cls-19" d="M359.89,321,355,323.82a1.17,1.17,0,0,1-.59.14,1.2,1.2,0,0,1-.59-.14L350,321.63c-.1-.06-.16-.13-.16-.19s.06-.13.17-.19l4.93-2.87a1.29,1.29,0,0,1,.59-.13,1.27,1.27,0,0,1,.58.13l3.81,2.2c.1.06.17.13.17.19S360,320.9,359.89,321Z"/><path class="cls-19" d="M352.82,325.06l-4.94,2.87a1.16,1.16,0,0,1-.58.14,1.2,1.2,0,0,1-.59-.14l-3.81-2.2c-.12-.07-.17-.14-.17-.19s.07-.12.17-.18l4.93-2.87a1.2,1.2,0,0,1,.59-.14,1.22,1.22,0,0,1,.59.14l3.8,2.2c.13.07.17.14.17.19S352.92,325,352.82,325.06Z"/><path class="cls-19" d="M345.73,329.18l-4.94,2.87a1.13,1.13,0,0,1-.58.14,1.2,1.2,0,0,1-.59-.14l-3.81-2.2c-.1-.06-.16-.13-.16-.19s.06-.12.16-.18l4.94-2.87a1.17,1.17,0,0,1,.59-.14,1.16,1.16,0,0,1,.58.14l3.81,2.19c.1.06.17.14.17.19S345.83,329.12,345.73,329.18Z"/><path class="cls-19" d="M338.67,333.29l-4.94,2.87a1.27,1.27,0,0,1-.58.13h0a1.27,1.27,0,0,1-.6-.14l-3.8-2.19c-.12-.08-.17-.15-.17-.19s.07-.13.17-.19l4.93-2.87a1.29,1.29,0,0,1,.59-.13,1.27,1.27,0,0,1,.58.13l3.81,2.2c.13.07.17.15.17.19S338.77,333.23,338.67,333.29Z"/><path class="cls-19" d="M403.67,297a1.17,1.17,0,0,1,.59.14l3.81,2.19c.12.07.17.15.17.19s-.05.12-.17.19l-5.33,3.1a1.35,1.35,0,0,1-.59.14,1.17,1.17,0,0,1-.59-.14l-3.8-2.2c-.11-.06-.17-.13-.17-.18s0-.12.17-.19l5.33-3.1A1.16,1.16,0,0,1,403.67,297Z"/><path class="cls-19" d="M388.73,305.56c0-.06.06-.13.16-.18l6.51-3.79a1.2,1.2,0,0,1,.59-.14,1.17,1.17,0,0,1,.59.14l3.81,2.2c.1.06.16.13.16.19s-.06.12-.16.18L393.88,308a1.29,1.29,0,0,1-.59.13,1.24,1.24,0,0,1-.58-.13l-3.81-2.2C388.8,305.69,388.73,305.62,388.73,305.56Z"/><path class="cls-19" d="M384.61,313.33l-4.94,2.87a1.16,1.16,0,0,1-.58.14,1.17,1.17,0,0,1-.59-.14L374.7,314c-.11-.06-.17-.14-.17-.2s.06-.12.16-.18l4.93-2.87a1.2,1.2,0,0,1,.59-.14,1.17,1.17,0,0,1,.59.14l3.81,2.2c.1.06.16.13.16.19S384.71,313.27,384.61,313.33Z"/><path class="cls-19" d="M377.54,317.44l-4.94,2.87a1.17,1.17,0,0,1-.59.14,1.16,1.16,0,0,1-.58-.14l-3.81-2.19c-.1-.06-.17-.14-.17-.19s.07-.13.17-.19l4.93-2.87a1.17,1.17,0,0,1,.59-.14,1.2,1.2,0,0,1,.59.14l3.81,2.2c.1.06.16.13.16.19S377.64,317.38,377.54,317.44Z"/><path class="cls-19" d="M370.47,321.55l-4.93,2.87a1.31,1.31,0,0,1-1.18,0l-3.8-2.2c-.13-.07-.17-.15-.17-.19s.06-.13.16-.19l4.94-2.86a1.17,1.17,0,0,1,.59-.14,1.2,1.2,0,0,1,.59.14l3.8,2.19c.1.06.17.13.17.19S370.57,321.49,370.47,321.55Z"/><path class="cls-19" d="M363.4,325.66l-4.94,2.87a1.27,1.27,0,0,1-.58.13,1.29,1.29,0,0,1-.59-.13l-3.8-2.2c-.11-.06-.17-.13-.17-.19s.06-.13.16-.18l4.94-2.88A1.27,1.27,0,0,1,359,323a1.17,1.17,0,0,1,.59.14l3.81,2.19c.1.06.17.13.17.19S363.5,325.6,363.4,325.66Z"/><path class="cls-19" d="M356.34,329.76l-4.94,2.87a1.16,1.16,0,0,1-.58.14,1.17,1.17,0,0,1-.59-.14l-3.81-2.19c-.12-.08-.17-.15-.17-.2s.06-.12.16-.18l4.94-2.87a1.16,1.16,0,0,1,.58-.14,1.36,1.36,0,0,1,.6.14l3.8,2.2c.12.07.17.14.17.19S356.44,329.71,356.34,329.76Z"/><path class="cls-19" d="M349.25,333.88l-4.94,2.87a1.16,1.16,0,0,1-.58.14,1.17,1.17,0,0,1-.59-.14l-3.81-2.19c-.12-.08-.17-.15-.17-.2s.06-.12.16-.18l4.94-2.87a1.2,1.2,0,0,1,.59-.14,1.17,1.17,0,0,1,.59.14l3.81,2.2c.1.06.16.13.16.19S349.35,333.82,349.25,333.88Z"/><path class="cls-19" d="M342.18,338l-4.93,2.87a1.2,1.2,0,0,1-.59.14,1.17,1.17,0,0,1-.59-.14l-3.8-2.2c-.11-.06-.17-.13-.17-.19a.29.29,0,0,1,.16-.19l4.94-2.86a1.16,1.16,0,0,1,.58-.14,1.17,1.17,0,0,1,.59.14l3.81,2.2c.1.05.17.13.17.18S342.28,337.93,342.18,338Z"/><path class="cls-19" d="M406.28,307.57l-2.79,1.62a1.2,1.2,0,0,1-.59.14h0a1.2,1.2,0,0,1-.59-.14l-3.8-2.2c-.1-.06-.17-.13-.17-.19s.06-.13.17-.19l2.78-1.62a1.2,1.2,0,0,1,.59-.14,1.24,1.24,0,0,1,.6.14l3.8,2.2c.1.06.17.13.17.19S406.38,307.51,406.28,307.57Z"/><path class="cls-19" d="M401.12,310.56l-2.92,1.7a1.2,1.2,0,0,1-.59.14,1.17,1.17,0,0,1-.59-.14l-3.8-2.19c-.11-.06-.17-.14-.17-.19s.06-.13.16-.19l2.93-1.7a1.13,1.13,0,0,1,.58-.14,1.32,1.32,0,0,1,.59.14l3.81,2.2c.12.07.16.15.16.19A.26.26,0,0,1,401.12,310.56Z"/><path class="cls-19" d="M396,313.56l-8.09,4.7a1.21,1.21,0,0,1-.6.14,1.16,1.16,0,0,1-.58-.14l-3.81-2.19c-.1-.06-.17-.14-.17-.19s.07-.13.17-.19L391,311a1.16,1.16,0,0,1,.58-.14,1.21,1.21,0,0,1,.6.14l3.8,2.2c.1.05.17.13.17.18S396.07,313.5,396,313.56Z"/><path class="cls-19" d="M385.74,319.5l-4.94,2.87a1.16,1.16,0,0,1-.58.14,1.2,1.2,0,0,1-.59-.14l-3.8-2.2c-.13-.07-.18-.14-.18-.19s.07-.12.17-.18l4.93-2.87a1.16,1.16,0,0,1,.58-.14,1.21,1.21,0,0,1,.6.14l3.8,2.2c.13.07.17.14.17.19S385.84,319.44,385.74,319.5Z"/><path class="cls-19" d="M378.67,323.61l-4.94,2.87a1.13,1.13,0,0,1-.58.14,1.2,1.2,0,0,1-.59-.14l-3.8-2.2c-.11-.06-.17-.13-.17-.19s.06-.13.16-.18l4.94-2.87a1.16,1.16,0,0,1,.58-.14,1.24,1.24,0,0,1,.6.14l3.8,2.19c.1.06.17.13.17.19S378.77,323.55,378.67,323.61Z"/><path class="cls-19" d="M371.6,327.72l-4.93,2.87a1.21,1.21,0,0,1-.6.14,1.16,1.16,0,0,1-.58-.14l-3.81-2.2c-.1-.06-.16-.13-.16-.19s.06-.13.16-.19l4.94-2.87a1.24,1.24,0,0,1,.58-.13,1.2,1.2,0,0,1,.59.14l3.81,2.2a.26.26,0,0,1,.16.18C371.76,327.59,371.7,327.66,371.6,327.72Z"/><path class="cls-19" d="M364.53,331.83l-4.93,2.86a1.17,1.17,0,0,1-.59.14,1.16,1.16,0,0,1-.58-.14l-3.81-2.19c-.12-.08-.17-.15-.17-.2s.06-.12.16-.18l4.94-2.87a1.36,1.36,0,0,1,1.18,0l3.8,2.19c.1.06.17.13.17.19S364.64,331.77,364.53,331.83Z"/><path class="cls-19" d="M357.45,336l-4.94,2.86a1.17,1.17,0,0,1-.59.14,1.16,1.16,0,0,1-.58-.14l-3.81-2.19c-.1-.06-.17-.14-.17-.2s.06-.12.16-.18l4.94-2.87a1.17,1.17,0,0,1,.59-.14,1.2,1.2,0,0,1,.59.14l3.81,2.2c.1.06.16.13.16.19A.29.29,0,0,1,357.45,336Z"/><path class="cls-19" d="M350.38,340.05l-4.93,2.87a1.2,1.2,0,0,1-.59.13,1.16,1.16,0,0,1-.58-.13l-3.81-2.2c-.13-.07-.17-.15-.17-.19s.06-.13.16-.18l4.94-2.87a1.16,1.16,0,0,1,.58-.14,1.2,1.2,0,0,1,.59.14l3.81,2.2c.12.07.17.14.17.19S350.48,340,350.38,340.05Z"/><path class="cls-19" d="M343.31,344.16,338.37,347a1.16,1.16,0,0,1-.58.14,1.2,1.2,0,0,1-.59-.14l-3.8-2.2c-.13-.07-.18-.14-.18-.19s.07-.13.17-.18l4.93-2.87a1.2,1.2,0,0,1,.59-.14,1.24,1.24,0,0,1,.6.14l3.8,2.19a.33.33,0,0,1,.17.19C343.48,344,343.41,344.1,343.31,344.16Z"/><path class="cls-19" d="M312.18,356.78l4.94-2.87a1.17,1.17,0,0,1,.59-.14,1.2,1.2,0,0,1,.59.14l3.81,2.2a.26.26,0,0,1,.16.18c0,.06-.06.13-.16.19l-4.94,2.87a1.17,1.17,0,0,1-.59.14,1.16,1.16,0,0,1-.58-.14l-3.81-2.2c-.1-.06-.17-.13-.17-.19S312.08,356.84,312.18,356.78Z"/><path class="cls-19" d="M393.33,316.48c0-.05.06-.12.16-.18l4.94-2.87a1.16,1.16,0,0,1,.58-.14,1.2,1.2,0,0,1,.59.14l3.8,2.2c.13.07.17.14.17.19a.26.26,0,0,1-.16.18l-4.93,2.87a1.31,1.31,0,0,1-1.18,0l-3.81-2.2C393.39,316.61,393.33,316.54,393.33,316.48Z"/><path class="cls-19" d="M386.26,320.59c0-.06.06-.13.16-.18l4.94-2.87a1.2,1.2,0,0,1,.59-.14,1.24,1.24,0,0,1,.58.13l3.81,2.2c.1.06.17.13.17.19s-.06.13-.17.19L391.41,323a1.27,1.27,0,0,1-.58.13,1.33,1.33,0,0,1-.6-.13l-3.8-2.2C386.32,320.72,386.26,320.65,386.26,320.59Z"/><path class="cls-19" d="M350.9,341.14a.26.26,0,0,1,.16-.18l33.23-19.32a1.27,1.27,0,0,1,.58-.13,1.29,1.29,0,0,1,.59.13l3.81,2.2c.12.07.17.15.17.19s-.06.13-.16.19l-33.23,19.31a1.16,1.16,0,0,1-.58.14,1.33,1.33,0,0,1-.6-.14l-3.81-2.2C350.94,341.26,350.9,341.19,350.9,341.14Z"/><path class="cls-19" d="M343.83,345.25c0-.06.07-.13.17-.19l4.93-2.87a1.31,1.31,0,0,1,1.18,0l3.8,2.2c.11.06.17.13.17.19s-.06.13-.16.18L349,347.63a1.17,1.17,0,0,1-.59.14,1.2,1.2,0,0,1-.59-.14l-3.8-2.19C343.9,345.38,343.83,345.31,343.83,345.25Z"/><path class="cls-19" d="M336.76,349.36c0-.06.06-.13.16-.19l4.94-2.87a1.17,1.17,0,0,1,.59-.14,1.16,1.16,0,0,1,.58.14l3.81,2.2c.12.07.17.15.17.19s-.06.13-.16.18l-4.94,2.87a1.16,1.16,0,0,1-.58.14,1.24,1.24,0,0,1-.6-.14l-3.8-2.2C336.81,349.47,336.76,349.4,336.76,349.36Z"/><path class="cls-19" d="M329.7,353.46s.06-.12.16-.18l4.93-2.87a1.2,1.2,0,0,1,.59-.14,1.17,1.17,0,0,1,.59.14l3.81,2.19a.29.29,0,0,1,.16.19c0,.06-.06.13-.16.19l-4.94,2.87a1.16,1.16,0,0,1-.58.14,1.17,1.17,0,0,1-.59-.14l-3.81-2.2C329.76,353.59,329.7,353.52,329.7,353.46Z"/><path class="cls-19" d="M322.62,357.57c0-.05.07-.12.17-.18l4.94-2.87a1.13,1.13,0,0,1,.58-.14,1.2,1.2,0,0,1,.59.14l3.8,2.19c.11.06.17.14.17.2s-.06.12-.16.18L327.77,360a1.17,1.17,0,0,1-.59.14,1.2,1.2,0,0,1-.59-.14l-3.8-2.2C322.69,357.7,322.62,357.63,322.62,357.57Z"/><path class="cls-19" d="M316.83,360.85l3.83-2.23a1.29,1.29,0,0,1,.59-.13,1.16,1.16,0,0,1,.58.13l3.81,2.2c.1.06.17.13.17.19s-.07.13-.17.19l-3.83,2.22a1.13,1.13,0,0,1-.58.14,1.2,1.2,0,0,1-.59-.14l-3.81-2.2c-.1-.06-.16-.13-.16-.19S316.73,360.91,316.83,360.85Z"/><path class="cls-19" d="M320.13,323.69c0,.06-.07.13-.17.19L315,326.74a1.16,1.16,0,0,1-.58.14,1.24,1.24,0,0,1-.6-.14l-3.8-2.2c-.13-.07-.17-.14-.17-.18s.06-.13.16-.19L315,321.3a1.27,1.27,0,0,1,.58-.13,1.32,1.32,0,0,1,.59.13l3.8,2.2C320.08,323.57,320.13,323.65,320.13,323.69Z"/><path class="cls-19" d="M313.05,327.8c0,.06-.06.13-.16.19L308,330.86a1.24,1.24,0,0,1-.58.13,1.2,1.2,0,0,1-.59-.14L303,328.66c-.12-.08-.16-.15-.16-.19s.06-.13.16-.19l4.94-2.87a1.24,1.24,0,0,1,.58-.13,1.32,1.32,0,0,1,.59.13l3.8,2.2C313,327.68,313.05,327.76,313.05,327.8Z"/><path class="cls-19" d="M306,331.91s-.06.12-.16.18L300.89,335a1.17,1.17,0,0,1-.59.14,1.2,1.2,0,0,1-.59-.14l-3.81-2.2c-.1-.06-.16-.13-.16-.18s.06-.13.17-.19l4.93-2.87a1.17,1.17,0,0,1,.59-.14,1.16,1.16,0,0,1,.58.14l3.81,2.19C305.92,331.78,306,331.85,306,331.91Z"/><path class="cls-19" d="M298.92,336c0,.05-.07.12-.17.18l-4.93,2.87a1.16,1.16,0,0,1-.58.14,1.24,1.24,0,0,1-.6-.14l-3.8-2.2c-.13-.07-.17-.14-.17-.19s.06-.12.16-.18l4.94-2.87a1.16,1.16,0,0,1,.58-.14,1.17,1.17,0,0,1,.59.14l3.81,2.2C298.87,335.9,298.92,336,298.92,336Z"/><path class="cls-19" d="M281.76,340.6l4.94-2.86a1.2,1.2,0,0,1,.59-.14,1.29,1.29,0,0,1,.59.13l3.8,2.2c.11.06.17.13.17.19s-.06.13-.16.19l-4.94,2.87a1.27,1.27,0,0,1-.58.13,1.24,1.24,0,0,1-.6-.14l-3.8-2.19c-.1-.06-.17-.13-.17-.19S281.66,340.66,281.76,340.6Z"/><path class="cls-19" d="M310,330.73l4.94-2.87a1.2,1.2,0,0,1,.59-.14,1.16,1.16,0,0,1,.58.14l3.81,2.19c.1.06.17.13.17.19s-.05.12-.17.19L315,333.3a1.27,1.27,0,0,1-.58.13,1.32,1.32,0,0,1-.59-.13l-3.8-2.2c-.11-.06-.17-.13-.17-.19A.26.26,0,0,1,310,330.73Z"/><path class="cls-19" d="M307.36,337.69a1.16,1.16,0,0,1-.58-.14L303,335.36c-.1-.06-.17-.14-.17-.19s.05-.12.17-.19l4.94-2.87a1.16,1.16,0,0,1,.58-.14,1.2,1.2,0,0,1,.59.14l3.8,2.2c.13.07.17.14.17.19s0,.11-.16.18L308,337.55A1.2,1.2,0,0,1,307.36,337.69Z"/><path class="cls-19" d="M300,342.06a1.27,1.27,0,0,1-.58-.13l-3.81-2.2c-.12-.07-.17-.15-.17-.19s0-.11.17-.18l4.93-2.87a1.2,1.2,0,0,1,.59-.14,1.16,1.16,0,0,1,.58.14l3.81,2.19c.12.08.17.15.17.19s-.07.13-.17.19l-4.93,2.87A1.32,1.32,0,0,1,300,342.06Z"/><path class="cls-19" d="M287.78,343.81l4.94-2.87a1.27,1.27,0,0,1,.58-.13,1.29,1.29,0,0,1,.59.13l3.81,2.2c.1.06.16.13.16.19s-.06.13-.16.18l-4.94,2.87a1.17,1.17,0,0,1-.59.14,1.27,1.27,0,0,1-.58-.13l-3.81-2.2c-.1-.06-.16-.13-.16-.19S287.66,343.88,287.78,343.81Z"/><path class="cls-19" d="M325,334.27a1.13,1.13,0,0,1-.58-.14l-3.81-2.2c-.1-.06-.17-.13-.17-.19s.06-.13.17-.19l4.93-2.86a1.16,1.16,0,0,1,.58-.14,1.21,1.21,0,0,1,.6.14l3.8,2.2c.11.05.17.13.17.18s-.06.13-.16.19l-4.94,2.87A1.17,1.17,0,0,1,325,334.27Z"/><path class="cls-19" d="M317.93,338.37a1.16,1.16,0,0,1-.58-.13l-3.81-2.2c-.12-.07-.17-.15-.17-.19s.06-.13.16-.18l4.94-2.87a1.16,1.16,0,0,1,.58-.14,1.27,1.27,0,0,1,.6.14l3.8,2.2c.12.07.17.14.17.18s-.06.13-.17.19l-4.93,2.87A1.17,1.17,0,0,1,317.93,338.37Z"/><path class="cls-19" d="M306.3,340c0-.06.07-.13.16-.19l4.94-2.87a1.4,1.4,0,0,1,1.18,0l3.81,2.2c.1.06.16.13.16.19s-.06.13-.16.19l-4.94,2.87a1.27,1.27,0,0,1-.58.13,1.29,1.29,0,0,1-.59-.13l-3.81-2.2C306.37,340.09,306.3,340,306.3,340Z"/><path class="cls-19" d="M293.44,347.34l10.79-6.27a1.16,1.16,0,0,1,.58-.14,1.24,1.24,0,0,1,.6.14l3.8,2.2c.13.07.17.14.17.19a.26.26,0,0,1-.16.18l-10.8,6.28a1.27,1.27,0,0,1-.58.13,1.29,1.29,0,0,1-.59-.13l-3.8-2.2c-.11-.06-.17-.13-.17-.19S293.34,347.4,293.44,347.34Z"/><path class="cls-19" d="M321.51,337.88c0-.06.06-.13.16-.19l4.94-2.87a1.32,1.32,0,0,1,.59-.13,1.2,1.2,0,0,1,.59.13l3.8,2.2c.1.06.17.13.17.19s-.06.13-.17.19l-4.93,2.87a1.27,1.27,0,0,1-.58.13,1.24,1.24,0,0,1-.6-.14l-3.8-2.19C321.55,338,321.51,337.92,321.51,337.88Z"/><path class="cls-19" d="M314.44,342c0-.06.07-.13.17-.19l4.94-2.87a1.13,1.13,0,0,1,.58-.14,1.2,1.2,0,0,1,.59.14l3.8,2.19c.11.07.17.14.17.2s-.06.12-.16.18l-4.93,2.87a1.22,1.22,0,0,1-.59.14,1.24,1.24,0,0,1-.6-.14l-3.8-2.2C314.51,342.11,314.44,342,314.44,342Z"/><path class="cls-19" d="M317.46,345.61l-4.94,2.87a1.16,1.16,0,0,1-.58.14,1.2,1.2,0,0,1-.59-.14l-3.81-2.2c-.12-.07-.17-.14-.17-.19s.07-.12.17-.18l4.93-2.87a1.2,1.2,0,0,1,.59-.14,1.16,1.16,0,0,1,.58.14l3.81,2.2c.13.07.17.14.17.19S317.56,345.55,317.46,345.61Z"/><path class="cls-19" d="M299.27,350.71l6.14-3.56A1.17,1.17,0,0,1,306,347a1.27,1.27,0,0,1,.58.13l3.81,2.2c.1.06.17.13.17.19s-.07.13-.17.19l-6.13,3.56a1.17,1.17,0,0,1-.59.14,1.2,1.2,0,0,1-.59-.14l-3.81-2.2a.26.26,0,0,1-.16-.18C299.11,350.84,299.17,350.77,299.27,350.71Z"/><path class="cls-19" d="M335.11,342.1,330.17,345a1.24,1.24,0,0,1-.58.13A1.32,1.32,0,0,1,329,345l-3.8-2.2c-.13-.07-.17-.15-.17-.19s.06-.13.16-.19l4.94-2.86a1.13,1.13,0,0,1,.58-.14,1.2,1.2,0,0,1,.59.14l3.81,2.2c.12.07.16.14.16.18S335.21,342,335.11,342.1Z"/><path class="cls-19" d="M318,346.69c0-.06.06-.13.16-.19l4.94-2.87a1.29,1.29,0,0,1,.59-.13,1.32,1.32,0,0,1,.59.13l3.8,2.2c.11.06.17.13.17.19s-.07.13-.17.19l-4.93,2.87a1.29,1.29,0,0,1-.59.13,1.13,1.13,0,0,1-.58-.14l-3.81-2.19C318,346.82,318,346.74,318,346.69Z"/><path class="cls-19" d="M305.09,354.07l10.8-6.27a1.16,1.16,0,0,1,.58-.14,1.2,1.2,0,0,1,.59.14l3.81,2.2c.12.07.17.14.17.19s-.07.12-.17.18l-10.79,6.28a1.29,1.29,0,0,1-.59.13,1.27,1.27,0,0,1-.58-.13l-3.81-2.2c-.1-.06-.17-.14-.17-.19S305,354.13,305.09,354.07Z"/><path class="cls-19" d="M336.25,348.26l-4.94,2.87a1.2,1.2,0,0,1-.59.14,1.32,1.32,0,0,1-.59-.13l-3.8-2.2c-.11-.06-.17-.13-.17-.19s.06-.13.16-.19l4.94-2.87a1.27,1.27,0,0,1,.58-.13,1.33,1.33,0,0,1,.6.13l3.8,2.2c.1.06.17.13.17.19S336.35,348.21,336.25,348.26Z"/><path class="cls-19" d="M329.17,352.38l-4.93,2.86a1.2,1.2,0,0,1-.59.14,1.16,1.16,0,0,1-.58-.14l-3.81-2.19c-.13-.08-.17-.15-.17-.2s.06-.12.16-.18l4.94-2.87a1.27,1.27,0,0,1,.58-.13,1.2,1.2,0,0,1,.59.14l3.81,2.19c.12.07.17.15.17.19S329.27,352.32,329.17,352.38Z"/><path class="cls-19" d="M391.68,309.23l-4.94,2.87a1.27,1.27,0,0,1-.58.13,1.29,1.29,0,0,1-.59-.13l-3.81-2.2c-.12-.07-.17-.15-.17-.19s.06-.13.16-.19l4.94-2.87a1.27,1.27,0,0,1,.58-.13,1.24,1.24,0,0,1,.6.14l3.8,2.19c.11.06.17.14.17.19S391.78,309.17,391.68,309.23Z"/><g class="cls-20"><path class="cls-6" d="M410.6,340.07c1.46.85,1.47,2.22,0,3.06l-19.41,11.28a5.85,5.85,0,0,1-5.28,0l-15-8.68c-1.47-.84-1.47-2.21,0-3.06l19.41-11.28a5.85,5.85,0,0,1,5.28,0Z"/></g><path class="cls-13" d="M304.36,244.31l.15,53.43a2.13,2.13,0,0,1-1.08,1.88l-25.09,14.3a2.16,2.16,0,0,1-3.23-1.86L275,258.62a2.17,2.17,0,0,1,1.09-1.88l25.09-14.3A2.15,2.15,0,0,1,304.36,244.31Z"/><polyline class="cls-21" points="375.71 258.81 308.97 296.82 308.8 238.43"/><path class="cls-22" d="M311.53,294.68c.88-4.4-1.84-41,15.9-30.15,7.53,4.6,4.11-26.57,13.06-29,5.73-1.58,9.68,14.68,13.06,13.8s6.88-23.57,13.49-28.47c9.07-6.71,7.68,38.11,7.68,38.11Z"/><line class="cls-21" x1="324.87" y1="287.63" x2="324.7" y2="229.24"/><line class="cls-21" x1="339.24" y1="279.05" x2="339.07" y2="220.66"/><line class="cls-21" x1="353.6" y1="270.46" x2="353.44" y2="212.07"/><line class="cls-21" x1="367.97" y1="261.87" x2="367.8" y2="203.48"/><path class="cls-1" d="M427.64,381.56c0-.71-1.65-18.24-1.65-18.24l9.1-1.83,1.77,18.23Z"/><path class="cls-23" d="M453.82,380.29l-25.39,5.21-1.56-7.8,17.53-3.6a8,8,0,0,1,9.42,6.19Z"/><path class="cls-9" d="M393.73,282.87l35.72,27.41,1.13.87a8.39,8.39,0,0,1,3.24,5.91l4.36,50.24-12.68,1.88L417,317.57l4.37,6.78-42.28-17.69Z"/><path class="cls-24" d="M370.89,299.28l30.8-10.95a4.87,4.87,0,0,0,3.21-6.1L391.83,240l-24.6,7.62a16.73,16.73,0,0,0-11,20.93Z"/><rect class="cls-10" x="390.58" y="228.87" width="68.49" height="68.49" rx="4.15" ry="4.15" transform="translate(-51.34 111.56) rotate(-14.12)"/><path class="cls-1" d="M370.66,396.15c.17-.7,2.66-18,2.66-18l9.26.67-2.54,18Z"/><path class="cls-25" d="M396.52,401.08,370.6,401l.06-8,17.89.05a8,8,0,0,1,8,8Z"/><path class="cls-10" d="M392.13,289.8l4.54,36.1.32,1.85a6.72,6.72,0,0,1-.07,2.65l-11.75,55.75-13.86-1L379,328.58l.25,4.51L370.61,298Z"/><path class="cls-1" d="M386.79,222l-2.93-1-1.35,3.87,2.8.46,1.77-1.27A1.16,1.16,0,0,0,386.79,222Z"/><path class="cls-1" d="M385.53,228a12.35,12.35,0,1,1-10.16-14.2A12.35,12.35,0,0,1,385.53,228Z"/><g class="cls-26"><polygon class="cls-27" points="376.4 210.14 364.03 240.47 356.95 220.03 376.4 210.14"/></g><path class="cls-1" d="M371.34,226.78a3.46,3.46,0,1,1-2.85-4A3.46,3.46,0,0,1,371.34,226.78Z"/><path class="cls-27" d="M362.89,235a10.81,10.81,0,1,1-5.64-14.21A10.8,10.8,0,0,1,362.89,235Z"/><path class="cls-1" d="M378.69,236.35l1.22,17.1-11.2-6.36.42-10.45Z"/><rect class="cls-6" x="416.2" y="251.84" width="3.87" height="17.04" transform="translate(-53.24 117.43) rotate(-15.04)"/><path class="cls-6" d="M431.39,249.24c-1.33-.58-3.08-.58-5.38,0a31.66,31.66,0,0,0-4.93,1.69l4.36,16.24,3.69-1-1.58-5.88a10.27,10.27,0,0,0,1.29-.28,7.93,7.93,0,0,0,4.88-3.16,5.46,5.46,0,0,0,.46-4.32A5,5,0,0,0,431.39,249.24Zm-3.36,8a5.31,5.31,0,0,1-1.26.24l-1.3-4.86A6.37,6.37,0,0,1,427,252c1.85-.5,3.14.13,3.54,1.63C431,255.35,430,256.68,428,257.21Z"/><path class="cls-6" d="M419.05,239.08a20.75,20.75,0,0,0-14.66,25.43c3,11.08,27.76,23.35,27.76,23.35s15.32-23.05,12.34-34.12A20.77,20.77,0,0,0,419.05,239.08Zm8.72,32.23a13.79,13.79,0,1,1,9.73-16.91A13.79,13.79,0,0,1,427.77,271.31Z"/><polyline class="cls-19" points="395.09 313.35 392.95 296.28 396.38 294.31 397.77 309.67"/><path class="cls-1" d="M430.76,271.74a6.09,6.09,0,1,1-4.53-7.33A6.1,6.1,0,0,1,430.76,271.74Z"/><polygon class="cls-1" points="421.22 267.05 409.01 273.73 412.86 279.36 427.18 272.74 421.22 267.05"/><path class="cls-28" d="M386.07,299.32a6.88,6.88,0,0,1-5.87-2.93L358.42,265.3a6.89,6.89,0,0,1,1.69-9.59h0a6.88,6.88,0,0,1,9.58,1.69l18.17,25.94L414.52,268l6.86,11.92L389.27,298.4A6.93,6.93,0,0,1,386.07,299.32Z"/><path class="cls-13" d="M700.58,210.44c4.8,2.77-.35,6.86-5.12,9.63l-63.69,37c-4.76,2.77-12.51,2.77-17.31,0l-60-35.49c-4.8-2.77-4.83-7.26-.06-10l63.69-37c4.77-2.77,12.52-2.77,17.32,0Z"/><path class="cls-29" d="M701.84,193.31l-24.17.35-39.48-23.35c-4.8-2.77-12.55-2.77-17.32,0l-42.61,24.76-24.64.36v16.74h0c-.07,1.87,1.11,3.75,3.59,5.18l60,35.5c4.8,2.77,12.55,2.77,17.31,0l63.69-37c2.44-1.42,3.61-3.28,3.54-5.13h0Z"/><path class="cls-12" d="M698.23,188.52c4.8,2.77,4.82,7.25.06,10l-63.7,37c-4.76,2.77-12.51,2.77-17.31,0l-60-35.5c-4.8-2.77-4.83-7.26-.06-10l63.69-37c4.77-2.77,12.52-2.77,17.32,0Z"/><path class="cls-15" d="M587.37,192.55,626,170.1a6.14,6.14,0,0,1,6.16,0l36.29,21a2.72,2.72,0,0,1,0,4.7L630,217.94a8.13,8.13,0,0,1-8.15,0l-34.52-20.22A3,3,0,0,1,587.37,192.55Z"/><path class="cls-30" d="M701.84,164l-24.17.35L638.19,141c-4.8-2.77-12.55-2.77-17.32,0l-42.61,24.77-24.64.35v16.74h0c-.07,1.87,1.11,3.76,3.59,5.19l60,35.5c4.8,2.77,12.55,2.77,17.31,0l63.69-37c2.44-1.41,3.61-3.27,3.54-5.12h0Z"/><path class="cls-12" d="M698.23,159.18c4.8,2.77,4.82,7.26.06,10l-63.7,37c-4.76,2.77-12.51,2.77-17.31,0l-60-35.5c-4.8-2.77-4.83-7.26-.06-10l63.69-37c4.77-2.77,12.52-2.77,17.32,0Z"/><path class="cls-6" d="M587.37,163.21,626,140.76a6.14,6.14,0,0,1,6.16,0l36.29,21a2.72,2.72,0,0,1,0,4.7L630,188.6a8.08,8.08,0,0,1-8.15,0l-34.52-20.21A3,3,0,0,1,587.37,163.21Z"/><path class="cls-31" d="M691.88,39.68H563.81l21.73,124.51c.4,1.57.45,3.26,1.8,4.05l34.53,20.22a8.11,8.11,0,0,0,8.14,0l38.42-22.14a3.14,3.14,0,0,0,1.39-1.76C675.58,139.27,691.88,39.68,691.88,39.68Z"/><polygon class="cls-1" points="742.3 211.02 752.02 210.66 747.83 193.55 737.94 193.99 742.3 211.02"/><path class="cls-25" d="M726.48,219l25.72-.3L752,207.45l-15.5.16c-5.61.06-10.11,5.16-10.06,11.4Z"/><polygon class="cls-32" points="696.83 159.86 706.55 159.5 701.13 144.75 691.24 145.19 696.83 159.86"/><path class="cls-23" d="M681.74,170.21l25.71-.3-.15-11.27-15.51.17c-5.61.06-10.11,5.16-10,11.4Z"/><path class="cls-9" d="M748.28,102.28l-64.85,20.23,5.51-13.08,18.62,43-16.61,1-20.32-36.27a9.53,9.53,0,0,1,4.5-12.6l1-.48,61.22-29.46Z"/><path class="cls-33" d="M626,133.17a6.33,6.33,0,0,0-9.36,0,7.38,7.38,0,0,0-.44,10,6.32,6.32,0,0,0,9.36,0A7.41,7.41,0,0,0,626,133.17Z"/><path class="cls-24" d="M630.27,141.15,622.06,129l34.8-23.49,23-38.36,12.58,7.55-23.85,39.75a7.32,7.32,0,0,1-2.19,2.31Z"/><polygon class="cls-1" points="671.18 67.13 679.14 67.25 681.73 77.72 666.72 75.28 671.18 67.13"/><path class="cls-1" d="M644.19,70.8l2.27-2.66,3.52,3-2.46,2.05L645.07,73A1.31,1.31,0,0,1,644.19,70.8Z"/><path class="cls-1" d="M648.86,76a13.95,13.95,0,1,0,1.81-19.65A14,14,0,0,0,648.86,76Z"/><g class="cls-34"><polygon class="cls-27" points="647.56 53.31 676.91 75.82 672.15 51.86 647.56 53.31"/></g><path class="cls-1" d="M662,66.64a3.91,3.91,0,1,0,.5-5.5A3.9,3.9,0,0,0,662,66.64Z"/><path class="cls-28" d="M725.68,64.76,726,94l-41.68,6.49-7.95-33.28,3.4-1.49A34.38,34.38,0,0,1,700,63.41l6.53.57Z"/><path class="cls-10" d="M726,94l29.18,2V93.14a28.34,28.34,0,0,0-29.48-28.38h0Z"/><path class="cls-10" d="M755.15,96l-20.32,42.85.22-5.55,15,68.3-15.77.19-18.23-63.69a8.12,8.12,0,0,1-.14-3.94l.36-1.61,9.84-44.81Z"/><path class="cls-1" d="M667.42,163.26a6.33,6.33,0,0,0-9.36,0,7.4,7.4,0,0,0-.44,10,6.33,6.33,0,0,0,9.36,0A7.42,7.42,0,0,0,667.42,163.26Z"/><path class="cls-28" d="M671.75,167l-12.1-8.3,26.66-38.88-7-40.71,14.47-2.49,7.51,43.64a7.28,7.28,0,0,1-1.18,5.4Z"/><polygon class="cls-19" points="716.48 95.48 713.96 112.99 721.07 110.77 724.71 94.2 716.48 95.48"/><path class="cls-10" d="M487,495.2,378.71,558.12a21,21,0,0,1-20.8.09l-29.55-16.75-2,1.43,30.45,17.29a23.29,23.29,0,0,0,23-.12l109.85-63.85A11.86,11.86,0,0,1,487,495.2Z"/><polygon class="cls-12" points="678.81 223.53 675.2 225.64 675.2 216.87 678.81 214.76 678.81 223.53"/><polygon class="cls-12" points="683.87 220.59 680.26 222.69 680.26 213.92 683.87 211.82 683.87 220.59"/><polygon class="cls-12" points="688.93 217.64 685.32 219.75 685.32 210.98 688.93 208.87 688.93 217.64"/><polygon class="cls-12" points="693.99 214.7 690.38 216.8 690.38 208.03 693.99 205.93 693.99 214.7"/><path class="cls-12" d="M673.22,223.65c0,1.1-.59,2-1.31,2s-1.3-.89-1.3-2,.58-2,1.3-2S673.22,222.55,673.22,223.65Z"/><path class="cls-12" d="M668.8,226.4c0,1.1-.58,2-1.3,2s-1.3-.89-1.3-2,.58-2,1.3-2S668.8,225.31,668.8,226.4Z"/><polygon class="cls-12" points="678.81 194.2 675.2 196.3 675.2 187.53 678.81 185.43 678.81 194.2"/><polygon class="cls-12" points="683.87 191.25 680.26 193.36 680.26 184.59 683.87 182.48 683.87 191.25"/><polygon class="cls-12" points="688.93 188.31 685.32 190.41 685.32 181.64 688.93 179.54 688.93 188.31"/><polygon class="cls-12" points="693.99 185.36 690.38 187.47 690.38 178.7 693.99 176.59 693.99 185.36"/><path class="cls-12" d="M673.22,194.32c0,1.09-.59,2-1.31,2s-1.3-.89-1.3-2,.58-2,1.3-2S673.22,193.22,673.22,194.32Z"/><path class="cls-12" d="M668.8,197.07c0,1.1-.58,2-1.3,2s-1.3-.88-1.3-2,.58-2,1.3-2S668.8,196,668.8,197.07Z"/><path class="cls-13" d="M688.68,452.12,671,462.53a1.79,1.79,0,0,1-1.78,0L618.3,433.32a.62.62,0,0,1,0-1.08l17.75-10,52.69,27.94A1.17,1.17,0,0,1,688.68,452.12Z"/><path class="cls-9" d="M644.45,377.46V415.7l.07,1.32-24.94,11.81v2.72l51.49,29.81,15.1-8.79a19.61,19.61,0,0,0,9.74-16.9l0-28.4Z"/><path class="cls-13" d="M642.21,377.45V404.8a18.91,18.91,0,0,1-9.41,16.34l-13.22,7.69,51.49,29.81L684.29,451a18.89,18.89,0,0,0,9.41-16.34V407.27Z"/><path class="cls-13" d="M747.63,327a5.9,5.9,0,0,1,.79.55c.08.06.16.14.24.21l.37.32.16.17.14.15.16.17c.12.13.23.27.34.41l.11.15.06.08.11.15.24.36.21.35,0,0,0,0,.16.3.18.35.15.33v0h0l.15.38c0,.13.1.26.14.39l.06.2,0,.09c0,.05,0,.09,0,.14l.12.48c0,.1,0,.19.05.29a.77.77,0,0,1,0,.15l0,.14a7.67,7.67,0,0,1,0,.82l-.36,126a2.92,2.92,0,0,1-1.22,2.69l-2,1.16-3.14-126a6.43,6.43,0,0,0-.08-1l0-.15a7.92,7.92,0,0,0-.21-.91s0-.06,0-.09c-.11-.33-.23-.66-.37-1v0a10,10,0,0,0-.49-1v0a10.71,10.71,0,0,0-.59-.9l-.06-.07a7.27,7.27,0,0,0-.61-.74l-.13-.15c-.17-.17-.35-.33-.53-.49l-.24-.21a6.61,6.61,0,0,0-.79-.55L581.26,237.22l-.84-3.05,2-1.17h0l.21-.11.22-.07.15,0h.08l.26,0H584l.36.08a.76.76,0,0,1,.16.06l.15.05.19.06a6.27,6.27,0,0,1,.58.29Z"/><path class="cls-9" d="M745.64,328.11a9.17,9.17,0,0,1,4.17,7.22l-.36,126c0,2.66-1.88,3.73-4.19,2.39L583,370.09a9.2,9.2,0,0,1-4.17-7.22l.36-126c0-2.66,1.88-3.72,4.19-2.39Z"/><path class="cls-6" d="M584,350.68a10.67,10.67,0,0,0,4.87,8.41l91.48,52.82,59.27,34.22c2.69,1.56,4.88.31,4.89-2.78l.27-99.62a10.68,10.68,0,0,0-4.85-8.43l-74.3-42.89-76.45-44.15c-2.69-1.54-4.9-.31-4.9,2.8Z"/><polygon class="cls-22" points="644.08 325.82 643.93 379.57 655.61 386.31 655.76 332.56 644.08 325.82"/><polygon class="cls-22" points="719.95 369.25 719.79 423 731.47 429.74 731.63 375.99 719.95 369.25"/><polygon class="cls-22" points="659.41 363.37 659.34 388.46 671.02 395.2 671.09 370.11 659.41 363.37"/><polygon class="cls-22" points="705.34 389.59 705.26 414.68 716.94 421.42 717.01 396.33 705.34 389.59"/><polygon class="cls-22" points="674.87 351.79 674.74 397.36 686.42 404.1 686.54 358.53 674.87 351.79"/><polygon class="cls-22" points="690.23 376.88 690.15 406.25 701.83 412.99 701.91 383.62 690.23 376.88"/><path class="cls-13" d="M625.2,371.22l-28.34-16.49a4.06,4.06,0,0,1-2-3.52V268.34a4.07,4.07,0,0,1,6.12-3.52l28.35,16.49a4.08,4.08,0,0,1,2,3.52V367.7A4.07,4.07,0,0,1,625.2,371.22Z"/><path class="cls-1" d="M612.14,350.51a6,6,0,0,1,5.76,6,5.68,5.68,0,0,1-5.71,5.8,5.94,5.94,0,0,1-5.75-6A5.67,5.67,0,0,1,612.14,350.51Z"/><path class="cls-1" d="M720.92,393a4.88,4.88,0,0,0-7.2,0,5.71,5.71,0,0,0-.34,7.68,4.88,4.88,0,0,0,7.2,0A5.71,5.71,0,0,0,720.92,393Z"/><path class="cls-28" d="M695.44,415.81l-18.57-16a4.25,4.25,0,0,0-6.35,2,6.1,6.1,0,0,0,2.14,7.43l18.56,16a8.46,8.46,0,0,0,11.33-1.63l15.56-19.43-7.48-7.26Z"/><polygon class="cls-1" points="652.65 541.65 660.13 541.38 660.02 528.22 652.41 528.56 652.65 541.65"/><path class="cls-25" d="M640.49,547.8l19.78-.23-.12-8.66-11.93.12c-4.31.05-7.77,4-7.73,8.77Z"/><polygon class="cls-1" points="685.91 541.65 678.44 541.38 676.87 528.22 684.48 528.56 685.91 541.65"/><path class="cls-25" d="M698.07,547.8,679,547.57l-.86-8.66,12.2.12c4.31.05,7.77,4,7.73,8.77Z"/><polygon class="cls-9" points="652.16 439.46 665.15 438.98 666.5 438.93 679.49 438.44 679.65 457.45 653.15 458.43 652.16 439.46"/><path class="cls-10" d="M675.86,534.5l11.8-.08-6.21-48.92-2-47.06L667,440.5l1.7,45.44a7.32,7.32,0,0,0,.13,1.55Z"/><path class="cls-10" d="M650.05,533.94l11.24.1-1.66-46.6,6.28-46.57-13.75-1.41-5.3,47.17a6.55,6.55,0,0,0,0,1.4Z"/><rect class="cls-1" x="662.11" y="391.4" width="7.65" height="10.27"/><path class="cls-1" d="M658.32,385.23a2.54,2.54,0,1,1-2.54-2.54A2.54,2.54,0,0,1,658.32,385.23Z"/><path class="cls-1" d="M678.75,385.23a2.55,2.55,0,1,1-2.55-2.54A2.55,2.55,0,0,1,678.75,385.23Z"/><path class="cls-27" d="M676.43,383A10.45,10.45,0,1,1,666,372.59,10.44,10.44,0,0,1,676.43,383Z"/><path class="cls-28" d="M679.51,440.74h-27.6l-1.06-32.45c0-5.43,3.38-9.84,8.49-9.84h12.75c5.1,0,8.48,4.41,8.48,9.84Z"/><path class="cls-28" d="M652.43,410.35l-20.71-21.48c-.1-.1-.2-.21-.29-.32L611.11,364l8.67-7.18L640,381.21l20.57,21.32Z"/><line class="cls-35" x1="431.8" y1="475.84" x2="328.8" y2="538.84"/><ellipse class="cls-5" cx="516.74" cy="201.78" rx="30.06" ry="5.1"/><path class="cls-12" d="M492.23,80.67s-8.69,38.35,5.06,64.4L511,171.13S514.66,106,492.23,80.67Z"/><path class="cls-6" d="M492.81,180.8c.84,4.7,1.91,9.45,4.24,13.62s6.09,7.75,10.73,8.87a24.51,24.51,0,0,0,6.46.45c2.38-.07,4.86-.22,6.91-1.42,2.66-1.57,4.06-4.61,5.15-7.51a87.22,87.22,0,0,0,4.15-15.14c.54-3,.88-6.21-.51-8.9-1.88-3.64-6.29-5.1-10.34-5.76-6.72-1.1-16-1.66-22.41,1.08C491.56,168.48,491.9,175.66,492.81,180.8Z"/><path class="cls-8" d="M508.06,171.25c5.33.31,11.11-.5,14.47-2.31.67-.37,1.27-.83,1-1.27s-1.79-.74-3-.87c-6.41-.66-13.51-1-19.79.1C491.47,168.46,503.18,171,508.06,171.25Z"/><path class="cls-9" d="M505.25,71.26s-4.34,73.09,5.79,99.87C511,171.13,517.56,106,505.25,71.26Z"/><path class="cls-10" d="M509.76,170.59h2.35c3.46-14.47,13.81-61.34,8.34-83.21,0,0-17.37,61.51-13,75.26Z"/><path class="cls-7" d="M494.54,167.33c-3.62,3.11-3.27,9.17-2.47,13.67.85,4.76,1.93,9.56,4.29,13.78s6.16,7.85,10.86,9a25.12,25.12,0,0,0,6.54.45,26.4,26.4,0,0,0,3.55-.28Z"/><ellipse class="cls-5" cx="755.92" cy="69.6" rx="17.52" ry="2.24"/><path class="cls-6" d="M771.06,59.49V46.91S759.24,53,755,52.87c-3.87-.08-14.29-6-14.29-6v1.64L761.8,69.69A10.24,10.24,0,0,0,771.06,59.49Z"/><path class="cls-7" d="M740.66,48.55V59.49A10.24,10.24,0,0,0,750.9,69.74h9.91c.34,0,.67,0,1,0Z"/><path class="cls-6" d="M740.52,47.1c7-6.19,17.31-9.49,30.51,0"/><path class="cls-6" d="M771,47.1c-10.72-8.25-23.5-6.19-30.51,0l8.65,5.77,11.55,1.65Z"/><path class="cls-8" d="M753.57,51.21c5.15.3,10.74-.49,14-2.24.65-.35,1.23-.79.92-1.22s-1.73-.72-2.93-.84c-6.2-.64-13.06-.93-19.12.1C737.54,48.52,748.85,50.93,753.57,51.21Z"/><path class="cls-9" d="M745.15,30.59C748,44.38,753,51.65,757.38,51.13L747.12.63C746.25,3.78,742.62,18.11,745.15,30.59Z"/><path class="cls-10" d="M747.3,0s-.06.22-.18.63l10.26,50.5.3,0c4.43-.9,6.4-9.65,3.54-23.76S747.3,0,747.3,0Z"/><path class="cls-11" d="M755.3,39.71q-1-5.09-2.09-10.19-2.09-10.18-4.29-20.36c0-.07-.14-.05-.12,0q1.31,6.9,2.67,13.8a28.16,28.16,0,0,0-5-3.29c-.09,0-.19.1-.11.17a28.37,28.37,0,0,0,5.23,3.49c.41,2.09.81,4.17,1.23,6.25q1,5.1,2.06,10.2C755.52,43.19,756,46.68,757,50a.19.19,0,0,0,.37-.07C756.91,46.5,756,43.09,755.3,39.71Z"/><path class="cls-11" d="M754.26,35.49a58.87,58.87,0,0,0-8.42-5.55.07.07,0,0,0-.08.11,58.47,58.47,0,0,0,8.41,5.59A.09.09,0,0,0,754.26,35.49Z"/><path class="cls-11" d="M757.2,22.78c-.8,1.07-1.57,2.18-2.34,3.28a17.24,17.24,0,0,0-1.92,3.08c0,.09.09.18.16.11a17.08,17.08,0,0,0,2.09-3c.71-1.14,1.44-2.28,2.11-3.44A.06.06,0,1,0,757.2,22.78Z"/><path class="cls-11" d="M759.66,35.73a50.88,50.88,0,0,0-3.9,5.78.11.11,0,1,0,.18.12,50.05,50.05,0,0,0,3.8-5.85C759.78,35.73,759.7,35.68,759.66,35.73Z"/><path class="cls-11" d="M756.73,45.81a46.18,46.18,0,0,0-6.93-4.54.07.07,0,0,0-.08.12A46.76,46.76,0,0,0,756.61,46,.11.11,0,0,0,756.73,45.81Z"/><path class="cls-9" d="M761.12,30.15c-4.28,10.91-4,18.28-.74,19.89L776,10.09C774,11.89,765,20.28,761.12,30.15Z"/><path class="cls-10" d="M776.46,9.73l-.42.36L760.38,50l.23.11c3.51,1.38,8.85-3.86,13.22-15S776.46,9.73,776.46,9.73Z"/><path class="cls-11" d="M764.09,41.12l3.15-8.07q3.15-8.07,6.2-16.18c0-.06-.07-.1-.09,0q-2.21,5.43-4.37,10.86a24.12,24.12,0,0,0-2-4.58c-.05-.07-.18,0-.16.07A24.36,24.36,0,0,0,768.86,28l-2,4.92L763.73,41c-1.06,2.67-2.3,5.33-3.13,8.07a.16.16,0,0,0,.3.12C762.15,46.59,763.05,43.79,764.09,41.12Z"/><path class="cls-11" d="M765.28,37.7a48.4,48.4,0,0,0-3.39-7.7c0-.06-.12,0-.1.05a50.62,50.62,0,0,0,3.35,7.71A.08.08,0,0,0,765.28,37.7Z"/><path class="cls-11" d="M773.08,30.13C772,30.52,771,31,770,31.37a14.29,14.29,0,0,0-2.74,1.29.08.08,0,0,0,.07.14,13.8,13.8,0,0,0,2.8-1.13c1-.47,2-.94,3-1.45C773.18,30.2,773.14,30.11,773.08,30.13Z"/><path class="cls-11" d="M769,40.3a44.31,44.31,0,0,0-5.35,2.28.09.09,0,0,0,.07.17A43.41,43.41,0,0,0,769,40.38S769,40.28,769,40.3Z"/><path class="cls-11" d="M762.34,46a38.24,38.24,0,0,0-2.8-6.31c0-.07-.13,0-.1.05a38.6,38.6,0,0,0,2.73,6.34A.09.09,0,0,0,762.34,46Z"/><path class="cls-9" d="M738,36.9c4.51,9.52,9.48,13.9,12.56,12.74L734,14.79C734,17.23,733.88,28.29,738,36.9Z"/><path class="cls-10" d="M734,14.3s0,.17,0,.49l16.49,34.85.21-.09c3.07-1.45,2.93-8.16-1.68-17.89S734,14.3,734,14.3Z"/><path class="cls-11" d="M747,41.71q-1.68-3.51-3.34-7-3.35-7-6.77-14c0-.05-.11,0-.08,0q2.19,4.79,4.41,9.55a20.41,20.41,0,0,0-4.25-1.48c-.07,0-.12.1,0,.14a22.23,22.23,0,0,0,4.42,1.6q1,2.16,2,4.31l3.32,7c1.1,2.34,2.08,4.79,3.36,7a.15.15,0,0,0,.26-.13C749.34,46.35,748.07,44,747,41.71Z"/><path class="cls-11" d="M745.45,38.83a43.64,43.64,0,0,0-7.12-2.52c-.06,0-.09.06,0,.09A44.64,44.64,0,0,0,745.41,39,.07.07,0,0,0,745.45,38.83Z"/><path class="cls-11" d="M745.31,29.07c-.4.92-.75,1.87-1.12,2.8a14,14,0,0,0-.84,2.59.08.08,0,0,0,.14,0,12.51,12.51,0,0,0,1-2.53c.32-.95.64-1.91.92-2.87A0,0,0,1,0,745.31,29.07Z"/><path class="cls-11" d="M749.41,38a38.85,38.85,0,0,0-1.8,4.9.08.08,0,0,0,.16.05,38.82,38.82,0,0,0,1.71-4.93S749.43,38,749.41,38Z"/><path class="cls-11" d="M749.09,45.89a33.57,33.57,0,0,0-5.85-2.06.05.05,0,1,0,0,.1A34.39,34.39,0,0,0,749,46,.08.08,0,1,0,749.09,45.89Z"/></g></g></g></svg>