<svg xmlns="http://www.w3.org/2000/svg" xmlns:xlink="http://www.w3.org/1999/xlink" viewBox="0 0 259 164.28"><defs><style>.cls-1{isolation:isolate;}.cls-2{fill:#f0f6d4;}.cls-3{fill:#5e7927;}.cls-4{fill:#87a83e;}.cls-5{fill:#fff;}.cls-21,.cls-6{fill:#132247;}.cls-6{opacity:0.12;mix-blend-mode:multiply;}.cls-7{fill:#c3dc4a;}.cls-8{fill:#e58e73;}.cls-9{opacity:0.9;fill:url(#linear-gradient);}.cls-10,.cls-11,.cls-16{fill:none;stroke-linecap:round;stroke-linejoin:round;}.cls-10{stroke:#93a9e0;}.cls-10,.cls-11{stroke-width:1.5px;}.cls-11{stroke:#dfe5f4;}.cls-12{fill:#f2f9cb;}.cls-13{fill:#dfe5f4;}.cls-14{fill:#525252;}.cls-15{fill:#ecb8a4;}.cls-16{stroke:#6939ee;stroke-width:0.8px;}.cls-17{fill:#be5641;}.cls-18{fill:#d68072;}.cls-19{fill:#1b2e39;}.cls-20{fill:#d36d51;}.cls-22{fill:#d2d9a0;}.cls-23{fill:url(#linear-gradient-2);}</style><linearGradient id="linear-gradient" x1="34.86" y1="41.89" x2="234.71" y2="41.89" gradientUnits="userSpaceOnUse"><stop offset="0" stop-color="#5e7927"/><stop offset="0.56" stop-color="#87a83e"/><stop offset="1" stop-color="#c3dc4a"/></linearGradient><linearGradient id="linear-gradient-2" x1="215.98" y1="141.49" x2="215.98" y2="117.53" gradientUnits="userSpaceOnUse"><stop offset="0" stop-color="#87a83e"/><stop offset="0.17" stop-color="#789736"/><stop offset="0.41" stop-color="#69862d"/><stop offset="0.67" stop-color="#617c29"/><stop offset="1" stop-color="#5e7927"/></linearGradient></defs><title>Asset 11</title><g class="cls-1"><g id="Layer_2" data-name="Layer 2"><g id="Layer_1-2" data-name="Layer 1"><ellipse class="cls-2" cx="129.5" cy="139.28" rx="129.5" ry="25"/><path class="cls-3" d="M232.87,59.09l-.41-9.58a21.24,21.24,0,0,0,9.14.62c-.1.69-.24,1.37-.4,2C237,51.23,234.67,55.15,232.87,59.09Z"/><path class="cls-4" d="M241.2,52.18a27.93,27.93,0,0,1-3.18,8l-4.75,8-.4-9.07C234.67,55.15,237,51.23,241.2,52.18Z"/><rect class="cls-3" x="223.8" y="62.12" width="27.53" height="9.45" rx="3.5" ry="3.5" transform="translate(475.13 133.69) rotate(180)"/><rect class="cls-5" x="242.92" y="64" width="6.6" height="5.82" rx="2.12" ry="2.12" transform="translate(492.44 133.82) rotate(180)"/><path class="cls-6" d="M227.7,65.28h12.23a.49.49,0,0,1,.48.48.48.48,0,0,1-.48.48H227.7a.48.48,0,0,1-.48-.48A.49.49,0,0,1,227.7,65.28Z"/><path class="cls-6" d="M234,67.45h5.94a.48.48,0,0,1,.48.48.49.49,0,0,1-.48.48H234a.48.48,0,0,1-.48-.48A.47.47,0,0,1,234,67.45Z"/><rect class="cls-7" x="223.8" y="75.21" width="27.53" height="9.45" rx="3.5" ry="3.5" transform="translate(475.13 159.87) rotate(180)"/><rect class="cls-5" x="242.92" y="77.09" width="6.6" height="5.82" rx="2.12" ry="2.12" transform="translate(492.44 160) rotate(180)"/><path class="cls-6" d="M227.7,78.37h12.23a.49.49,0,0,1,.48.48.48.48,0,0,1-.48.48H227.7a.48.48,0,0,1-.48-.48A.49.49,0,0,1,227.7,78.37Z"/><path class="cls-6" d="M234,80.54h5.94a.48.48,0,0,1,0,1H234a.48.48,0,1,1,0-1Z"/><rect class="cls-4" x="223.8" y="88.31" width="27.53" height="9.45" rx="3.5" ry="3.5" transform="translate(475.13 186.06) rotate(180)"/><rect class="cls-5" x="242.92" y="90.18" width="6.6" height="5.82" rx="2.12" ry="2.12" transform="translate(492.44 186.19) rotate(180)"/><path class="cls-6" d="M227.7,91.46h12.23a.49.49,0,0,1,0,1H227.7a.49.49,0,0,1,0-1Z"/><path class="cls-6" d="M234,93.63h5.94a.49.49,0,0,1,.48.48.48.48,0,0,1-.48.48H234a.47.47,0,0,1-.48-.48A.48.48,0,0,1,234,93.63Z"/><path class="cls-8" d="M32.75,103.28,42.22,110a1.91,1.91,0,0,1,.67,2.31h0a1.92,1.92,0,0,1-2.69,1l-9.22-5Z"/><rect class="cls-7" x="34.86" y="4.69" width="199.85" height="135.82" rx="8" ry="8"/><rect class="cls-5" x="190.02" y="58.82" width="37.67" height="25.26" rx="2.75" ry="2.75"/><rect class="cls-7" x="193.14" y="72.05" width="31.43" height="8.1" rx="1.66" ry="1.66"/><path class="cls-3" d="M219.72,61.52a.66.66,0,0,1,.66.67.66.66,0,0,1-1.32,0A.66.66,0,0,1,219.72,61.52Z"/><path class="cls-3" d="M222.14,61.52a.67.67,0,0,1,.67.67.67.67,0,1,1-.67-.67Z"/><path class="cls-3" d="M224.57,61.52a.67.67,0,0,1,.66.67.67.67,0,0,1-1.33,0A.67.67,0,0,1,224.57,61.52Z"/><circle class="cls-4" cx="195.86" cy="66.82" r="2.51"/><rect class="cls-7" x="200.93" y="65.21" width="23.42" height="3.15" rx="0.67" ry="0.67"/><path class="cls-3" d="M234.71,15.79V9.13a4.44,4.44,0,0,0-4.44-4.44H39.3a4.44,4.44,0,0,0-4.44,4.44v6.66Z"/><rect class="cls-9" x="34.86" y="30.5" width="199.85" height="22.76"/><rect class="cls-5" x="50.2" y="18.64" width="170.35" height="9.09" rx="4" ry="4"/><line class="cls-4" x1="231.31" y1="20.41" x2="224.07" y2="20.41"/><path class="cls-4" d="M231.31,20.85h-7.24a.44.44,0,0,1-.44-.44.43.43,0,0,1,.44-.44h7.24a.44.44,0,0,1,.44.44A.44.44,0,0,1,231.31,20.85Z"/><line class="cls-4" x1="231.31" y1="23.18" x2="224.07" y2="23.18"/><path class="cls-4" d="M231.31,23.62h-7.24a.43.43,0,0,1-.44-.44.44.44,0,0,1,.44-.44h7.24a.44.44,0,0,1,.44.44A.44.44,0,0,1,231.31,23.62Z"/><line class="cls-4" x1="231.31" y1="25.96" x2="224.07" y2="25.96"/><path class="cls-4" d="M231.31,26.4h-7.24a.44.44,0,1,1,0-.88h7.24a.44.44,0,0,1,0,.88Z"/><path class="cls-10" d="M42,19.59,38.75,22a.76.76,0,0,0-.19.5v4A.47.47,0,0,0,39,27H41a.48.48,0,0,0,.48-.47V24a1.13,1.13,0,0,1,.91-1.14,1.07,1.07,0,0,1,1.22,1.06v2.62A.47.47,0,0,0,44,27H46a.47.47,0,0,0,.48-.47v-4a.72.72,0,0,0-.2-.5L43,19.59A.64.64,0,0,0,42,19.59Z"/><circle class="cls-11" cx="54.86" cy="23.01" r="2.23"/><line class="cls-11" x1="57.03" y1="25.59" x2="56.29" y2="24.73"/><rect class="cls-5" x="83.99" y="37.44" width="101.59" height="8.88" rx="2.25" ry="2.25"/><path class="cls-12" d="M184.33,37.44h-8.47v8.89h8.47a1.25,1.25,0,0,0,1.25-1.25V38.69A1.25,1.25,0,0,0,184.33,37.44Z"/><path class="cls-3" d="M180.72,44A2.24,2.24,0,1,1,183,41.74,2.25,2.25,0,0,1,180.72,44Zm0-3.82a1.58,1.58,0,1,0,1.58,1.58A1.58,1.58,0,0,0,180.72,40.16Z"/><path class="cls-3" d="M182.58,44.27a.36.36,0,0,1-.26-.11l-.63-.74a.34.34,0,0,1,0-.47.33.33,0,0,1,.47,0l.64.74a.33.33,0,0,1,0,.46A.29.29,0,0,1,182.58,44.27Z"/><circle class="cls-4" cx="43.94" cy="62.19" r="2.51"/><rect class="cls-5" x="190.02" y="88.8" width="37.67" height="44.78" rx="2.75" ry="2.75"/><rect class="cls-5" x="49.02" y="60.57" width="20.54" height="3.15" rx="0.67" ry="0.67"/><rect class="cls-13" x="62.11" y="21.61" width="27.66" height="3.15" rx="0.67" ry="0.67"/><circle class="cls-4" cx="43.94" cy="69.54" r="2.51"/><rect class="cls-5" x="49.02" y="67.93" width="20.54" height="3.15" rx="0.67" ry="0.67"/><rect class="cls-14" x="41.43" y="76.86" width="14.06" height="1.57" rx="0.67" ry="0.67"/><circle class="cls-4" cx="43.94" cy="84.26" r="2.51"/><rect class="cls-5" x="49.02" y="82.64" width="20.54" height="3.15" rx="0.67" ry="0.67"/><circle class="cls-4" cx="43.94" cy="91.61" r="2.51"/><rect class="cls-5" x="49.02" y="90" width="20.54" height="3.15" rx="0.67" ry="0.67"/><circle class="cls-4" cx="43.94" cy="98.97" r="2.51"/><rect class="cls-5" x="49.02" y="97.35" width="20.54" height="3.15" rx="0.67" ry="0.67"/><circle class="cls-4" cx="43.94" cy="106.32" r="2.51"/><rect class="cls-5" x="49.02" y="104.71" width="20.54" height="3.15" rx="0.67" ry="0.67"/><rect class="cls-14" x="41.43" y="113.64" width="14.06" height="1.57" rx="0.67" ry="0.67"/><circle class="cls-4" cx="43.94" cy="121.03" r="2.51"/><rect class="cls-5" x="49.02" y="119.42" width="20.54" height="3.15" rx="0.67" ry="0.67"/><circle class="cls-4" cx="43.94" cy="128.39" r="2.51"/><rect class="cls-5" x="49.02" y="126.77" width="20.54" height="3.15" rx="0.67" ry="0.67"/><rect class="cls-5" x="75.94" y="58.82" width="110.47" height="35.25" rx="2.75" ry="2.75"/><rect class="cls-12" x="79.36" y="62.15" width="27.66" height="3.15" rx="0.67" ry="0.67"/><rect class="cls-12" x="79.36" y="87.53" width="103.15" height="3.15" rx="0.67" ry="0.67"/><rect class="cls-12" x="110.45" y="62.15" width="27.66" height="3.15" rx="0.67" ry="0.67"/><rect class="cls-12" x="141.54" y="62.15" width="27.66" height="3.15" rx="0.67" ry="0.67"/><rect class="cls-12" x="79.36" y="71.45" width="89.84" height="11.2" rx="1.29" ry="1.29"/><rect class="cls-5" x="75.94" y="98.33" width="110.47" height="35.25" rx="2.75" ry="2.75"/><rect class="cls-12" x="79.36" y="101.66" width="27.66" height="3.15" rx="0.67" ry="0.67"/><rect class="cls-12" x="79.36" y="127.04" width="103.15" height="3.15" rx="0.67" ry="0.67"/><rect class="cls-12" x="110.45" y="101.66" width="27.66" height="3.15" rx="0.67" ry="0.67"/><rect class="cls-12" x="141.54" y="101.66" width="27.66" height="3.15" rx="0.67" ry="0.67"/><rect class="cls-12" x="79.36" y="110.96" width="89.84" height="11.2" rx="1.29" ry="1.29"/><path class="cls-3" d="M216.47,93.14h8a.78.78,0,0,0,.79-.78h0a.79.79,0,0,0-.79-.79h-8a.78.78,0,0,0-.78.79h0A.78.78,0,0,0,216.47,93.14Z"/><circle class="cls-3" cx="197.3" cy="99.62" r="2.51"/><rect class="cls-4" x="202.38" y="98.01" width="20.54" height="3.15" rx="0.67" ry="0.67"/><rect class="cls-4" x="194.79" y="105.36" width="28.13" height="3.15" rx="0.67" ry="0.67"/><circle class="cls-3" cx="197.3" cy="119.38" r="2.51"/><rect class="cls-4" x="202.38" y="117.76" width="20.54" height="3.15" rx="0.67" ry="0.67"/><rect class="cls-4" x="194.79" y="125.12" width="28.13" height="3.15" rx="0.67" ry="0.67"/><path class="cls-3" d="M215.61,20.56l.55,1.11a.88.88,0,0,0,.66.48l1.24.18a.26.26,0,0,1,.14.45l-.89.87a.85.85,0,0,0-.25.77l.21,1.23a.26.26,0,0,1-.38.28l-1.1-.58a.91.91,0,0,0-.82,0l-1.1.58a.26.26,0,0,1-.38-.28l.21-1.23a.89.89,0,0,0-.26-.77l-.89-.87a.27.27,0,0,1,.15-.45l1.23-.18a.87.87,0,0,0,.66-.48l.55-1.11A.26.26,0,0,1,215.61,20.56Z"/><path class="cls-15" d="M200.37,82.27a1.45,1.45,0,0,0-2.68,1.1L199,87.16a16.7,16.7,0,0,1,3.3-.85Z"/><path class="cls-15" d="M214,91l.77-3.58a2.53,2.53,0,0,1,3.15-1.9h0a2.53,2.53,0,0,1,1.77,3.07l-.92,3.54a2.46,2.46,0,0,1-3.07,1.74h0A2.44,2.44,0,0,1,214,91Z"/><path class="cls-16" d="M215.29,88.75c-.11.42-.4.7-.66.64s-.37-.46-.27-.88.41-.69.66-.63S215.4,88.34,215.29,88.75Z"/><path class="cls-16" d="M215.29,88.75a7.86,7.86,0,0,1,1.76.35c.2.19,0,.63,0,.63"/><path class="cls-15" d="M224.31,110.83l.32,5a1.29,1.29,0,0,0,2.57.22l.28-5.26Z"/><path class="cls-15" d="M87.41,9.05a22.27,22.27,0,0,1-3.68,1.86l1.42,2.93L82.47,19.9a1.72,1.72,0,0,0,3.13,1.41l2.75-5.95a5.09,5.09,0,0,0,0-4.25Z"/><path class="cls-15" d="M64.77,10.12l-.24,1.81A5.1,5.1,0,0,0,66,16.23l5.76,5.69a1.46,1.46,0,0,0,1.9.14h0a1.46,1.46,0,0,0,.28-2.1l-5-6.72.6-2.22A13.63,13.63,0,0,1,64.77,10.12Z"/><path class="cls-17" d="M85.91,5.77A8.44,8.44,0,0,0,79.55.93L74.33.1A7.9,7.9,0,0,0,66.21,4a8.41,8.41,0,0,0-1,3l-.42,3.07a13.63,13.63,0,0,0,4.75.9l.12-.44A3.55,3.55,0,0,1,72.85,8l6.78-.44a3.57,3.57,0,0,1,3.44,2l.66,1.39a22.27,22.27,0,0,0,3.68-1.86Z"/><path class="cls-15" d="M73.86,7.44l.31-2.59A2.66,2.66,0,0,1,77,2.52h0a2.66,2.66,0,0,1,2.49,2.92l-.27,2.61a2.65,2.65,0,0,1-3.31,2.3h-.05A2.67,2.67,0,0,1,73.86,7.44Z"/><path class="cls-17" d="M232.46,49.51l-.08-1.89L241.93,44v1.92a27.37,27.37,0,0,1-.33,4.25A21.24,21.24,0,0,1,232.46,49.51Z"/><path class="cls-18" d="M234.63,42.61h0l0-12.18,4.3.72a5.87,5.87,0,0,1,4.67,4.15l1.16,6a2.92,2.92,0,0,1-1.85,3.59l-5.16,2.6A9.11,9.11,0,0,1,234.63,42.61Z"/><path class="cls-15" d="M229.34,46.84l5.29-4.23a9.11,9.11,0,0,0,3.07,4.84l-6.76,3.41a2.17,2.17,0,0,1-1.6-4Z"/><path class="cls-15" d="M238.58,32.86l-.32-2.67a2.73,2.73,0,0,0-2.87-2.4h0a2.73,2.73,0,0,0-2.56,3l.27,2.68a2.73,2.73,0,0,0,3.41,2.36h.05A2.73,2.73,0,0,0,238.58,32.86Z"/><path class="cls-19" d="M238.54,32.46A3.08,3.08,0,0,1,237.15,30s-2.74,1.05-4.34.38a1.71,1.71,0,0,1-.23-3.11,1.5,1.5,0,0,1,2,.52,3.38,3.38,0,0,1,3.12.74C239.11,29.82,238.54,32.46,238.54,32.46Z"/><path class="cls-17" d="M234.63,42.61l4.17-3a.3.3,0,0,0-.25-.53l-3.93,1.18Z"/><path class="cls-15" d="M31.24,91.76l.86-2.62a2.37,2.37,0,0,1,2.84-1.55l.29.08a2.35,2.35,0,0,1,1.67,3l-.83,2.7a2.35,2.35,0,0,1-3.29,1.43l-.33-.15A2.37,2.37,0,0,1,31.24,91.76Z"/><path class="cls-15" d="M36.91,95.2a15.11,15.11,0,0,1,1.61,2L41,101s5.47-5.91,6.47-6.06,2.44,1.09,2,2.18a45.4,45.4,0,0,1-6.82,8.65,2.52,2.52,0,0,1-3.23.31L35.31,101l-.64,1C34.25,99.38,34.9,96.42,36.91,95.2Z"/><path class="cls-20" d="M31.81,92.36a6.86,6.86,0,0,1,2.71.91,11.06,11.06,0,0,1,2.39,1.93c-2,1.22-2.66,4.18-2.24,6.79l-.36.57a19.64,19.64,0,0,0-2.33,5,16.22,16.22,0,0,1-7.76-2.79C26.14,99.58,27.36,92.67,31.81,92.36Z"/><path class="cls-17" d="M20.81,109.54A8.62,8.62,0,0,1,23.7,106c.18-.41.35-.84.52-1.28A16.22,16.22,0,0,0,32,107.51a19.63,19.63,0,0,0-.85,6c0,.2,0,.32,0,.32a18.77,18.77,0,0,0,1.6,3.37,62.1,62.1,0,0,1-7.65,2.3l-.47-.61-2.69-3.26A5.71,5.71,0,0,1,20.81,109.54Z"/><path class="cls-21" d="M35.75,90.34s1.39,1.21,2,.24,0-3.34-2.73-3.63c-2.5-.28-3.49,1.64-4.53,3.39C28.74,93.23,22.83,95,23,98.89c.27,5.93,7.44,5.29,8.61,1.63.9-2.82-.39-6.19.8-7.21S34.79,93.24,35.75,90.34Z"/><path class="cls-21" d="M215.2,86.47s-1.7-1.19,2.3-1.19,3,3,3,3l-1,2-1,1-.38-2.41Z"/><rect class="cls-22" x="16.95" y="141.28" width="23" height="7" rx="3.5" ry="3.5"/><path class="cls-3" d="M25,128.8a3,3,0,0,0,.11-2.16l-2.46-7.72a51.78,51.78,0,0,1-1.5-5s10.48,2.46,10.53,3.23L32,122A18.1,18.1,0,0,1,30,130.61l-5.38,11.72a.49.49,0,0,0,0,.29H19Z"/><path class="cls-21" d="M19,142.62h5.52a.34.34,0,0,0,.06.15l1.2,1.42c.3.36-.29,1.11-.88,1.12l-5.8.06c-.7,0-1-.54-.76-1.24Z"/><path class="cls-21" d="M37.3,142.64l1.83,1.41a.62.62,0,0,1-.37,1.12l-5.8.06A1.3,1.3,0,0,1,31.64,144l0-1.38h5.6Z"/><path class="cls-4" d="M31.34,127.67l-6.25-8.16a62.1,62.1,0,0,0,7.65-2.3c1.2,2.23,2.65,4.7,2.65,4.7a17.85,17.85,0,0,1,1.81,8.63l-.14,11.66a.57.57,0,0,0,.22.42h-5.6l.29-13A3.06,3.06,0,0,0,31.34,127.67Z"/><path class="cls-20" d="M35,121.18s-5.51,5.19-16,4c0,0,2.41-6.22,1.36-12-.81-4.47,3.35-7.2,3.35-7.2a14.64,14.64,0,0,0,7.8,3.43,9.82,9.82,0,0,0,1.41,6.45A21.13,21.13,0,0,1,35,121.18Z"/><rect class="cls-22" x="206.95" y="143.28" width="16.9" height="7" rx="3.5" ry="3.5"/><path class="cls-21" d="M209,144.28l-1.16,1a.31.31,0,0,0,.21.55h4.56a1.22,1.22,0,0,0,1.21-1.12l0-.57h-4.86Z"/><path class="cls-21" d="M217.53,144.14l0,.32-.92.92a.26.26,0,0,0,.19.45h4.89a1.22,1.22,0,0,0,1.22-1.26l0-.43Z"/><path class="cls-23" d="M221.9,113.79a50.89,50.89,0,0,1-12.26.47l-.59,29.88h4.86l2.1-26.39,1.52,26.39h5.38Z"/><path class="cls-20" d="M227.68,107.31a8.35,8.35,0,0,0-.68-3.76l-3.37-7.67a6.16,6.16,0,0,0-4.93-3.8l-7.21-.92L205,90.64a1.2,1.2,0,0,1-1-.66l-1.74-3.67a16.7,16.7,0,0,0-3.3.85l1.78,5.1a3.25,3.25,0,0,0,2.14,2L210,96.39l-.35,17.87a50.89,50.89,0,0,0,12.26-.47l-.39-12,2.49,4.1.31,4.91h3.17Z"/></g></g></g></svg>