<svg xmlns="http://www.w3.org/2000/svg" viewBox="0 0 259 144.2"><defs><style>.cls-1{fill:#f0f6d4;}.cls-2{fill:#d2d9a0;}.cls-3{fill:#eebd9d;}.cls-4{fill:#be5641;}.cls-5{fill:#5e7927;}.cls-6{fill:#c3dc4a;}.cls-7{fill:#87a83e;}.cls-8{fill:#594a43;}.cls-9{fill:#222023;}.cls-10{fill:#d36d51;}.cls-11{fill:#f5dbc1;}.cls-12{fill:#d68072;}.cls-13{fill:#182543;}.cls-14{fill:#3c3a50;}.cls-15{fill:#f0c751;}.cls-16{fill:#3f6649;}.cls-17{fill:#548861;}.cls-18{fill:#383948;}</style></defs><title>Asset 9</title><g id="Layer_2" data-name="Layer 2"><g id="Layer_1-2" data-name="Layer 1"><ellipse class="cls-1" cx="129.5" cy="119.2" rx="129.5" ry="25"/><path class="cls-2" d="M147.88,121s-18.82,1.36-42,1.36S63.79,121,63.79,121s18.82-1.36,42.05-1.36S147.88,121,147.88,121Z"/><path class="cls-3" d="M147.81,77.11l.07-1.32-6.81-.71-2.5-4L143.75,73l.6-1.45-6.17-3.33L134,69.44l-14.57-.59-6-10.76-6.87,5.08S112.08,73.91,115,75c2.47.9,16-1.1,20.41-1.67l4.39,4.22Z"/><path class="cls-4" d="M94.64,42.61s2.52,9.56,10.73,23.63L115,59.6S107.9,40,105.83,39,97.12,37.14,94.64,42.61Z"/><rect class="cls-5" x="140.29" y="67.94" width="6.49" height="1.31" transform="translate(25.71 175.48) rotate(-67.76)"/><path class="cls-6" d="M143.47,66.7a3.71,3.71,0,0,1-.28,2.73,3.68,3.68,0,0,1-2.14-1.72,3.63,3.63,0,0,1,.28-2.72A3.67,3.67,0,0,1,143.47,66.7Z"/><path class="cls-7" d="M141.33,65l1.86,4.44a3.68,3.68,0,0,1-2.14-1.72A3.63,3.63,0,0,1,141.33,65Z"/><path class="cls-6" d="M144.91,67.29a3.64,3.64,0,0,0-1.71,2.14,3.69,3.69,0,0,0,2.72.28,3.64,3.64,0,0,0,1.71-2.14A3.63,3.63,0,0,0,144.91,67.29Z"/><path class="cls-7" d="M147.63,67.57l-4.43,1.86a3.69,3.69,0,0,0,2.72.28A3.64,3.64,0,0,0,147.63,67.57Z"/><path class="cls-6" d="M143.91,62.47c-.76,1.84.45,4.07.45,4.07s2.43-.75,3.18-2.59-.45-4.07-.45-4.07S144.66,60.63,143.91,62.47Z"/><path class="cls-7" d="M147.09,59.88l-2.73,6.66s2.43-.75,3.18-2.59S147.09,59.88,147.09,59.88Z"/><path class="cls-8" d="M147.12,75.63c-.72,2.41-3.8,3.62-6.88,2.7s-5-3.63-4.28-6,3.81-3.62,6.89-2.7S147.84,73.22,147.12,75.63Z"/><path class="cls-5" d="M103.55,73.24s20.56,32.85,18.87,37.21-34.61,5.32-34.61,5.32l-1.45-8.47,15.84-5.47S86.43,93.38,84,75.24Z"/><path class="cls-9" d="M87.09,104.59l2.18,12.21-12.16-.45-1.27,1.72s5,.63,7.07,1.81l1,1.27H70.53l-1-10.88Z"/><path class="cls-10" d="M106.47,36.93l-6.23-5.25s-17.59,3.23-19,41l19.83-.73L100,65a40.75,40.75,0,0,0,1.8-4.75h0s6,1,8.08-4.32S106.5,39.93,106.47,36.93Z"/><path class="cls-11" d="M110.52,28.19a12.38,12.38,0,0,0-2.1,2.86q-.32.59-.6,1.2a33.19,33.19,0,0,0-2,5.8l-5.62-5.89a23.19,23.19,0,0,0,3.89-3.35c.92-.91,1.78-1.82,2.37-2.45s.82-.87.82-.87Z"/><path class="cls-3" d="M108.42,31.05q-.32.59-.6,1.2l-3.77-3.44c.92-.91,1.78-1.82,2.37-2.45A50.49,50.49,0,0,0,108.42,31.05Z"/><polygon class="cls-12" points="95.8 33.27 100.32 30.38 108.59 37.73 108.26 41.25 95.8 33.27"/><path class="cls-11" d="M122.15,24.61s-2.47,4.79-1.47,6.32-3,1.8-3,1.8-4.94,8.54-9.1,2.15c-2.79-7.61-2.06-8.52-2.06-8.52s-2.39-1.31-1.79-3.12,2.42-3.69,4-1.22a7.41,7.41,0,0,0,3.47-2.08c1.15-1.47,2.56-5,4.91-3.27S122.15,24.61,122.15,24.61Z"/><path class="cls-3" d="M114.4,28.05a1.49,1.49,0,1,1-.81-1.94A1.48,1.48,0,0,1,114.4,28.05Z"/><path class="cls-3" d="M105.76,23.42a1.2,1.2,0,0,1,.62-1.25,1.22,1.22,0,0,1,1.12.15,1.43,1.43,0,0,0-1.09.41,1.13,1.13,0,0,0-.17.6,2.25,2.25,0,0,0,.4,1.59C106.13,24.73,105.81,23.91,105.76,23.42Z"/><path class="cls-13" d="M122.15,24.61s6.2-10.22-3.73-14.16-17.06,3.22-15.93,11.37a4.13,4.13,0,0,1,.08.47,7,7,0,0,0,3.77,5.3l.19.15,0-.32,0,0h0l.13-1s-2.9-2.39-1.35-4.4,3.42,0,3.42,0a3.07,3.07,0,0,1-.52,1.51,14.55,14.55,0,0,0,2.89-1.16,6,6,0,0,0,2.25-2.12,4.37,4.37,0,0,0,.42-1C115.85,21.84,119.1,23.32,122.15,24.61Z"/><path class="cls-14" d="M121.93,22.47a19.25,19.25,0,0,1-1.9-.6,11.75,11.75,0,0,1-4.19-2.51,7.06,7.06,0,0,1-2.14-4.47,5,5,0,0,1,.13-1.49,5.41,5.41,0,0,1,.16-.52s0,.19,0,.53a6.13,6.13,0,0,0,.28,1.37,9.41,9.41,0,0,0,2.4,3.7,28.39,28.39,0,0,0,3.6,2.84C121.31,22,121.93,22.47,121.93,22.47Z"/><path class="cls-14" d="M108.73,12.4l-.41.24a7.71,7.71,0,0,0-1,.72A8.51,8.51,0,0,0,105,16.44a14.22,14.22,0,0,0-.67,2.07l-.48,1.81a3.68,3.68,0,0,0-.1,1.69,2.24,2.24,0,0,1-.24-.43,3.84,3.84,0,0,1-.28-1.31,16.81,16.81,0,0,1,.07-1.94,7.81,7.81,0,0,1,.57-2.38A6.08,6.08,0,0,1,107,12.83a5.63,5.63,0,0,1,1.27-.37C108.56,12.41,108.73,12.4,108.73,12.4Z"/><path class="cls-14" d="M111.83,11.73l-1,.85c-.57.53-1.29,1.26-2,2.09s-1.41,1.62-1.87,2.24a5.56,5.56,0,0,0-.51.75,2.74,2.74,0,0,0-.14.32,1.45,1.45,0,0,1,0-.36,3.3,3.3,0,0,1,.14-1,6.68,6.68,0,0,1,4.15-4.6A5.39,5.39,0,0,1,111.83,11.73Z"/><path class="cls-13" d="M111.21,10.3s3.85-8.5.34-9.82-9.15,0-8.49,4.57,5.43,6.36,5.43,6.36Z"/><path class="cls-14" d="M104.62,3.83s0,.11,0,.31a4.05,4.05,0,0,0,.15.81,6.3,6.3,0,0,0,1.3,2.26c.66.78,1.36,1.51,1.81,2a2.75,2.75,0,0,0,.89.69,1.77,1.77,0,0,1-.31,0,2.69,2.69,0,0,1-.81-.36,10.1,10.1,0,0,1-2.15-1.85A4.37,4.37,0,0,1,104.41,5a2.79,2.79,0,0,1,.11-.87A1.61,1.61,0,0,1,104.62,3.83Z"/><path class="cls-14" d="M107.37,5l.33.69c.2.42.49,1,.8,1.56s.61,1.13.85,1.53l.38.66a3.48,3.48,0,0,1-.66-.41,4.47,4.47,0,0,1-1.22-1.43,4.59,4.59,0,0,1-.51-1.82A4.18,4.18,0,0,1,107.37,5Z"/><path class="cls-14" d="M109.69,2.65a5.23,5.23,0,0,1,.52.82,6.54,6.54,0,0,1,.73,2.24,6.69,6.69,0,0,1-.11,2.35,4.84,4.84,0,0,1-.29.93s0-.4-.08-1-.14-1.37-.25-2.22-.24-1.64-.35-2.22Z"/><path class="cls-14" d="M110.66,1.62a4.52,4.52,0,0,1,.54.5,4,4,0,0,1,.92,1.52,3.05,3.05,0,0,1,0,1.81,4.25,4.25,0,0,1-.26.69s0-.28-.11-.72a8.43,8.43,0,0,0-.33-1.56c-.18-.58-.39-1.13-.53-1.55S110.66,1.62,110.66,1.62Z"/><path class="cls-15" d="M106.15,10.67s3.9-2.71,6.12-2.15l.39.93L106,12Z"/><path class="cls-7" d="M81.28,72.52s.52,26.06,18.53,18.87A99.85,99.85,0,0,0,121.21,80v21.29h9.07s9.8-34.85,2.9-35.93-32.36,3.72-32.36,3.72Z"/><path class="cls-9" d="M119.39,99.56h12.34l-2.36,16.14s10.35,2.37,10.89,3.46v2H118.67Z"/><path class="cls-11" d="M146.39,79.2l.06-1.32-6.81-.71-2.5-4,5.18,1.89.61-1.46-6.18-3.32-4.23,1.25L118,70.93l-6-10.75-6.87,5.08s5.59,10.73,8.49,11.79C116,78,129.55,76,134,75.38l4.39,4.23Z"/><path class="cls-12" d="M93.21,44.7s2.52,9.55,10.73,23.63l9.58-6.65s-7-19.57-9.12-20.58S95.69,39.23,93.21,44.7Z"/><path class="cls-10" d="M137.16,34.39c-1.57-2.38-4.28-.81-4.28-.81s-1.12-2.92-3.83-2.06a3.9,3.9,0,0,0-2.68,4.07c.28,3.26,3.49,6.54,3.49,6.54s4.56-.53,6.83-2.89A3.91,3.91,0,0,0,137.16,34.39Z"/><path class="cls-10" d="M92.32,19.67C90.68,19.23,90.1,21,90.1,21a1.91,1.91,0,0,0-2.52.6A2.32,2.32,0,0,0,88,24.47,7.9,7.9,0,0,0,92.15,26,7.88,7.88,0,0,0,94,22,2.31,2.31,0,0,0,92.32,19.67Z"/><path class="cls-5" d="M151.59,111.3c-1.21.45-2.64.77-3.71.07a3,3,0,0,1-.67-3.86,6.28,6.28,0,0,1,3.41-2.52,8.14,8.14,0,0,1,3.93-.56,4.3,4.3,0,0,1,3.22,2.12A2.3,2.3,0,0,1,158,108c-.26,1.33-1.67,1.71-2.78,2A32,32,0,0,0,151.59,111.3Z"/><path class="cls-16" d="M149.39,109.32a.49.49,0,0,1-.23-.93l.21-.15c3.09-2.21,5.65-2.65,7.62-1.3a.49.49,0,0,1-.56.81c-1.59-1.09-3.77-.65-6.49,1.29l-.32.22A.49.49,0,0,1,149.39,109.32Z"/><path class="cls-7" d="M154,113.71c.92-1.26,2.12-2.37,2.65-3.84s.29-3.34.7-5a6.65,6.65,0,0,1,6.11-4.78,7.73,7.73,0,0,1,6.84,4,4.54,4.54,0,0,1,.67,2.25,3.67,3.67,0,0,1-3.94,3.37c-2-.19-3.7-1.85-5.66-1.59-1.56.21-2,1.79-2.83,3.13-1.2,2-1.59,4.18-2.17,6.41-.06.26-3.29-.07-3.52-.48C152.34,116.27,153.5,114.39,154,113.71Z"/><path class="cls-5" d="M159.7,112.76a7.53,7.53,0,0,0-.73,2.35,4.59,4.59,0,0,0,1.25,2.31c.29.39.51,1,.15,1.3a5.62,5.62,0,0,0-3-1,2.19,2.19,0,0,1-1,0,1.34,1.34,0,0,1-.6-1.26,6.27,6.27,0,0,1,1.08-3.49,7.59,7.59,0,0,1,2.46-2.74A2.94,2.94,0,0,1,159.7,112.76Z"/><path class="cls-17" d="M158,107.85a.5.5,0,0,1-.27-.08.49.49,0,0,1-.15-.68c1-1.58,2.49-3.42,4.64-3.69,1.88-.23,3.57.84,5.14,2a.49.49,0,0,1,.12.69.5.5,0,0,1-.69.11c-1.47-1-2.92-2-4.45-1.78-1.74.21-3,1.85-3.93,3.25A.49.49,0,0,1,158,107.85Z"/><path class="cls-18" d="M169.25,123.77h0l-4.21-.11a.67.67,0,0,1-.54-.31.68.68,0,0,1,0-.62,1.3,1.3,0,0,0-.5-1.63,1.32,1.32,0,0,0-1.67.4.65.65,0,0,1-1.09-.69.94.94,0,0,0-.21-1.18,1,1,0,0,0-1.2.09.65.65,0,0,1-.88.06.64.64,0,0,1-.11-.87.36.36,0,0,0,0-.36.87.87,0,0,0-.67-.5,2.52,2.52,0,0,0-1.82.94.64.64,0,0,1-.78.1.65.65,0,0,1-.29-.73.61.61,0,0,0-.22-.57,1,1,0,0,0-.92-.28,1.78,1.78,0,0,0-1,1.81.65.65,0,0,1-.53.67.64.64,0,0,1-.73-.43,1.07,1.07,0,0,0-.61-.61,1.15,1.15,0,0,0-1,0,1.42,1.42,0,0,0-.67,1.7.65.65,0,0,1-1.19.5,1.13,1.13,0,0,0-2.17.4,1.12,1.12,0,0,0,.29.92.64.64,0,0,1,.14.68.63.63,0,0,1-.57.41l-4.4.23a.65.65,0,0,1-.07-1.29l3.39-.17a2.62,2.62,0,0,1-.07-.89,2.43,2.43,0,0,1,1-1.79,2.51,2.51,0,0,1,2-.33l.37.13a2.64,2.64,0,0,1,1.4-1.68,2.51,2.51,0,0,1,2,0,1.4,1.4,0,0,1,.3.15,2.69,2.69,0,0,1,1.7-1.64,2.33,2.33,0,0,1,2.58,1.06,2.92,2.92,0,0,1,1.94-.57A2.15,2.15,0,0,1,160,118a1.21,1.21,0,0,1,.09.2,2.11,2.11,0,0,1,2.5,1.59,2.54,2.54,0,0,1,2,.18,2.58,2.58,0,0,1,1.26,2.41l3.41.09a.64.64,0,0,1,.63.66A.65.65,0,0,1,169.25,123.77Z"/></g></g></svg>