<svg xmlns="http://www.w3.org/2000/svg" xmlns:xlink="http://www.w3.org/1999/xlink" viewBox="0 0 414 218.8"><defs><style>.cls-1{fill:#f0f6d4;}.cls-2{fill:#d2d9a0;}.cls-10,.cls-12,.cls-14,.cls-15,.cls-2,.cls-5,.cls-6{fill-rule:evenodd;}.cls-3{fill:#454545;}.cls-4{fill:url(#linear-gradient);}.cls-5{fill:url(#linear-gradient-2);}.cls-6{fill:url(#linear-gradient-3);}.cls-7{fill:#87a83e;}.cls-21,.cls-8{fill:#5e7927;}.cls-9{fill:#ebebeb;}.cls-10{fill:url(#linear-gradient-4);}.cls-11{fill:#fafafa;}.cls-12{fill:#94a5c0;}.cls-13,.cls-15{fill:none;}.cls-13{stroke:#fafafa;stroke-linecap:round;stroke-linejoin:round;}.cls-14{fill:#c3dc4a;}.cls-15{stroke:#fff;stroke-miterlimit:10;stroke-width:4px;}.cls-16{fill:url(#linear-gradient-5);}.cls-17{fill:url(#linear-gradient-6);}.cls-18{fill:url(#linear-gradient-7);}.cls-19{fill:url(#linear-gradient-8);}.cls-20{fill:url(#linear-gradient-10);}.cls-21{font-size:33.5px;font-family:Raleway-Medium, Raleway Medium;}.cls-22{letter-spacing:-0.08em;}.cls-23{letter-spacing:-0.01em;}</style><linearGradient id="linear-gradient" x1="69.69" y1="182.8" x2="65.93" y2="189.3" gradientUnits="userSpaceOnUse"><stop offset="0" stop-color="#e6d963"/><stop offset="1" stop-color="#e1c561"/></linearGradient><linearGradient id="linear-gradient-2" x1="326.05" y1="133.38" x2="326.05" y2="196.34" gradientUnits="userSpaceOnUse"><stop offset="0" stop-color="#d68072"/><stop offset="1" stop-color="#d36d51"/></linearGradient><linearGradient id="linear-gradient-3" x1="350.7" y1="105.83" x2="350.7" y2="137.9" xlink:href="#linear-gradient-2"/><linearGradient id="linear-gradient-4" x1="222.17" y1="0" x2="222.17" y2="47.17" xlink:href="#linear-gradient-2"/><linearGradient id="linear-gradient-5" x1="109.54" y1="186.11" x2="117.07" y2="186.11" xlink:href="#linear-gradient"/><linearGradient id="linear-gradient-6" x1="148.91" y1="143.68" x2="203.23" y2="49.59" gradientUnits="userSpaceOnUse"><stop offset="0" stop-color="#d68072"/><stop offset="0.34" stop-color="#d57c6c"/><stop offset="0.81" stop-color="#d4725a"/><stop offset="1" stop-color="#d36d51"/></linearGradient><linearGradient id="linear-gradient-7" x1="183.39" y1="65.06" x2="195.7" y2="86.38" xlink:href="#linear-gradient"/><linearGradient id="linear-gradient-8" x1="235.8" y1="62.55" x2="238.93" y2="67.96" xlink:href="#linear-gradient"/><linearGradient id="linear-gradient-10" x1="234.44" y1="100.59" x2="238.1" y2="106.94" xlink:href="#linear-gradient"/></defs><title>Asset 11</title><g id="Layer_2" data-name="Layer 2"><g id="Layer_1-2" data-name="Layer 1"><ellipse class="cls-1" cx="207" cy="198.3" rx="207" ry="20.5"/><path class="cls-2" d="M164.8,196.62c0,1.48-26.14,2.68-58.38,2.68s-58.37-1.2-58.37-2.68,26.13-2.68,58.37-2.68S164.8,195.14,164.8,196.62Z"/><path class="cls-3" d="M72.15,194.71c-2.08-1.42-6.9-2.34-7.48-6.14l7.07-2.74-1.26-2.58-6.13,2.18a2.44,2.44,0,0,0-3.08,1.07c-.86,1.87-.43,8.21,5.14,9.5S72.9,195.23,72.15,194.71Z"/><polygon class="cls-4" points="64.67 188.57 64.35 185.43 70.48 183.25 71.74 185.84 64.67 188.57"/><path class="cls-2" d="M361.78,196.62c0,1.48-25.48,2.68-56.91,2.68s-56.9-1.2-56.9-2.68,25.48-2.68,56.9-2.68S361.78,195.14,361.78,196.62Z"/><path class="cls-5" d="M326.07,196.33h-3.44c-1.43,0-2-.5-2.26-1.88-.3-1.8-.56-3.6-.76-5.41a2.66,2.66,0,0,0-1.57-2.27c-2.49-1.47-4.38-.93-6.28.94-.87.85-2,1.45-2.94,2.23a1.42,1.42,0,0,1-2.21-.2c-1.85-1.88-3.71-3.75-5.59-5.59a1.38,1.38,0,0,1-.17-2c1.24-1.67,2.45-3.36,3.74-5a2.4,2.4,0,0,0,.29-2.31c-.63-2.83-2.35-3.88-5.08-3.85a24.22,24.22,0,0,1-3.15-.4c-1.47-.18-2-.78-2.06-2.22,0-2.38,0-4.76,0-7.14a1.8,1.8,0,0,1,1.66-2c2.08-.33,4.17-.67,6.27-.93.74-.09,1.21-.32,1.33-1.08a.91.91,0,0,1,.15-.35c1.68-2.35,1.06-4.33-.84-6.24a31,31,0,0,1-2.24-2.93,1.49,1.49,0,0,1,.07-2.18c1.87-1.91,3.76-3.81,5.68-5.67a1.61,1.61,0,0,1,2.31,0c1.62,1.23,3.24,2.46,4.9,3.64a1.93,1.93,0,0,0,1.37.45,20.13,20.13,0,0,0,3.74-1.57c.37-.21.49-1,.58-1.57.31-1.84.54-3.69.8-5.54a1.84,1.84,0,0,1,2-1.8c2.43,0,4.85,0,7.28,0,1.36,0,1.83.48,2.05,1.9l1,6.27c0,.21,0,.54.13.6a26.27,26.27,0,0,0,4,1.66c.52.14,1.32-.37,1.88-.76,1.53-1.07,3-2.2,4.49-3.35a1.55,1.55,0,0,1,2.28.14c1.84,1.82,3.67,3.66,5.51,5.49a1.51,1.51,0,0,1,.18,2.25c-1.26,1.66-2.46,3.35-3.74,5-.56.72-.82,1.38-.22,2.18a.76.76,0,0,1,.16.34c.48,3.09,2.81,3.42,5.28,3.61,1.09.08,2.18.32,3.27.48a1.68,1.68,0,0,1,1.58,1.82c0,2.51,0,5,0,7.53a1.89,1.89,0,0,1-1.77,2c-2.05.31-4.12.51-6.16.86a2.09,2.09,0,0,0-1.24,1c-.43.72-.57,1.62-1,2.33-.69,1.07-.35,1.84.36,2.71,1.21,1.48,2.3,3.06,3.48,4.56a1.53,1.53,0,0,1-.09,2.27c-1.85,1.87-3.72,3.73-5.59,5.59a1.48,1.48,0,0,1-2.24.12c-1.63-1.29-3.33-2.49-5-3.76a1.56,1.56,0,0,0-2-.24,2.87,2.87,0,0,1-.93.42c-2.51.35-3,2.14-3.1,4.25-.08,1.31-.32,2.61-.52,3.9a2,2,0,0,1-2.2,1.84C328.37,196.35,327.22,196.33,326.07,196.33Zm-.13-37.78a6.08,6.08,0,0,0-6.22,6.29,6.33,6.33,0,1,0,12.66-.06A6.15,6.15,0,0,0,325.94,158.55Z"/><path class="cls-6" d="M350.71,137.89c-.58,0-1.17,0-1.75,0s-1-.25-1.15-.95c-.15-.92-.29-1.84-.39-2.76a1.33,1.33,0,0,0-.8-1.15,2.34,2.34,0,0,0-3.2.47c-.44.44-1,.74-1.49,1.14a.74.74,0,0,1-1.13-.1q-1.41-1.44-2.85-2.85a.7.7,0,0,1-.08-1c.63-.85,1.25-1.71,1.9-2.54a1.24,1.24,0,0,0,.15-1.18,2.29,2.29,0,0,0-2.59-2,12.49,12.49,0,0,1-1.6-.2c-.75-.09-1.05-.4-1.05-1.13,0-1.21,0-2.43,0-3.64a.91.91,0,0,1,.85-1c1.06-.17,2.13-.35,3.19-.48.38,0,.62-.16.68-.55a.42.42,0,0,1,.08-.18c.85-1.19.54-2.21-.43-3.18a14,14,0,0,1-1.14-1.49.76.76,0,0,1,0-1.11c1-1,1.92-1.94,2.9-2.89a.81.81,0,0,1,1.17,0c.83.63,1.65,1.26,2.5,1.86a1,1,0,0,0,.69.23,10,10,0,0,0,1.91-.8c.19-.1.25-.51.3-.8.15-.94.27-1.88.4-2.82a1,1,0,0,1,1-.92c1.24,0,2.47,0,3.71,0,.7,0,.93.24,1.05,1,.16,1.06.33,2.12.5,3.19,0,.1,0,.28.07.3a12.72,12.72,0,0,0,2,.85c.26.07.67-.19,1-.39.78-.54,1.53-1.12,2.28-1.7a.78.78,0,0,1,1.16.07c.94.92,1.87,1.86,2.81,2.8a.76.76,0,0,1,.09,1.14c-.64.84-1.25,1.71-1.91,2.54-.28.37-.41.71-.1,1.11a.58.58,0,0,1,.08.18c.24,1.57,1.43,1.74,2.68,1.83.56,0,1.11.17,1.67.25a.85.85,0,0,1,.8.93c0,1.27,0,2.55,0,3.83a1,1,0,0,1-.89,1c-1.05.15-2.1.25-3.14.43a1.07,1.07,0,0,0-.64.49c-.22.36-.28.82-.51,1.18a1,1,0,0,0,.18,1.38c.61.76,1.17,1.56,1.77,2.33a.77.77,0,0,1,0,1.15l-2.85,2.85a.75.75,0,0,1-1.14.06c-.83-.66-1.7-1.27-2.54-1.92a.79.79,0,0,0-1-.12,1.28,1.28,0,0,1-.48.21c-1.28.19-1.51,1.1-1.57,2.17-.05.67-.17,1.33-.27,2a1,1,0,0,1-1.12.93C351.88,137.9,351.3,137.89,350.71,137.89Zm-.06-19.24a3.1,3.1,0,0,0-3.17,3.21,3.21,3.21,0,0,0,3.2,3.23,3.25,3.25,0,0,0,3.25-3.26A3.14,3.14,0,0,0,350.65,118.65Z"/><path class="cls-7" d="M290.15,198.44c82.24-45,57.52-150.32,57.52-150.32C294.41,18,240.06,42.59,240.06,42.59S209.8,152.94,284.46,195C285.91,195.78,290.15,198.44,290.15,198.44Z"/><path class="cls-8" d="M290.68,180.55c68-37.2,47.59-124.35,47.59-124.35-44.07-24.94-89-4.57-89-4.57s-25,91.28,36.73,126C287.17,178.35,290.68,180.55,290.68,180.55Z"/><path class="cls-9" d="M329.87,111.34a39,39,0,1,1-33.58-43.72A39,39,0,0,1,329.87,111.34Z"/><path class="cls-10" d="M228.18,33.81C236.39,28,249,2.71,224,.16c-24.49-2.5-20.06,25.49-12,31.41,3.5,2.56,1.78,15.13,1.78,15.13l10,.47S224.37,36.5,228.18,33.81Z"/><path class="cls-11" d="M217.44,47.18c.55-8.7,4.9-17.26,3.26-26.06-.34-1.85-3.37-10.26-6.47-5.92-2.4,3.37.42,8.57,4.21,9.29,4,.76,6.31-3.71,7.35-6.83.78-2.36,2.34-8.77-1.06-10-2.37-.9-3,3.31-3.28,4.79-.53,2.92-1.16,8.1,1.41,10.35s7.45-.48,8.46-3.22c.53-1.42-.28-3-1.9-2.51-2,.58-3.34,3.87-4.16,5.56-4,8.3-5.67,18.24-5.68,27.4,0,.31,1,.4,1,.14a71.84,71.84,0,0,1,2.4-18,41.29,41.29,0,0,1,5-12.35c.37-.56.91-1.59,1.53-1.91,1.73-.89.88,1.73.25,2.57-1,1.4-3.79,3.54-5.64,2.52-2.2-1.21-2.09-5.27-2-7.36s.29-5.24,1.6-7c1.74-2.28,2.06,4.31,1.92,5.39-.4,3.08-1.54,6.6-3.83,8.8-3.74,3.6-7.93-1.52-7.28-5.53a3.57,3.57,0,0,1,1-2.21c1.58-1.12,2.57,1,3.09,2.16A20.3,20.3,0,0,1,220,27.3c-.55,6.69-3.07,13-3.5,19.75,0,.29,1,.4,1,.13Z"/><path class="cls-12" d="M211.43,46.59s-1.13,3.9,2.19,3.9c0,0-2.16,6.55,4.64,6.87,5,.24,4.32-5.49,4.32-5.49s4.74.23,3.23-4.6Z"/><line class="cls-13" x1="213.58" y1="52.51" x2="222.38" y2="52.93"/><line class="cls-13" x1="213.87" y1="54.33" x2="221.96" y2="54.71"/><path class="cls-14" d="M218.42,139.44c0-.92-.21-1.29-1.19-1.46-5.06-.91-10.11-1.92-15.15-2.91a3.66,3.66,0,0,0-1.4,0c-5.09,1-10.18,2-15.29,2.93-.83.16-1.06.48-1,1.29,0,3.6,0,16.69,0,19.71a14.22,14.22,0,0,0,3.8,9.89,36.59,36.59,0,0,0,12.65,8.65,1.19,1.19,0,0,0,1.07.07c5.48-2.5,10.57-5.52,14.19-10.5a12.2,12.2,0,0,0,2.39-7.54C218.33,152.86,218.38,146.15,218.42,139.44Z"/><polyline class="cls-15" points="193.25 155.53 200.03 162.04 211.8 146.62"/><path class="cls-8" d="M107.49,111.91s-13,5-6.78,55.12c0,0-11.48.7-31.3,16.35l2,4.09s28.74-5.69,38.34-15.57c12.17-12.52,19.47-39.59,19.47-39.59S116.19,124.6,107.49,111.91Z"/><path class="cls-7" d="M151.07,127.86c1.28-1.16,15.72,14,11.2,25.61-6.49,16.69-44.75,32.92-44.75,32.92l-2.78-4.4s11.36-11.59,19.71-20.17,21.79-6.26-2.79-18.32-24.17-31.59-24.17-31.59,10.07,14,21.73,20.4S146,132.39,151.07,127.86Z"/><polygon class="cls-16" points="115.15 182.64 109.54 186.86 110.33 189.58 117.07 185.68 115.15 182.64"/><path class="cls-3" d="M109.54,186.86s-2.35-.26-2.4,1.95.13,7,4.87,7.79,7.35,1.34,7.39,0-4.08-1.92-6.52-3.92-2.55-3.1-2.55-3.1Z"/><path class="cls-17" d="M176,110.36c-2.51,2.72-5.88,4.62-11.66,7.29-8.7,4-16.89,15.85-24.18,17.24-13.56,2.58-32.69-23-32.69-23s-3.13-3.83,21.56-20.52S199,73.57,199,73.57s22.36-3,32.57-7.63l2.71,5.11L185.92,94.52c12.59,9.21,37.23,8.65,44.75,8.24a21.62,21.62,0,0,0,0,4.4l-.16.08c-14.4,6.62-29.61,5.56-29.61,5.56l-1.59,0s-22.42.69-29.64-5.91"/><path class="cls-18" d="M200.76,69.08c-.73-1-1.51-.11-1.63-4.52a10.89,10.89,0,0,0-1.82-5.85h0c-7.83-.43-6.44,6.34-7.89,6.87s-2-2.44-3.24-1.57,1,3,0,4.87-3.83,1.35-3.83,1.35h0A11.68,11.68,0,0,1,180.12,75c-5.33,6.6.47,18.54,3.6,18.19s4.17-14.48,9.39-15.76,5.68-5.56,5.68-5.56C200.29,71.4,201.27,69.76,200.76,69.08Z"/><path class="cls-3" d="M186.18,68.88c1-1.91-1.22-4,0-4.87s1.8,2.09,3.24,1.57.06-7.3,7.89-6.87h0c-1.66-2.32-4.55-3.77-9.19-2.38-6.3,1.89-4.42,8.12-5.77,13.9h0S185.22,70.79,186.18,68.88Z"/><path class="cls-19" d="M234,70.58c3.11-1.57,5.34-2.78,5.47-3.07.52-1.22,3.13-3.19,3.13-3.19-.35-5.46-6.09-3.24-7-.8-.33.92-1.88,1.92-3.9,2.8Z"/><path class="cls-19" d="M234,70.58c3.11-1.57,5.34-2.78,5.47-3.07.52-1.22,3.13-3.19,3.13-3.19-.35-5.46-6.09-3.24-7-.8-.33.92-1.88,1.92-3.9,2.8Z"/><path class="cls-20" d="M241.76,104.83s2.23-3.25-.35-4.37c-2-.88-5.41-.8-8.5,2.15,0,0-.81.07-2.23.15a15.37,15.37,0,0,0,0,4.4c.77-.36,1.55-.73,2.31-1.14C233,106,238.4,103,241.76,104.83Z"/><path class="cls-2" d="M222.61,196.62c0,1.48-9.43,2.68-21.06,2.68s-21.05-1.2-21.05-2.68,9.42-2.68,21.05-2.68S222.61,195.14,222.61,196.62Z"/><text class="cls-21" transform="translate(260.14 118.76)"><tspan class="cls-22">F</tspan><tspan class="cls-23" x="13.7" y="0">A</tspan><tspan x="33.7" y="0">Q</tspan></text></g></g></svg>