<svg xmlns="http://www.w3.org/2000/svg" xmlns:xlink="http://www.w3.org/1999/xlink" viewBox="0 0 793 284.49"><defs><style>.cls-1,.cls-5{fill:#fff;}.cls-1{opacity:0.71;}.cls-2,.cls-3{fill:#f0f6d4;}.cls-3{opacity:0.48;}.cls-4{fill:#e4ebaa;}.cls-6{fill:#c3dc4a;}.cls-7{fill:#d2d9a0;}.cls-8{fill:none;stroke:#d2d9a0;stroke-miterlimit:10;}.cls-9{fill:#dbe6f9;}.cls-10{fill:#87a83e;}.cls-11{fill:#465480;}.cls-12{fill:#5e7927;}.cls-13{fill:#454545;}.cls-14{fill:#d36d51;}.cls-15{fill:#f3f3f3;}.cls-16{fill:url(#Nueva_muestra_de_degradado_2);}.cls-17{fill:#96715a;}.cls-18{fill:url(#linear-gradient);}.cls-19{fill:#a68c6b;}.cls-20{fill:url(#linear-gradient-2);}.cls-21{fill:#be5641;}.cls-22{fill:url(#linear-gradient-3);}</style><linearGradient id="Nueva_muestra_de_degradado_2" x1="3962.74" y1="47.07" x2="3948.96" y2="57.62" gradientTransform="matrix(-1, 0, 0, 1, 4405.96, 0)" gradientUnits="userSpaceOnUse"><stop offset="0" stop-color="#465480"/><stop offset="0.97" stop-color="#465480" stop-opacity="0.03"/><stop offset="1" stop-color="#465480" stop-opacity="0"/></linearGradient><linearGradient id="linear-gradient" x1="430.08" y1="42.24" x2="462.03" y2="42.24" gradientUnits="userSpaceOnUse"><stop offset="0" stop-color="#e6d963"/><stop offset="1" stop-color="#e1c561"/></linearGradient><linearGradient id="linear-gradient-2" x1="3945.22" y1="97.35" x2="3972.05" y2="97.35" gradientTransform="matrix(-1, 0, 0, 1, 4405.96, 0)" gradientUnits="userSpaceOnUse"><stop offset="0" stop-color="#d68072"/><stop offset="0.34" stop-color="#d57c6c"/><stop offset="0.81" stop-color="#d4725a"/><stop offset="1" stop-color="#d36d51"/></linearGradient><linearGradient id="linear-gradient-3" x1="3947.58" y1="89.18" x2="4019.84" y2="89.18" xlink:href="#linear-gradient-2"/></defs><title>Asset 12</title><g id="Layer_2" data-name="Layer 2"><g id="Layer_1-2" data-name="Layer 1"><path class="cls-1" d="M743.33,169.8c21.3,9.2,95.36,50.54,8.3,79s-277.77,35.63-277.77,35.63-189.32.65-382.79-8.42,9.68-27.21-1.38-42.12S33,222.28,6.78,212.56s30.14-28.22,60.8-33.69C98,173.83,507.37,67.9,743.33,169.8Z"/><path class="cls-2" d="M651.56,176.72c14.08,6.08,63.09,33.44,5.48,52.3S473.26,252.6,473.26,252.6,348,253,220,247s6.4-18-.92-27.87-37.48-7.72-54.86-14.15,19.95-18.67,40.23-22.29C224.57,179.39,495.43,109.3,651.56,176.72Z"/><polygon class="cls-3" points="264.13 173.43 264.13 58.21 291.54 58.21 291.54 111.97 308.69 111.97 308.69 74.21 315.71 74.21 315.71 23.57 343.71 23.57 343.71 71.2 347.21 71.2 347.21 48.83 375.21 48.83 375.21 87.56 409.28 87.56 409.28 24.54 436.56 24.54 436.56 0 465.06 0 465.06 113.29 489.56 113.29 489.56 48.83 517.57 48.83 517.57 71.2 537.99 71.2 537.99 59.05 565.99 59.05 565.99 112.81 583.14 112.81 583.14 75.05 612.66 75.05 612.66 173.43 264.13 173.43"/><rect class="cls-4" x="539.01" y="121.77" width="65.97" height="50.49" transform="translate(1143.98 294.03) rotate(-180)"/><rect class="cls-5" x="514.68" y="121.77" width="65.97" height="50.49" transform="translate(1095.34 294.03) rotate(-180)"/><polygon class="cls-6" points="580.65 121.77 592.22 95.97 532.01 95.97 514.68 121.77 580.65 121.77"/><polygon class="cls-4" points="604.97 121.77 592.22 95.97 580.65 121.77 604.97 121.77"/><rect class="cls-7" x="567.33" y="128.49" width="7.97" height="16.99"/><rect class="cls-7" x="558.3" y="128.49" width="7.4" height="16.99"/><rect class="cls-7" x="528.58" y="128.49" width="7.97" height="16.99"/><rect class="cls-7" x="519.56" y="128.49" width="7.4" height="16.99"/><rect class="cls-2" x="540.48" y="144.03" width="13.42" height="28.23" transform="translate(1094.38 316.28) rotate(-180)"/><rect class="cls-7" x="566.8" y="149.04" width="8.3" height="18.06" transform="translate(1141.89 316.14) rotate(-180)"/><rect class="cls-7" x="519.15" y="149.04" width="8.3" height="18.06" transform="translate(1046.61 316.14) rotate(-180)"/><rect class="cls-7" x="588.59" y="137.99" width="11.63" height="24.37" transform="translate(1188.82 300.35) rotate(-180)"/><rect class="cls-8" x="548.13" y="146.09" width="3.93" height="8.78" transform="translate(1100.19 300.97) rotate(-180)"/><rect class="cls-8" x="542.23" y="146.09" width="3.93" height="8.78" transform="translate(1088.39 300.97) rotate(-180)"/><rect class="cls-8" x="548.13" y="159.86" width="3.93" height="11.14" transform="translate(1100.19 330.86) rotate(-180)"/><rect class="cls-8" x="542.23" y="159.86" width="3.93" height="11.14" transform="translate(1088.39 330.86) rotate(-180)"/><circle class="cls-9" cx="547.08" cy="157.24" r="0.66"/><rect class="cls-4" x="417.78" y="121.77" width="65.97" height="50.49" transform="translate(901.53 294.03) rotate(-180)"/><rect class="cls-5" x="393.46" y="121.77" width="65.97" height="50.49" transform="translate(852.88 294.03) rotate(-180)"/><polygon class="cls-10" points="459.42 121.77 471 95.97 410.78 95.97 393.46 121.77 459.42 121.77"/><polygon class="cls-4" points="483.75 121.77 471 95.97 459.42 121.77 483.75 121.77"/><rect class="cls-9" x="446.1" y="128.49" width="7.97" height="16.99"/><rect class="cls-9" x="437.07" y="128.49" width="7.4" height="16.99"/><rect class="cls-7" x="407.36" y="128.49" width="7.97" height="16.99"/><rect class="cls-7" x="398.33" y="128.49" width="7.4" height="16.99"/><rect class="cls-2" x="419.25" y="144.03" width="13.42" height="28.23" transform="translate(851.93 316.28) rotate(-180)"/><rect class="cls-2" x="445.57" y="149.04" width="8.3" height="18.06" transform="translate(899.44 316.14) rotate(-180)"/><rect class="cls-7" x="397.93" y="149.04" width="8.3" height="18.06" transform="translate(804.15 316.14) rotate(-180)"/><rect class="cls-7" x="467.37" y="137.99" width="11.63" height="24.37" transform="translate(946.37 300.35) rotate(-180)"/><rect class="cls-8" x="426.9" y="146.09" width="3.93" height="8.78" transform="translate(857.74 300.97) rotate(-180)"/><rect class="cls-8" x="421" y="146.09" width="3.93" height="8.78" transform="translate(845.94 300.97) rotate(-180)"/><rect class="cls-9" x="426.9" y="159.86" width="3.93" height="11.14" transform="translate(857.74 330.86) rotate(-180)"/><rect class="cls-8" x="421" y="159.86" width="3.93" height="11.14" transform="translate(845.94 330.86) rotate(-180)"/><path class="cls-9" d="M425.2,157.24a.66.66,0,0,0,1.31,0,.66.66,0,1,0-1.31,0Z"/><rect class="cls-11" x="254.03" y="172.58" width="362" height="1.68" transform="translate(870.06 346.85) rotate(-180)"/><rect class="cls-4" x="292.12" y="112.58" width="77.97" height="59.68" transform="translate(662.22 284.84) rotate(-180)"/><rect class="cls-5" x="263.37" y="112.58" width="77.97" height="59.68" transform="translate(604.72 284.84) rotate(-180)"/><polygon class="cls-12" points="341.35 112.58 355.02 82.09 283.85 82.09 263.37 112.58 341.35 112.58"/><polygon class="cls-4" points="370.1 112.58 355.02 82.09 341.35 112.58 370.1 112.58"/><rect class="cls-7" x="325.6" y="120.52" width="9.42" height="20.09"/><rect class="cls-7" x="314.93" y="120.52" width="8.75" height="20.09"/><rect class="cls-7" x="279.8" y="120.52" width="9.42" height="20.09"/><rect class="cls-7" x="269.13" y="120.52" width="8.75" height="20.09"/><rect class="cls-2" x="293.86" y="138.89" width="15.86" height="33.37" transform="translate(603.59 311.15) rotate(-180)"/><rect class="cls-7" x="324.97" y="144.82" width="9.81" height="21.34" transform="translate(659.75 310.98) rotate(-180)"/><rect class="cls-7" x="268.65" y="144.82" width="9.81" height="21.34" transform="translate(547.12 310.98) rotate(-180)"/><rect class="cls-7" x="350.73" y="131.75" width="13.75" height="28.81" transform="translate(715.22 292.31) rotate(-180)"/><rect class="cls-8" x="302.9" y="141.33" width="4.65" height="10.38" transform="translate(610.46 293.05) rotate(-180)"/><rect class="cls-8" x="295.93" y="141.33" width="4.65" height="10.38" transform="translate(596.51 293.05) rotate(-180)"/><rect class="cls-8" x="302.9" y="157.6" width="4.65" height="13.17" transform="translate(610.46 328.37) rotate(-180)"/><rect class="cls-8" x="295.93" y="157.6" width="4.65" height="13.17" transform="translate(596.51 328.37) rotate(-180)"/><path class="cls-8" d="M300.89,154.5a.78.78,0,1,0,.77-.77A.78.78,0,0,0,300.89,154.5Z"/><ellipse class="cls-7" cx="438.4" cy="236.73" rx="101.03" ry="8.06"/><polygon class="cls-5" points="494.95 213.68 498.61 219.06 501.69 216.98 497.67 209.64 494.87 212.17 494.95 213.68"/><polygon class="cls-5" points="494.95 213.68 498.61 219.06 501.69 216.98 497.67 209.64 494.87 212.17 494.95 213.68"/><path class="cls-13" d="M500.77,215.17l-2.31,3.77L497.61,235a1.7,1.7,0,0,0,1.22,1.61c1.22.32,4.37-19.21,4.37-19.21Z"/><polygon class="cls-5" points="404.14 230.91 401.83 236.99 405.3 238.32 409.01 230.82 405.33 229.97 404.14 230.91"/><polygon class="cls-12" points="435.9 128.78 453.59 177.61 494.54 214.96 499.78 211.7 467.26 172.68 455.61 127.88 435.9 128.78"/><polygon class="cls-11" points="437.87 124.81 402.85 231.31 408.53 233.73 455.47 131.1 437.87 124.81"/><path class="cls-11" d="M405.88,237.13,388,231.53a1.7,1.7,0,0,0-1.82.89c-.55,1.13,18,8,18,8Z"/><polygon class="cls-5" points="404.14 230.91 401.83 236.99 405.3 238.32 409.01 230.82 405.33 229.97 404.14 230.91"/><polygon class="cls-10" points="435.45 128.56 402.85 231.31 408.53 233.73 456.54 127.59 435.45 128.56"/><path class="cls-13" d="M405.88,237.13,388,231.53a1.7,1.7,0,0,0-1.82.89c-.55,1.13,18,8,18,8Z"/><path class="cls-14" d="M448.31,75.57,419.86,88l-32-8.27-3.53,7.14,30.75,11.74a15.59,15.59,0,0,0,11.46-.13L455.14,86.8s5.22-3.6,2.57-9.14S448.31,75.57,448.31,75.57Z"/><path class="cls-15" d="M451.44,73.62a82.4,82.4,0,0,1,8.65-1.78c-3.34-9.79,0-20.45.14-30.79a4.77,4.77,0,0,0-.34-2.19,3.71,3.71,0,0,0-2.62-1.74c-4.53-1-9,2.77-10.47,7.16-1.71,5.07,2.21,7.34,3.15,12.4C450.18,57.89,451.69,73.56,451.44,73.62Z"/><path class="cls-16" d="M448.55,52.78l5.23-2.47,5.74-1.7-.22,3.77c-.06.5-.11,1-.17,1.51-.83,3.72-6.44,8.31-8.43,9.84-.33-3.42-.65-6.54-.75-7A14.34,14.34,0,0,0,448.55,52.78Z"/><rect class="cls-17" x="362.34" y="48.81" width="42.8" height="41.58" transform="translate(767.49 139.2) rotate(-180)"/><rect class="cls-17" x="380.79" y="48.81" width="5.91" height="9.1" transform="translate(767.49 106.72) rotate(-180)"/><rect class="cls-17" x="367.72" y="28.97" width="32.06" height="20.08"/><rect class="cls-17" x="380.79" y="28.97" width="5.91" height="9.1" transform="translate(767.49 67.04) rotate(-180)"/><polygon class="cls-14" points="460.52 66.89 460.16 60.51 447.03 68.16 448.46 74.48 460.52 66.89"/><path class="cls-18" d="M430.66,45.65c.62-.81,1.52-1.36,2.19-2.14,1.55-1.79,1.59-4.38,1.9-6.73C435.94,28,445.05,21.1,452.14,24c1.7.71,3.2-.37,4.84.48a8.91,8.91,0,0,1,2.58,1.77,8.21,8.21,0,0,1,1.67,3.52c2.25,8.6-.46,18-5.74,25.13-2.05,2.78-4.71,5.4-8.1,6.05a9.8,9.8,0,0,1-7.83-2.16,12.28,12.28,0,0,1-2.42-2.76c1.68-1.87,4.06-5.23,4.06-5.23s-3.49,1-5.77,1.57c-.06-.2-.15-.4-.2-.61A3.81,3.81,0,0,0,434,49.44c-1-.67-2.6-.13-3.48-1A2.21,2.21,0,0,1,430.66,45.65Z"/><rect class="cls-19" x="353.58" y="48.81" width="42.8" height="41.58" transform="translate(749.97 139.2) rotate(-180)"/><rect class="cls-14" x="372.03" y="48.81" width="5.91" height="9.1" transform="translate(749.97 106.72) rotate(-180)"/><path class="cls-13" d="M454.39,38.45a3.21,3.21,0,0,1,3.12,2.39c.56,2.39-1.71,4.41-3.72,5.81,1.12,2.25,4.58,4.22,5.46,6.56,1.37-2.56.29-4.8,1.66-7.36A45.94,45.94,0,0,0,465,36.48c.89-3.3,1.35-3.17,0-6.3-2.1-4.79-7.43-7.62-12.66-7.81s-10.3,1.89-14.71,4.69a2.9,2.9,0,0,0-1.43,1.52,3.2,3.2,0,0,0,.26,1.84c1.14,3.51,1.07,3.88,3.85,6.31a11.52,11.52,0,0,0,3.47,1.91c1.81.7,4.51,2,6.5,1.92C452.1,40.49,452.37,38.52,454.39,38.45Z"/><path class="cls-10" d="M436.46,42.46c0,.8.2,1.45.45,1.45s.46-.65.46-1.45-.2-1.46-.46-1.46S436.46,41.65,436.46,42.46Z"/><path class="cls-20" d="M456.57,127.84,435,129.13s-3.36-27.24,1.92-43.92c4.22-11.82,23.86-19.63,23.86-19.63Z"/><path class="cls-21" d="M436.53,86.37c3.26-2.23,5.63-3.82,6-3.93C443.64,82.06,458.2,79,458.2,79s-8.86,26.69-24,40.55C435.12,109.1,432.51,95.13,436.53,86.37Z"/><polygon class="cls-5" points="390.44 91.72 384.38 89.17 385.5 85.67 383.71 79.62 382.06 80 382.57 83.95 372.75 78.65 372.08 79.5 377.01 84.05 369.81 80.07 369.05 81.3 375.69 85.48 369.9 84.23 369.44 85.61 374.92 87.39 370.95 87.17 370.76 88.02 389.83 95.29 390.44 91.72"/><polygon class="cls-11" points="388.46 89.72 385.9 89.44 384.3 95.22 388.08 95.97 388.46 89.72"/><rect class="cls-19" x="358.96" y="28.97" width="32.06" height="20.08"/><rect class="cls-14" x="372.03" y="28.97" width="5.91" height="9.1" transform="translate(749.97 67.04) rotate(-180)"/><path class="cls-12" d="M464.48,39.58l-43.15-9.7s.54-2.37,2.37-2.19S435,29,435,29s8.93-10.21,9.84-10.21,12.58-1.64,16.23.73,6.38,9.85,6.38,9.85Z"/><path class="cls-10" d="M436.19,27.62c2.45-2.76,7.95-8.87,8.65-8.87l.84-.06,2.95,2.36s-3.89,7.69-4.24,7.92S439.19,28.21,436.19,27.62Z"/><path class="cls-21" d="M458.2,79s-8.86,26.69-24,40.55c0-6.73-1.68-24.41,2.34-33.17"/><path class="cls-14" d="M458.2,79s-8.86,26.69-24,40.55c-.84-5.89-1.68-24.41,2.34-33.17"/><path class="cls-22" d="M447.44,75.91,421.36,92.73l-32.9-3-2.34,7.61L418.36,104a15.62,15.62,0,0,0,11.29-2L456,85.9s4.58-4.4,1.06-9.44S447.44,75.91,447.44,75.91Z"/></g></g></svg>