<svg xmlns="http://www.w3.org/2000/svg" xmlns:xlink="http://www.w3.org/1999/xlink" viewBox="0 0 259 207"><defs><style>.cls-1{fill:#edb99e;}.cls-2{opacity:0.2;}.cls-3{fill:#87a83e;}.cls-4{fill:#82922f;}.cls-5{fill:#5d6923;}.cls-6{fill:#526820;}.cls-7{fill:#c3dc4a;}.cls-8{fill:#ecce82;}.cls-9{fill:#606b24;}.cls-10{fill:#f0f6d4;}.cls-11{clip-path:url(#clip-path);}.cls-12{fill:#182543;}.cls-13{fill:#5e7927;}.cls-14{fill:#d2d9a0;}.cls-15{fill:#222023;}.cls-16{fill:#be5641;}.cls-17{fill:#ce5943;}.cls-18{fill:#eaf2ff;}.cls-19{fill:#d36d51;}</style><clipPath id="clip-path"><circle class="cls-1" cx="97.85" cy="40.29" r="6.96" transform="translate(-7.05 54.25) rotate(-29.96)"/></clipPath></defs><title>Asset 10</title><g id="Layer_2" data-name="Layer 2"><g id="Layer_1-2" data-name="Layer 1"><g class="cls-2"><path class="cls-3" d="M81.59,72.78,78.38,74.7A1.56,1.56,0,0,0,78,77l.76.92a1.57,1.57,0,0,1,.13,1.82L77.35,82.2a1.57,1.57,0,0,0,0,1.68l1.24,1.89a1.56,1.56,0,0,0,2.16.44l2.79-1.86A1.55,1.55,0,0,1,85,84.2l6.85,2.7a1.47,1.47,0,0,1,.71.57L96.27,93a1.57,1.57,0,0,1,.17,1.44l-1.81,4.67a1.55,1.55,0,0,0,.55,1.83l5.95,4.2a1.67,1.67,0,0,1,.43.45l4,6.47a1.6,1.6,0,0,0,.8.65l10.18,3.62a1.55,1.55,0,0,1,.81,2.27l-1.5,2.47a1.55,1.55,0,0,0,0,1.56l2.29,4.1a1.53,1.53,0,0,0,.64.62l2.7,1.41a1.56,1.56,0,0,1,.67,2.06l-4.16,8.5a1.61,1.61,0,0,0-.11,1.08l1.88,7.18a1.56,1.56,0,0,0,1.5,1.16h0a1.56,1.56,0,0,0,1.56-1.56v-5.46a1.56,1.56,0,0,1,.67-1.28l11-7.62a1.59,1.59,0,0,0,.66-1.06l1.17-8.2a1.56,1.56,0,0,0-1.29-1.76l-3.92-.65a1.56,1.56,0,0,1-1.22-1.06l-1.39-4.32a1.54,1.54,0,0,0-.91-1l-4.3-1.69a1.55,1.55,0,0,0-1.67.35l-.78.78a1.56,1.56,0,0,1-1.85.26l-6.53-3.61a1.63,1.63,0,0,1-.7-.79l-.89-2.29a1.56,1.56,0,0,1,1.4-2.12l4.55-.12a1.56,1.56,0,0,0,1.43-1L120,99.41a1.57,1.57,0,0,1,.92-1l6.66-2.54a1.56,1.56,0,0,0,.86-2.1L125,86.19a1.58,1.58,0,0,0-.9-.82l-5-1.76a1.55,1.55,0,0,0-2,1.06l-.82,3a1.57,1.57,0,0,1-1.07,1.09l-1.2.34a1.54,1.54,0,0,1-1.57-.45l-2.89-3.15a1.56,1.56,0,0,1,.16-2.26l3.27-2.63a1.57,1.57,0,0,0,.42-1.89L112,76a1.56,1.56,0,0,0-2.1-.71l-4,2A1.59,1.59,0,0,1,104.2,77L100,73.09a1.56,1.56,0,0,0-1.56-.33l-5.48,1.89a1.5,1.5,0,0,1-.84,0L82.73,72.6A1.56,1.56,0,0,0,81.59,72.78Z"/><path class="cls-3" d="M152.89,102.13l-7.44,5.67a2.21,2.21,0,0,0-.86,1.75v3a2.18,2.18,0,0,0,1,1.85l4.55,2.88a2.17,2.17,0,0,0,1.68.28l1.79-.43a2.2,2.2,0,0,1,2.66,2.62l-.06.22a2.2,2.2,0,0,0,1.33,2.53l.84.34a2.19,2.19,0,0,1,.92,3.38h0a2.18,2.18,0,0,0-.38,1.94l1.81,6.37a2.2,2.2,0,0,0,1.62,1.54l2.64.61a2.2,2.2,0,0,0,2.41-1.06l4.39-7.81a2.21,2.21,0,0,0,.13-1.88c-.66-1.69-1.88-5.08-1.09-5.4s3.52-1.47,5.22-2.19a2.18,2.18,0,0,0,1.34-2v-.8a2.19,2.19,0,0,0-2.19-2.19h-2.69a2.2,2.2,0,0,1-2-1.36l-2.27-5.54a2.2,2.2,0,0,0-2-1.36h-4.06a2.2,2.2,0,0,1-1.79-.93l-1.06-1.52a2.19,2.19,0,0,0-1.8-.94h-3.27A2.22,2.22,0,0,0,152.89,102.13Z"/><path class="cls-3" d="M164.19,74.11l-5.35,6.77a1,1,0,0,1-.52.36L154,82.54a1.08,1.08,0,0,0-.73,1.28l1,4.14a1.06,1.06,0,0,0,1,.81h4.32a1,1,0,0,0,.88-.48l3.23-4.84a1.07,1.07,0,0,1,1.61-.19l1.3,1.22a1,1,0,0,1,.09,1.46L163,90.4a1,1,0,0,1-.57.35l-7.62,1.76a1.07,1.07,0,0,0-.51.28l-2.45,2.45a1,1,0,0,0-.21,1.18l1.13,2.52a1.07,1.07,0,0,0,1.48.5L158.66,97a1.05,1.05,0,0,1,1.31.23l3.06,3.47a1.06,1.06,0,0,0,1.62,0l4-4.91a1.06,1.06,0,0,1,1.3-.29l3.63,1.82a1.07,1.07,0,0,1,.58,1.1l-.84,5.87a1.07,1.07,0,0,0,.6,1.12l5.43,2.53a1.13,1.13,0,0,0,.44.1h5a1.07,1.07,0,0,1,1,.69l2.75,7.41a1.06,1.06,0,0,0,1.37.63l1.14-.43a1.06,1.06,0,0,0,.51-1.58l-1.31-2a1.07,1.07,0,0,1,.13-1.35l3.06-3a1.06,1.06,0,0,1,1.26-.19l3.53,1.92a1.06,1.06,0,0,1,.47,1.35l-.62,1.44a1.08,1.08,0,0,0,.19,1.14l1.71,1.86a1.07,1.07,0,0,1,.23.4l.17.53a1.07,1.07,0,0,0,2,.14h0a1.06,1.06,0,0,0-.2-1.22l-1.35-1.34a1.07,1.07,0,0,1-.27-1.06l.9-3a1.08,1.08,0,0,1,.84-.74l5.71-1a1.07,1.07,0,0,0,.87-1.23l-1.17-6.71a1.06,1.06,0,0,1,.49-1.09l4.63-2.84a1.1,1.1,0,0,1,.56-.16h4.28a1.05,1.05,0,0,0,1-.66l1.36-3.32a1.07,1.07,0,0,0-.28-1.19l-3.09-2.79a1.07,1.07,0,0,1-.06-1.52l1.86-2a1.06,1.06,0,0,1,1.31-.19l2.6,1.5a1.06,1.06,0,0,0,1.27-.15l1.19-1.14a1.06,1.06,0,0,1,1.74,1.1l-.21.63a1,1,0,0,1-.48.59l-1.55.89a1.05,1.05,0,0,0-.32,1.56l1.47,1.92a1,1,0,0,0,1.34.29l4.69-2.5a1.06,1.06,0,0,0,.48-1.36l-1.24-2.85a1.06,1.06,0,0,1,.68-1.45l5.24-1.47a1.07,1.07,0,0,0,.58-.42l2.07-2.95a1.06,1.06,0,0,0-.35-1.54l-6.26-3.46a1.07,1.07,0,0,0-1.32.24L229.91,76a1.06,1.06,0,0,1-1.4.19L220.81,71a1.09,1.09,0,0,0-.88-.14l-5.1,1.46a1.05,1.05,0,0,1-.7,0l-6.68-2.78a1.08,1.08,0,0,1-.65-.91l-.33-4.6a1.07,1.07,0,0,0-.67-.92L202,61.64a1.08,1.08,0,0,0-.94.08l-7.69,4.61a1.06,1.06,0,0,0-.45.57l-2.19,6.39a1.06,1.06,0,0,1-.92.71l-6.95.56a1.2,1.2,0,0,0-.37.1l-7.63,3.63a1.05,1.05,0,0,1-1.19-.2l-4.44-4.25a1.09,1.09,0,0,0-.79-.3l-3.5.17A1.06,1.06,0,0,0,164.19,74.11Z"/><path class="cls-3" d="M213.63,125.78l-2.79,2.73a1.46,1.46,0,0,1-1,.41h-2.92a1.46,1.46,0,0,0-1.4,1.06l-.43,1.55a1.45,1.45,0,0,0,.62,1.63l.48.3a1.44,1.44,0,0,1,.58,1.72l-.06.17a1.46,1.46,0,0,0,.87,1.86h0A1.46,1.46,0,0,0,209,137l2.64-2.2a1.44,1.44,0,0,1,1.2-.31l2.17.41a1.41,1.41,0,0,1,.82.48l2.74,3.16a1.43,1.43,0,0,0,1.27.49l1.8-.22a1.42,1.42,0,0,0,1.06-.68,25.15,25.15,0,0,0,1.93-3.45c-.06-.2-1.18-2.66-1.55-3.48a1.28,1.28,0,0,0-.32-.45l-2.62-2.49a1.4,1.4,0,0,1-.43-.8l-.18-1a1.47,1.47,0,0,0-1.44-1.2h-.36a1.43,1.43,0,0,0-.61.14l-.42.19a1.44,1.44,0,0,1-1,.08l-.66-.18A1.44,1.44,0,0,0,213.63,125.78Z"/><path class="cls-4" d="M206.07,117.36l-1.2,1.38a.39.39,0,0,1-.22.11l-2.27.21a.32.32,0,0,0-.26.46l1,2.22a.34.34,0,0,0,.35.18l2.19-.35a.32.32,0,0,0,.26-.24l.22-.9a.33.33,0,0,1,.27-.25l.93-.14a.32.32,0,0,0,.28-.32V119a.32.32,0,0,0-.22-.31l-.26-.08a.33.33,0,0,1-.08-.59h0a.33.33,0,0,0-.07-.58l-.59-.19A.31.31,0,0,0,206.07,117.36Z"/><path class="cls-4" d="M196.78,116.72h.65a.48.48,0,0,1,.48.41l.23,1.38a.43.43,0,0,0,.15.28l2.81,2.59a.49.49,0,0,1,.1.6l-.35.61a.49.49,0,0,1-.76.11l-2.33-2.16a.43.43,0,0,1-.15-.28l-.24-1.37a.49.49,0,0,0-.36-.4l-.47-.12a.49.49,0,0,1-.36-.56l.11-.68A.49.49,0,0,1,196.78,116.72Z"/><path class="cls-4" d="M201.82,122.41l-.1.16a.37.37,0,0,0,.32.56h0a.37.37,0,0,1,.33.19l.11.19a.37.37,0,0,0,.32.2h2.7a.37.37,0,0,0,.31-.17h0a.37.37,0,0,0-.31-.57h0a.38.38,0,0,1-.36-.3l0-.15a.37.37,0,0,0-.36-.29h-2.62A.33.33,0,0,0,201.82,122.41Z"/><path class="cls-5" d="M206.9,123.33h0a.39.39,0,0,0,.19.54l.25.09a.39.39,0,0,0,.47-.16l.06-.09a.38.38,0,0,0-.33-.58h-.31A.35.35,0,0,0,206.9,123.33Z"/><path class="cls-6" d="M209.44,123.53v.11a.44.44,0,0,0,.44.44h.68a.45.45,0,0,0,.19,0l.41-.2a.44.44,0,0,0,.24-.39h0a.44.44,0,0,0-.47-.44l-1.09.09A.44.44,0,0,0,209.44,123.53Z"/><path class="cls-6" d="M208.14,119.61l-.45,1.35a.31.31,0,0,1-.2.2l-.59.2a.3.3,0,0,0-.21.3v.07a.3.3,0,0,0,.21.3l.34.12a.33.33,0,0,1,.22.3v.25h.76a.32.32,0,0,0,.32-.32h0a.32.32,0,0,1,.41-.3l.21.06a.31.31,0,0,0,.39-.19l0-.08a.31.31,0,0,0-.22-.42l-.2-.06a.32.32,0,0,1-.23-.33l0-.22a.31.31,0,0,1,.27-.29l.53-.08a.32.32,0,0,0,.27-.32v-.29a.31.31,0,0,0-.28-.31l-1.26-.15A.32.32,0,0,0,208.14,119.61Z"/><path class="cls-4" d="M213.29,119.4l-.95.43a.35.35,0,0,0-.2.31h0a.34.34,0,0,0,.34.34h0a.33.33,0,0,1,.32.24l.11.37a.37.37,0,0,0,.24.23l1.2.29a.34.34,0,0,1,.25.42l-.26.91a.34.34,0,0,0,.09.33l.73.73a.34.34,0,0,0,.2.09l1.88.24a.33.33,0,0,0,.22,0l1-.66a.36.36,0,0,1,.32,0l.82.35a.34.34,0,0,0,.45-.21l.11-.33A.34.34,0,0,0,220,123l-1.35-.72a.32.32,0,0,1-.14-.14l-.49-.92a.34.34,0,0,0-.3-.18h-2a.34.34,0,0,1-.29-.16l-.13-.22a.35.35,0,0,0-.4-.14l-.4.12a.33.33,0,0,1-.43-.24l-.18-.76a.33.33,0,0,0-.32-.26h-.14A.35.35,0,0,0,213.29,119.4Z"/><path class="cls-6" d="M208.06,112.2l-.47.27a.22.22,0,0,0-.12.22l.14,1.19a.21.21,0,0,0,.3.18l.6-.25a.22.22,0,0,0,.14-.2v-.89a.24.24,0,0,0-.05-.14l-.26-.32A.23.23,0,0,0,208.06,112.2Z"/><path class="cls-6" d="M208.8,115l-.3.1a.33.33,0,0,0-.23.37l0,.11a.33.33,0,0,0,.41.26l.34-.08a.33.33,0,0,0,.21-.47l-.05-.12A.36.36,0,0,0,208.8,115Z"/><path class="cls-6" d="M210.44,116.44l-.73.2a.38.38,0,0,0-.27.36v.27a.37.37,0,0,0,.16.3l.68.48a.36.36,0,0,0,.3.06L211,118a.37.37,0,0,0,.27-.51l-.34-.86A.38.38,0,0,0,210.44,116.44Z"/><path class="cls-3" d="M129,48.48l-5.34,3.43a2.09,2.09,0,0,0-1,1.54l-1,8.38a2.11,2.11,0,0,0,1.65,2.3l2.2.48a2.13,2.13,0,0,1,1.46,1.18l3.07,6.6a2.14,2.14,0,0,1-.42,2.39l-1.44,1.44A2.1,2.1,0,0,0,128,78.8l3.42,5.66a2.11,2.11,0,0,0,2.33,1l.45-.11a2.12,2.12,0,0,0,1.42-2.87l-.36-.86a2.11,2.11,0,0,1,1.44-2.87l4-1A2.09,2.09,0,0,0,142.26,76l.88-5.61a1.27,1.27,0,0,1,.06-.28l3.05-10.3a2.11,2.11,0,0,0-.18-1.61l-.79-1.46a2.09,2.09,0,0,1,.23-2.36l1-1.23a2.12,2.12,0,0,0-.13-2.85h0a2.11,2.11,0,0,0-2.34-.44l-1.7.75a2.11,2.11,0,0,1-2.83-1.21l-.47-1.27a2.12,2.12,0,0,0-2-1.39h-4.6a2.12,2.12,0,0,0-1.1.31Z"/><path class="cls-6" d="M110.68,51.17l-1.22,1.08a2.69,2.69,0,0,0-.23,3.81h0a2.7,2.7,0,0,1,.64,2.31l-.15.74a2.71,2.71,0,0,0,1,2.62l1.95,1.55a2.55,2.55,0,0,0,.79.44h0a2.7,2.7,0,0,0,3.49-1.82l.28-1a2.68,2.68,0,0,0,0-1.56l-.37-1.11a2.69,2.69,0,0,1,1.56-3.35l1.12-.45a2.65,2.65,0,0,0,1.61-1.85l.77-3.13a2.69,2.69,0,0,0-2-3.27l-.37-.08a2.69,2.69,0,0,0-3,1.4l-.8,1.54a2.66,2.66,0,0,1-2.27,1.45l-1.07,0A2.75,2.75,0,0,0,110.68,51.17Z"/><path class="cls-6" d="M98.89,61.78l-1.16,1.39a.9.9,0,0,0,0,1.14l1,1.38a.92.92,0,0,0,1.1.29l2.25-1a.91.91,0,0,0,.51-1.1l-.53-1.79a.92.92,0,0,0-.88-.66H99.59A.92.92,0,0,0,98.89,61.78Z"/><path class="cls-4" d="M107.07,65.11l-1.62,2a.32.32,0,0,0,.1.49l.94.5a.34.34,0,0,0,.36,0l1.2-1.06a.31.31,0,0,0,.09-.35l-.52-1.41A.32.32,0,0,0,107.07,65.11Z"/><path class="cls-6" d="M115.09,67.55,114,68a.71.71,0,0,0-.42.64v.75a.7.7,0,0,0,.78.69l1.56-.19a.69.69,0,0,0,.53-1l-.51-1A.7.7,0,0,0,115.09,67.55Z"/><path class="cls-6" d="M111.81,97.08l-2.43,1a1.63,1.63,0,0,0-1,1.49v1.72a1.61,1.61,0,0,0,1.8,1.6l3.62-.43a1.61,1.61,0,0,0,1.24-2.34l-1.19-2.32A1.62,1.62,0,0,0,111.81,97.08Z"/><path class="cls-4" d="M116,72.15l-1.44,1.37a.68.68,0,0,0-.16.69l.24.74a.66.66,0,0,0,1.09.25l.88-.88a.66.66,0,0,1,.79-.1L120,75.68a.64.64,0,0,1,.29.8l-.66,1.71a.58.58,0,0,1-.31.34l-1.56.82a.64.64,0,0,0-.36.58v.5a.66.66,0,0,0,.87.63l1.08-.37a.65.65,0,0,1,.82.37l.56,1.39a.65.65,0,0,0,.61.41h1.56a.66.66,0,0,0,.62-.88l-1.35-3.72a.67.67,0,0,1,0-.48h0a.66.66,0,0,1,1.06-.21l.63.6a.65.65,0,0,0,1-.2l.25-.54a.66.66,0,0,0-.25-.83l-3.09-1.93a.64.64,0,0,1-.29-.41l-.34-1.46a.68.68,0,0,0-.4-.47L119,71.64a.68.68,0,0,1-.4-.46l-.12-.51a.65.65,0,0,0-.64-.51H117a.67.67,0,0,0-.66.57l-.13,1A.7.7,0,0,1,116,72.15Z"/><path class="cls-6" d="M96.9,67.3h.7a.74.74,0,0,1,.66.41l.31.61a.72.72,0,0,0,.65.41h0a.73.73,0,0,1,.55,1.21l-1.83,2.11a.74.74,0,0,1-.86.18l-1-.44a.73.73,0,0,1-.3-1.07l.41-.61a.73.73,0,0,0,.11-.5l-.18-1.49A.74.74,0,0,1,96.9,67.3Z"/><path class="cls-6" d="M176.52,83.74V81.45A1.46,1.46,0,0,0,175.06,80h-1.49a1.44,1.44,0,0,0-.62.13l-3.46,1.6a1.46,1.46,0,0,0-.85,1.33v2a1.47,1.47,0,0,0,1.47,1.47h0A1.46,1.46,0,0,1,171.57,88v2.55a1.49,1.49,0,0,0,.64,1.22l3.14,2.12a1.49,1.49,0,0,0,.82.25h1a1.46,1.46,0,0,0,1.46-1.46V86.86a1.49,1.49,0,0,0-.51-1.12L177,84.86A1.47,1.47,0,0,1,176.52,83.74Z"/><path class="cls-7" d="M162.91,108.92h3.19a2,2,0,0,1,2,2V113a2.11,2.11,0,0,1-.19.86l-2.23,4.81a2,2,0,0,1-1.85,1.18H161.1a2,2,0,0,1-2-2h0a2,2,0,0,0-2-2h-3.56a2,2,0,0,1-1.68-.89l-3-4.37a2.12,2.12,0,0,1-.35-1.14v-1.35a2,2,0,0,1,2-2h8a2.05,2.05,0,0,1,1.56.73l1.23,1.45A2,2,0,0,0,162.91,108.92Z"/><path class="cls-6" d="M183.62,101.22h1.69a.26.26,0,0,1,.19.07l1.37,1a.32.32,0,0,1,.13.28l-.06,1.72a.33.33,0,0,1-.33.32h-1.08a.33.33,0,0,1-.33-.33v-1a.32.32,0,0,0-.09-.23l-.51-.56a.32.32,0,0,0-.24-.11h-.74a.34.34,0,0,1-.34-.34v-.48A.34.34,0,0,1,183.62,101.22Z"/><path class="cls-6" d="M186.22,77.71h3.06a1.46,1.46,0,0,1,1.46,1.46v.37A1.46,1.46,0,0,0,192.2,81h1.62a1.46,1.46,0,0,1,1.46,1.46V86.6a1.5,1.5,0,0,1-.28.87l-2.3,3.1a1.45,1.45,0,0,1-1.17.59h-2.39a1.46,1.46,0,0,1-1.46-1.46V87.36a1.47,1.47,0,0,0-1.46-1.46h0a1.46,1.46,0,0,1-1.46-1.46V79.17A1.46,1.46,0,0,1,186.22,77.71Z"/><path class="cls-6" d="M107.52,86.85,105.35,89a1.47,1.47,0,0,1-2.07,0l-.26-.27a1.47,1.47,0,0,0-2.07,0L99.81,89.9a1.47,1.47,0,0,1-2.07,0L94.82,87a1.44,1.44,0,0,1-.42-.82l-.56-3.81a1.45,1.45,0,0,1,.41-1.25l1.69-1.69a1.45,1.45,0,0,1,2.06,0l1.65,1.65a1.47,1.47,0,0,0,2.07,0h0a1.45,1.45,0,0,1,2.06,0l3.74,3.73A1.47,1.47,0,0,1,107.52,86.85Z"/><path class="cls-7" d="M177.41,96.87v5.37a1.28,1.28,0,0,0,1.28,1.28h1.75a1.28,1.28,0,0,0,1.28-1.28v-2.09A1.29,1.29,0,0,1,183,98.86h.46a1.28,1.28,0,0,0,1.29-1.28v-.71a1.28,1.28,0,0,0-1.29-1.28h-4.78A1.28,1.28,0,0,0,177.41,96.87Z"/><path class="cls-7" d="M105.76,108.67l1.61.19a.42.42,0,0,1,.33.21l1.37,2.37a.43.43,0,0,0,.57.17h0a.43.43,0,0,0,.2-.56l-.72-1.56a.44.44,0,0,1,0-.43l.29-.41a.42.42,0,0,0,0-.51l-.87-1.15a.45.45,0,0,0-.42-.16l-2,.36a.43.43,0,0,1-.42-.16l-1.3-1.7a.43.43,0,0,0-.66,0l0,0a.44.44,0,0,0,0,.54l1.79,2.63A.42.42,0,0,0,105.76,108.67Z"/><path class="cls-6" d="M163.17,131.92h.11a1.15,1.15,0,0,1,1.15,1.14h0a1.14,1.14,0,0,0,1.15,1.15h1.54a1.15,1.15,0,0,0,1.15-1.15v-1.35a1.17,1.17,0,0,0-.5-1l-2.33-1.61a1.1,1.1,0,0,0-.65-.21h-1.62a1.16,1.16,0,0,0-1.15,1.15v.68A1.16,1.16,0,0,0,163.17,131.92Z"/><path class="cls-7" d="M126.86,124.52h-.11a1.14,1.14,0,0,1-1.15-1.15h0a1.15,1.15,0,0,0-1.15-1.14h-1.54a1.14,1.14,0,0,0-1.15,1.14v1.36a1.16,1.16,0,0,0,.49,1l2.34,1.61a1.17,1.17,0,0,0,.65.21h1.62a1.16,1.16,0,0,0,1.15-1.15v-.68A1.16,1.16,0,0,0,126.86,124.52Z"/><path class="cls-8" d="M170.81,115.76l.79.8a.31.31,0,0,1,.09.22v.68a.32.32,0,0,1-.43.3l-1.35-.48a.33.33,0,0,1-.22-.31v-.24a.33.33,0,0,0-.26-.32l-.53-.11a.32.32,0,0,1-.26-.32h0a.32.32,0,0,1,.33-.32h1.61A.29.29,0,0,1,170.81,115.76Z"/><path class="cls-6" d="M163.72,120.71l1.73,1.76a.75.75,0,0,1,.21.5v1.49a.72.72,0,0,1-1,.67l-3-1.06a.74.74,0,0,1-.47-.68v-.53a.72.72,0,0,0-.57-.7l-1.17-.25a.72.72,0,0,1-.57-.7h0a.71.71,0,0,1,.72-.71h3.55A.68.68,0,0,1,163.72,120.71Z"/><path class="cls-6" d="M209.84,133.1l1.35-.1a.33.33,0,0,1,.36.28h0a.34.34,0,0,1-.28.41l-1.31.24a.4.4,0,0,1-.19,0l-1.06-.42a.35.35,0,0,1-.18-.49l0-.07a.36.36,0,0,1,.44-.15l.67.29A.22.22,0,0,0,209.84,133.1Z"/><path class="cls-6" d="M218.79,131.37v.06a.43.43,0,0,0,.29.41l.67.22a.43.43,0,0,1,.29.41v1.3a.42.42,0,0,0,.16.33l.3.26a.41.41,0,0,1,.15.33v1.46a.42.42,0,0,0,.15.32l.17.16a.41.41,0,0,0,.45.07l.87-.36a.43.43,0,0,0,.17-.68l-.09-.1a.41.41,0,0,1-.1-.21l-.21-1.15a.52.52,0,0,1,0-.25l.27-.62a.42.42,0,0,0,0-.39l-1.07-1.86a.37.37,0,0,1-.05-.11l-.13-.55a.44.44,0,0,0-.42-.33h-.29a.42.42,0,0,0-.42.37h0a.44.44,0,0,1-.33.35l-.52.14A.42.42,0,0,0,218.79,131.37Z"/><path class="cls-8" d="M167.84,123l.8-.18a.3.3,0,0,1,.33.15l.2.33a.32.32,0,0,1,0,.27l-.66,1.58a.3.3,0,0,1-.32.19l-.62-.09a.3.3,0,0,1-.26-.35l.27-1.65A.29.29,0,0,1,167.84,123Z"/><path class="cls-7" d="M139,59l1.16-.87a.54.54,0,0,1,.62,0l.56.39a.53.53,0,0,1,.23.42l.11,3a.53.53,0,0,1-.38.53l-1,.32a.54.54,0,0,1-.67-.37l-.78-2.83A.54.54,0,0,1,139,59Z"/><path class="cls-7" d="M101.59,93l1.94-.42a.72.72,0,0,1,.78.34l.48.8a.76.76,0,0,1,0,.66l-1.57,3.79a.73.73,0,0,1-.78.45L101,98.36a.72.72,0,0,1-.62-.84l.65-4A.72.72,0,0,1,101.59,93Z"/><path class="cls-6" d="M131.05,124.1l1-1.23a.56.56,0,0,1,.79-.08l.58.47a.55.55,0,0,1,.21.43v5.73a.52.52,0,0,1-.07.27L132,132.58a.57.57,0,0,1-.74.24h0a.55.55,0,0,1-.28-.71l1.06-2.69a.58.58,0,0,0-.17-.65l-.24-.2a.54.54,0,0,1-.2-.54l.28-1.47a.63.63,0,0,0,0-.36l-.73-1.5A.55.55,0,0,1,131.05,124.1Z"/><path class="cls-6" d="M182.84,89.86l.5.1a.49.49,0,0,1,.33.25l.59,1.09a.48.48,0,0,1,.06.24V92a.49.49,0,0,1-.49.49h-.92a.5.5,0,0,1-.42-.23l-.17-.28a.48.48,0,0,1-.07-.26V90.34A.49.49,0,0,1,182.84,89.86Z"/><path class="cls-9" d="M99.52,76.4l.49.11a.49.49,0,0,1,.33.25l.59,1.09a.46.46,0,0,1,.06.23v.44a.49.49,0,0,1-.49.5h-.91a.49.49,0,0,1-.42-.24L99,78.5a.44.44,0,0,1-.07-.26V76.89A.5.5,0,0,1,99.52,76.4Z"/><path class="cls-6" d="M108.92,89.13l.9.19a.89.89,0,0,1,.6.45l1.09,2a.92.92,0,0,1,.11.43V93a.9.9,0,0,1-.91.9h-1.66a.92.92,0,0,1-.77-.42L108,93a.92.92,0,0,1-.14-.48V90A.9.9,0,0,1,108.92,89.13Z"/><path class="cls-6" d="M230.69,100.5l.52-.81a.53.53,0,0,1,.46-.25h1.71a.52.52,0,0,1,.41.18l1.7,1.93a.53.53,0,0,1,.13.36V103a.54.54,0,0,1-.59.54l-2.18-.2a.54.54,0,0,1-.5-.54h0a.54.54,0,0,0-.54-.54l-2.3,0a.55.55,0,0,1-.55-.54v0a.54.54,0,0,1,.34-.5l1.14-.48A.51.51,0,0,0,230.69,100.5Z"/><path class="cls-6" d="M124.52,131.76,125,131a.54.54,0,0,1,.46-.26h1.71a.55.55,0,0,1,.41.19l1.7,1.93a.59.59,0,0,1,.13.36v1.1a.54.54,0,0,1-.59.54l-2.18-.2a.54.54,0,0,1-.5-.54h0a.55.55,0,0,0-.54-.55h-2.31a.54.54,0,0,1-.54-.54v0a.53.53,0,0,1,.34-.5l1.14-.48A.51.51,0,0,0,124.52,131.76Z"/><path class="cls-7" d="M194,100.61l1-1.63a1.08,1.08,0,0,1,.91-.5h3.42a1.12,1.12,0,0,1,.82.37l3.39,3.86a1.11,1.11,0,0,1,.27.72v2.18a1.09,1.09,0,0,1-1.19,1.09l-4.35-.39a1.1,1.1,0,0,1-1-1.09h0a1.09,1.09,0,0,0-1.08-1.09l-4.61,0a1.08,1.08,0,0,1-1.08-1.08v0a1.09,1.09,0,0,1,.67-1l2.28-1A1.07,1.07,0,0,0,194,100.61Z"/><path class="cls-6" d="M219.64,96.7l0,.11a.43.43,0,0,0,.26.31l1.53.55a.34.34,0,0,0,.14,0h1.71a.43.43,0,0,1,.38.26h0a.41.41,0,0,0,.65.15l.58-.54a.43.43,0,0,0,.13-.3v-.9a.41.41,0,0,0-.31-.4L222,95.34a.39.39,0,0,0-.26,0l-1.88.88A.41.41,0,0,0,219.64,96.7Z"/><path class="cls-6" d="M136,72.41l.4-.17a1.45,1.45,0,0,0,.89-1.11l.91-5.74a1.4,1.4,0,0,0,0-.5l-1.15-6a1.43,1.43,0,0,1,.64-1.49h0a1.45,1.45,0,0,0,.07-2.39l-2.28-1.69a1.46,1.46,0,0,0-1.13-.26l-3.18.61A1.47,1.47,0,0,0,129.94,55l-.33,10a1.45,1.45,0,0,0,.27.9l4.36,6A1.45,1.45,0,0,0,136,72.41Z"/><path class="cls-6" d="M199,75.59l.05.27a.92.92,0,0,0,.58.67l3.4,1.23a1,1,0,0,0,.3,0h3.8a.9.9,0,0,1,.84.57h0a.89.89,0,0,0,1.44.32l1.3-1.19a.88.88,0,0,0,.29-.66v-2a.9.9,0,0,0-.7-.88l-6.05-1.38a.9.9,0,0,0-.58.07l-4.17,1.95A.91.91,0,0,0,199,75.59Z"/><path class="cls-7" d="M210.09,129.74l-1.24,1.69a.39.39,0,0,0,.32.62h6.08a.38.38,0,0,0,.25-.09l2.29-1.94a.39.39,0,0,0-.27-.68l-7.13.24A.37.37,0,0,0,210.09,129.74Z"/><path class="cls-7" d="M191.56,93.05l-1,2.65a.29.29,0,0,0,.21.38l3.3.6a.33.33,0,0,0,.25-.08l3.46-3.37a.27.27,0,0,0,.09-.2v-.82a.28.28,0,0,0-.33-.28l-5.79.94A.31.31,0,0,0,191.56,93.05Z"/><path class="cls-6" d="M225.65,102.59h.72a.27.27,0,0,1,.15,0l1.29.94a.26.26,0,0,1-.09.46l-1.19.31a.27.27,0,0,1-.29-.11l-.81-1.24A.26.26,0,0,1,225.65,102.59Z"/><path class="cls-4" d="M236.76,85.66V88a1.16,1.16,0,0,1-.85,1.11l-.85.23a1.16,1.16,0,0,0-.84,1.11v.9a1.18,1.18,0,0,1-.35.83l-2.07,2-.05,0-2.37,2.07a1.12,1.12,0,0,0-.34.49v.06a1.15,1.15,0,0,0,.42,1.31h0a1.15,1.15,0,0,0,1.28,0l2-1.24A1.14,1.14,0,0,1,234,97l.2.16a1.13,1.13,0,0,0,1.28.11l.86-.47a1.15,1.15,0,0,0,.48-1.51l-.12-.26a1.13,1.13,0,0,1,.38-1.44l.48-.34a1.15,1.15,0,0,0,.49-.94V91a1.16,1.16,0,0,1,.64-1l1-.49a1.17,1.17,0,0,0,.64-1V86.12a1.17,1.17,0,0,0-.22-.68l-.68-.92a1.15,1.15,0,0,0-1.64-.23l-.59.47A1.14,1.14,0,0,0,236.76,85.66Z"/></g><ellipse class="cls-10" cx="129.5" cy="182" rx="129.5" ry="25"/><polygon class="cls-1" points="99.21 46.32 99.49 53.71 93.36 52.53 94.17 45.9 99.21 46.32"/><path class="cls-1" d="M105.35,37.79l-1.67-.52L103,39.46l1.58.21,1-.74A.65.65,0,0,0,105.35,37.79Z"/><circle class="cls-1" cx="97.85" cy="40.29" r="6.96" transform="translate(-7.05 54.25) rotate(-29.96)"/><g class="cls-11"><path class="cls-12" d="M104.8,34.84h0a5.66,5.66,0,0,0-7.4-3.48l-.52.2h0L88.51,37.2s-1.06,6.26,2,6.14c5.62-.21,7.1-3.44,7.24-6.47Z"/></g><path class="cls-1" d="M96.92,41.39a2,2,0,0,1-3.87-.52,2,2,0,0,1,3.87.52Z"/><path class="cls-12" d="M86.31,38.57a6.89,6.89,0,1,1,8.94-3.88A6.89,6.89,0,0,1,86.31,38.57Z"/><path class="cls-1" d="M90.19,52l12.61-.48s-.45,4.73-6.16,4.95S90.19,52,90.19,52Z"/><path class="cls-13" d="M140.57,146.55v9.64a1.23,1.23,0,0,0,1.24,1.24h3.88V145.31h-3.88A1.24,1.24,0,0,0,140.57,146.55Z"/><path class="cls-7" d="M163.19,155.06l-2.14-8.31a1.9,1.9,0,0,0-1.85-1.44H147.47v12.16h.05a33.34,33.34,0,0,1,5.42,5.86,1.8,1.8,0,0,0,3.22-1.54,10.88,10.88,0,0,0-2.83-4.33l8,0A1.91,1.91,0,0,0,163.19,155.06Z"/><path class="cls-13" d="M216.42,47v-9.5a1.23,1.23,0,0,0-1.22-1.23h-3.83V48.23h3.83A1.22,1.22,0,0,0,216.42,47Z"/><path class="cls-7" d="M194.13,38.63l2.1,8.19a1.87,1.87,0,0,0,1.82,1.41h11.57v-12h-.05a32.78,32.78,0,0,1-5.34-5.78A1.78,1.78,0,0,0,201.05,32a10.69,10.69,0,0,0,2.79,4.27l-7.9,0A1.88,1.88,0,0,0,194.13,38.63Z"/><rect class="cls-14" x="86" y="181" width="48" height="10" rx="5" ry="5"/><rect class="cls-14" x="40" y="181" width="28" height="9" rx="4.5" ry="4.5"/><path class="cls-1" d="M106.92,181.76c.08-.49-.43-12.64-.43-12.64l6.45,0,.52,12.65Z"/><path class="cls-15" d="M124.45,184.42l-18,.14,0-5.53,12.44-.1a5.55,5.55,0,0,1,5.59,5.49Z"/><path class="cls-1" d="M53.91,171c.35-.35,7.07-10.48,7.07-10.48l5.24,3.78-7,10.53Z"/><path class="cls-15" d="M66.52,183.47,51.87,173l3.23-4.49,10.12,7.24a5.55,5.55,0,0,1,1.3,7.73Z"/><path class="cls-6" d="M109.56,84.26c.3,3.54.68,7.08,1,10.62l1.14,10.6c.37,3.54.82,7.06,1.23,10.59l1.26,10.58.06.51a1.1,1.1,0,0,1,0,.18l.32,11.14c.11,3.71.18,7.43.35,11.14l.43,11.13c.19,3.71.34,7.42.57,11.12l-12.12.69c-.19-3.71-.47-7.41-.7-11.12l-.82-11.11c-.26-3.7-.61-7.4-.91-11.1l-1-11.1.08.69-2.07-10.46c-.7-3.49-1.35-7-2.09-10.45L94.2,97.47c-.77-3.47-1.5-7-2.31-10.42Z"/><path class="cls-3" d="M98.37,87.22l-6.14,39.71-.08.51a6.34,6.34,0,0,1-.88,2.36L66.51,169.22,56.11,163l23.3-40.3-1,2.86,2.13-40.14Z"/><polygon class="cls-16" points="87 56 88 76 92.35 74.88 92 80 84 83 79.95 77.61 83 65 87 56"/><path class="cls-13" d="M163.65,10a10,10,0,0,0-20.05,0c0,7.93,10,19.67,10,19.67s10-11.78,10-19.67Zm-15-.6a4.94,4.94,0,1,1,4.94,4.95,4.94,4.94,0,0,1-4.94-4.95Z"/><path class="cls-7" d="M156.06,9.42A2.43,2.43,0,1,1,153.63,7a2.43,2.43,0,0,1,2.43,2.43Z"/><path class="cls-7" d="M159.3,26.2c-.82,1.18-1.59,2.21-2.23,3,6.34.38,10.49,1.75,12,2.77-1.81,1.19-7.18,2.87-15.47,2.87S140,33.19,138.16,32c1.54-1,5.69-2.38,12-2.77-.64-.82-1.41-1.85-2.23-3-7.79.77-13.45,3.07-13.45,5.8,0,3.35,8.57,6.07,19.13,6.07s19.13-2.72,19.13-6.07c0-2.73-5.67-5-13.46-5.8Z"/><path class="cls-17" d="M81.59,52.38l24.71-1A3.58,3.58,0,0,1,110,55l.22,28a3.59,3.59,0,0,1-3.45,3.61l-22.56.87a3.59,3.59,0,0,1-3.72-3.28L78.15,56.27A3.59,3.59,0,0,1,81.59,52.38Z"/><circle class="cls-3" cx="115.55" cy="70.01" r="23.71" transform="translate(-19.55 70.87) rotate(-31.57)"/><circle class="cls-18" cx="115.55" cy="70.01" r="19.63" transform="translate(-16.89 96.71) rotate(-42.61)"/><path class="cls-13" d="M122.2,60.87a10,10,0,1,0-17.68,9.45c3.74,7,18.11,12.61,18.11,12.61s3.28-15.11-.43-22.06Zm-13.48,6.52a4.94,4.94,0,1,1,6.68,2,4.92,4.92,0,0,1-6.68-2Z"/><path class="cls-1" d="M114.14,67a3.9,3.9,0,0,0-5.36,1.31,4,4,0,0,0-.56,1.93l-4.77,3.33.35,4.35,7.26-3.83A3.9,3.9,0,0,0,114.14,67Z"/><path class="cls-19" d="M81.1,90.82a4.4,4.4,0,0,1-4.58-4.6l1.61-30.38,8.61-.26L85.67,79.23l20.12-9.75,3.85,7.94-26.79,13A4.35,4.35,0,0,1,81.1,90.82Z"/></g></g></svg>